<svg xmlns="http://www.w3.org/2000/svg" width="191.641" height="172.154" viewBox="0 0 191.641 172.154">
  <g id="Group_9733" data-name="Group 9733" transform="translate(-54.207 -82.448)">
    <g id="Group_9734" data-name="Group 9734" transform="translate(144.295 82.448)">
      <circle id="Ellipse_59" data-name="Ellipse 59" cx="10.706" cy="10.706" r="10.706" transform="translate(0)" fill="#ffdf97"/>
      <path id="Path_2951" data-name="Path 2951" d="M194.339,88.684a10.7,10.7,0,0,1-19.379,4.277,10.7,10.7,0,1,0,19.379-4.277Z" transform="translate(-174.802 -84.026)" fill="#edc77c"/>
      <path id="Path_2952" data-name="Path 2952" d="M178.348,88.119a9.566,9.566,0,0,0,13.381-2.464,9.566,9.566,0,0,0-13.381,2.464Z" transform="translate(-175.699 -82.825)" fill="#ffecc7"/>
      <g id="Group_9733-2" data-name="Group 9733" transform="translate(1.893 0.066)" opacity="0.42" style="mix-blend-mode: multiply;isolation: isolate">
        <path id="Path_2953" data-name="Path 2953" d="M180.733,95.555a19.277,19.277,0,0,0,1.926,7.4,10.645,10.645,0,0,0,2.085.682c-3.84-7.464-3.359-16.453,4.262-20.975-.276-.053-.555-.1-.839-.128C184.829,84.082,180.256,87.65,180.733,95.555Z" transform="translate(-178.187 -82.537)" fill="#51393e"/>
        <path id="Path_2954" data-name="Path 2954" d="M191.52,89.136s-5.743,9.478-1.324,15.443a7.9,7.9,0,0,0,.682.8,10.656,10.656,0,0,0,1.838-.506C189.312,102.529,188.02,97.007,191.52,89.136Z" transform="translate(-180.167 -84.206)" fill="#51393e"/>
        <path id="Path_2955" data-name="Path 2955" d="M177.912,97.1a15.718,15.718,0,0,1,3.613-13.226,10.713,10.713,0,0,0-2.207,1.4A15.685,15.685,0,0,0,177.912,97.1Z" transform="translate(-177.337 -82.874)" fill="#51393e"/>
      </g>
    </g>
    <g id="Group_9741" data-name="Group 9741" transform="translate(197.604 149.294)">
      <path id="Path_2956" data-name="Path 2956" d="M263.65,221.735c1.615-2.953,5.263-14.143,7.914-16.326,1.649-1.357,3.371.805,2.666,3.519-.7,2.7-5.725,13.935-7.487,14.97C266.036,224.314,262.917,223.078,263.65,221.735Z" transform="translate(-250.559 -180.295)" fill="#ffa33e"/>
      <path id="Path_2957" data-name="Path 2957" d="M272.921,205.058a3.687,3.687,0,0,1,.449,2.928c-.7,2.7-6.448,13.7-8.211,14.738a2.108,2.108,0,0,1-1.469-.143c.492.965,2.534,1.662,3.09,1.336,1.763-1.035,7.51-12.04,8.211-14.738C275.521,207.14,274.274,205.282,272.921,205.058Z" transform="translate(-250.598 -180.311)" fill="#ff8533"/>
      <path id="Path_2958" data-name="Path 2958" d="M268.176,224.913a2.858,2.858,0,1,0-1.146,3.471A2.607,2.607,0,0,0,268.176,224.913Z" transform="translate(-250.449 -185.083)" fill="#e85684"/>
      <path id="Path_2959" data-name="Path 2959" d="M268.2,224.956a2.067,2.067,0,0,0-1.14-.864,2.753,2.753,0,0,1-1.367,2.944,3,3,0,0,1-2.481.37,1.965,1.965,0,0,0,.22.527,2.858,2.858,0,0,0,4.768-2.977Z" transform="translate(-250.477 -185.126)" fill="#cc366c"/>
      <path id="Path_2960" data-name="Path 2960" d="M250.248,240.174c3.69-4.693,9.236-13.615,10.815-14.356a1.62,1.62,0,0,1,2.017,2.365c-1.776,3.061-12.318,12.053-12.318,12.053Z" transform="translate(-247.197 -185.53)" fill="#ffb882"/>
      <path id="Path_2961" data-name="Path 2961" d="M261.873,225.7a1.561,1.561,0,0,1,.582,2.136c-1.37,2.568-9.079,9.771-11.91,12.371l.292.035s11.235-8.937,13.011-12C264.659,226.842,263.1,225.748,261.873,225.7Z" transform="translate(-247.272 -185.532)" fill="#ff9566"/>
      <path id="Path_2962" data-name="Path 2962" d="M270,240.966s-12.773,18.186-14.7,22.573c-.519,1.18-2.419,30.305-2.419,30.305h.406l6.838-26.607,18.155-17.926Z" transform="translate(-247.862 -189.395)" fill="#ffb882"/>
      <path id="Path_2963" data-name="Path 2963" d="M270.656,240.966s-12.773,18.186-14.7,22.573a29.87,29.87,0,0,0-.471,3.814l4.827,1.708.469-1.824,18.155-17.926Z" transform="translate(-248.522 -189.395)" fill="#ff9566"/>
      <path id="Path_2964" data-name="Path 2964" d="M288.727,272.422l10.86,20.736-.291.261s-15.648-19.541-16.039-20.847c-.7-2.35-4.495-19.51-4.495-19.51l-4.665-3.455,3.009-11.4,10.721,1.191Z" transform="translate(-253.23 -188.698)" fill="#ffb882"/>
      <path id="Path_2965" data-name="Path 2965" d="M285.7,276.077h4.941l-1.915-3.655-.9-33.021-10.721-1.191-3.009,11.4,4.665,3.455s3.791,17.16,4.495,19.51A28.834,28.834,0,0,0,285.7,276.077Z" transform="translate(-253.23 -188.698)" fill="#ff9566"/>
      <path id="Path_2966" data-name="Path 2966" d="M256.6,260.6l8.919,8.953,12.155-19.971-8.923-9.278Z" transform="translate(-248.805 -189.228)" fill="#ffdf97"/>
      <path id="Path_2967" data-name="Path 2967" d="M271.3,240.307l-.521.87,7.537,7.836-11.648,19.138,1.4,1.405,12.155-19.971Z" transform="translate(-251.351 -189.228)" fill="#f4bd7a"/>
      <path id="Path_2968" data-name="Path 2968" d="M278.824,273.652l12.262.115L290.45,249.3l-13.3-3.6-1.991,11.974,2.991,2.369Z" transform="translate(-253.498 -190.591)" fill="#ffdf97"/>
      <path id="Path_2969" data-name="Path 2969" d="M288.84,256l-.19-7.306-18.621-5.373-1.986,3.767A87.887,87.887,0,0,0,288.84,256Z" transform="translate(-251.698 -189.992)" fill="#f4bd7a"/>
      <path id="Path_2970" data-name="Path 2970" d="M279.925,262.3c-2.509.41-4.741-.821-6.819-2.956l1.831,2.711,2.181,1.482,1.186,13.566,1.525.014-1.43-13.387Z" transform="translate(-252.979 -194.045)" fill="#f4bd7a"/>
      <path id="Path_2971" data-name="Path 2971" d="M273.026,204.541c.553-.532,2.149-2.792,4.617-2.394a6.7,6.7,0,0,1,5.208,3.741c1.124,2.322,8.824,17.681,7.278,35.21-8.335,1.461-21.171-6.2-21.171-6.2C277.254,215.922,268.266,209.127,273.026,204.541Z" transform="translate(-251.93 -179.563)" fill="#ffa33e"/>
      <path id="Path_2972" data-name="Path 2972" d="M287.023,208.147c-2.217-1.455,2.861,15.261,2.861,28.546a33.853,33.853,0,0,1-.473,5.867,16.238,16.238,0,0,0,5.146.045C296.1,225.076,289.057,209.482,287.023,208.147Z" transform="translate(-256.358 -181.07)" fill="#ff8533"/>
      <path id="Path_2973" data-name="Path 2973" d="M273.317,226.921c4.617-5.838,5.623-17.97,8.317-20.622,1.693-1.667,3.57,2.463,3.07,5.82-.505,3.4-3.91,14.3-6.716,17.1C277.343,229.858,272.174,228.366,273.317,226.921Z" transform="translate(-252.991 -180.529)" fill="#ffa33e"/>
      <path id="Path_2974" data-name="Path 2974" d="M279.87,211.061c-1.645,4.8-3.074,12.764-6.551,17.161a.644.644,0,0,0-.063.769c2.771-3.059,6.044-13.58,6.539-16.906A7.639,7.639,0,0,0,279.87,211.061Z" transform="translate(-252.992 -181.83)" fill="#ff8533"/>
      <path id="Path_2975" data-name="Path 2975" d="M284.168,206.454a8.285,8.285,0,0,1,.591,4.423c-.592,3.595-4.907,15.065-7.814,18.088a1.1,1.1,0,0,1-.747.179c1.114.359,2.277.492,2.562.208,2.806-2.792,6.819-13.566,7.324-16.964A7.191,7.191,0,0,0,284.168,206.454Z" transform="translate(-253.761 -180.664)" fill="#ff8533"/>
      <path id="Path_2976" data-name="Path 2976" d="M279.319,232.2a3.265,3.265,0,1,0-1.913,3.712A2.978,2.978,0,0,0,279.319,232.2Z" transform="translate(-253.01 -186.797)" fill="#e85684"/>
      <path id="Path_2977" data-name="Path 2977" d="M279.328,232.312a2.358,2.358,0,0,0-1.132-1.178,3.145,3.145,0,0,1-2.068,3.078,3.43,3.43,0,0,1-2.866-.026,2.229,2.229,0,0,0,.155.633,3.265,3.265,0,0,0,5.911-2.508Z" transform="translate(-253.018 -186.908)" fill="#cc366c"/>
      <path id="Path_2978" data-name="Path 2978" d="M256.076,245.056c4.889-3.969,12.977-12.161,14.8-12.547,1.356-.286,2.951,1.937,1.4,3.592-2.771,2.954-15.754,9.2-15.754,9.2Z" transform="translate(-248.671 -187.249)" fill="#ffb882"/>
      <path id="Path_2979" data-name="Path 2979" d="M270.9,232.508c-.008,0-.019.007-.027.008.985.616,1.717,1.947.687,3.087-2.118,2.345-11.437,7.385-15.416,9.479l.4.22s13.751-6.334,16.522-9.289C274.616,234.358,272.253,232.222,270.9,232.508Z" transform="translate(-248.688 -187.249)" fill="#ff9566"/>
      <path id="Path_2980" data-name="Path 2980" d="M309.292,312.213H305s.668-2.289,1.907-2S309.292,312.213,309.292,312.213Z" transform="translate(-261.048 -206.906)" fill="#ffdf97"/>
      <path id="Path_2981" data-name="Path 2981" d="M246.787,312.117h6.051s-.021-2.575-1.677-2.289S246.787,312.117,246.787,312.117Z" transform="translate(-246.321 -206.81)" fill="#ffdf97"/>
      <path id="Path_2982" data-name="Path 2982" d="M275.367,207.4s5.193.795,5.817-4.67a7.933,7.933,0,0,0-1.964-.586,4.02,4.02,0,0,0-3.237,1.016A5.521,5.521,0,0,0,275.367,207.4Z" transform="translate(-253.507 -179.563)" fill="#e85684"/>
      <path id="Path_2983" data-name="Path 2983" d="M289.317,182.281c-.807-3.326-3.28-2.011-3.28-2.011,1.291-2.777.974-4.885-.025-5.081a2.064,2.064,0,0,0-1.54-2.154c-2.267-.84-3.118,1.73-3.118,1.73-.642-2.2-1.9-2.921-2.637-2.319a1.909,1.909,0,0,0-2.3-.251c-2.171,1-1.078,3.51-1.078,3.51-3.34-2.033-5.018.6-1.351,2.985l2.089,15.4c.571-.21,1.1-.427,1.607-.647a1,1,0,0,0,.721.6c1.628.43,2.872-2,2.872-2,.083,3.5,3.36,2.116,3.168-3.261a8.034,8.034,0,0,0,.992-1.436C287.709,187.049,290.2,185.924,289.317,182.281Z" transform="translate(-252.678 -171.931)" fill="#b54131"/>
      <path id="Path_2984" data-name="Path 2984" d="M290.225,183.532c-.807-3.326-3.28-2.011-3.28-2.011.991-2.13,1.032-3.863.548-4.644a8.159,8.159,0,0,1-.223,2.193c-1.118,4.543-4.581-1.876-9.425-.259-.383.128-1.976,5.777-2.342,5.621l1.481,10.914c.571-.21,1.1-.427,1.607-.647a1,1,0,0,0,.721.6c1.628.43,2.872-2,2.872-2,.083,3.5,3.36,2.116,3.168-3.261a8.035,8.035,0,0,0,.992-1.436C288.616,188.3,291.108,187.175,290.225,183.532Z" transform="translate(-253.586 -173.182)" fill="#9b281c"/>
      <path id="Path_2985" data-name="Path 2985" d="M280.109,199.7a22.95,22.95,0,0,1-1.7-7.73l-5.059-1.409,2.274,12.818C278.033,203.272,279.693,202.228,280.109,199.7Z" transform="translate(-253.042 -176.644)" fill="#ffb882"/>
      <g id="Group_9735" data-name="Group 9735" transform="translate(20.263 14.589)" opacity="0.6" style="mix-blend-mode: multiply;isolation: isolate">
        <path id="Path_2986" data-name="Path 2986" d="M274.694,209.638c3.091.964,6.734-2.024,8.585-7.539a6.514,6.514,0,0,0-3.25-2.322A23.179,23.179,0,0,1,278.4,192.2l-2.647-.737a13.508,13.508,0,0,0-1.868,2.394l1.234,6.956c-.459.433-.795.848-.994,1.038-.124.12-.233.242-.339.365l-.03.032c-.013.015-.028.029-.04.044C272.974,203.067,273.139,209.154,274.694,209.638Z" transform="translate(-273.288 -191.461)" fill="#843131"/>
      </g>
      <g id="Group_9738" data-name="Group 9738" transform="translate(14.736 4.978)">
        <path id="Path_2987" data-name="Path 2987" d="M278.341,185.79c-2.054,6.2-2.613,9.143-4.419,10.2s-6.563.581-8.032-.461c0,0,2.579-13.736,5.8-16.252S279.689,181.719,278.341,185.79Z" transform="translate(-265.89 -178.595)" fill="#ffb882"/>
        <path id="Path_2988" data-name="Path 2988" d="M278.212,191.91a50.236,50.236,0,0,1,3.609-9.924,1.417,1.417,0,0,1,2.507-.075l2.754,4.521-5.5,7.476-1.094-1.7Z" transform="translate(-269.007 -179.252)" fill="#9b281c"/>
        <path id="Path_2989" data-name="Path 2989" d="M280.353,191.449c1.133-1.806,3.672-.673,2.612,1.347s-3.37,2.78-3.71,2.19S279.881,192.2,280.353,191.449Z" transform="translate(-269.253 -181.618)" fill="#ffb882"/>
        <path id="Path_2990" data-name="Path 2990" d="M280.824,192.4c.672-1.062,2.174-.4,1.545.789s-2,1.637-2.2,1.29S280.544,192.845,280.824,192.4Z" transform="translate(-269.492 -181.954)" fill="#d3583c"/>
        <path id="Path_2991" data-name="Path 2991" d="M280.3,193.946c.459-.726,1.486-.273,1.056.539s-1.365,1.118-1.5.881S280.107,194.247,280.3,193.946Z" transform="translate(-269.415 -182.387)" fill="#ffb882"/>
        <g id="Group_9737" data-name="Group 9737" transform="translate(2.258 2.029)">
          <path id="Path_2992" data-name="Path 2992" d="M271.817,199.269c.017-.131-.221-.058-.51-.09s-.519-.158-.537-.028.2.263.492.3S271.8,199.4,271.817,199.269Z" transform="translate(-269.382 -185.81)" fill="#ea7b59"/>
          <g id="Group_9736" data-name="Group 9736" transform="translate(0.07 10.872)">
            <path id="Path_2993" data-name="Path 2993" d="M269.006,197.439l.027-.079a3.365,3.365,0,0,0,3.145.1,2.856,2.856,0,0,0,.966-1.594l.252.11a2.907,2.907,0,0,1-1.174,1.673A3.352,3.352,0,0,1,269.006,197.439Z" transform="translate(-269.006 -195.865)" fill="#ea7b59"/>
          </g>
          <path id="Path_2994" data-name="Path 2994" d="M271.263,187.358c.3-.642.77-1.093,1.049-1.009s.261.672-.039,1.318-.775,1.111-1.056,1.024S270.957,188.007,271.263,187.358Z" transform="translate(-269.445 -182.584)" fill="#4f3131"/>
          <path id="Path_2995" data-name="Path 2995" d="M273.332,187.694c-.207-.417-3.613,3.778-3.865,4.654-.132.456,2.045,1.192,2.045,1.192S273.371,187.77,273.332,187.694Z" transform="translate(-269.051 -182.919)" fill="#ffb882"/>
          <path id="Path_2996" data-name="Path 2996" d="M273.013,187.758a24.36,24.36,0,0,0-3.539,4.555c-.1.344,1.225.884,1.777,1.073-.052.154-.081.245-.081.245s-2.4-.654-2.252-1.11C269.189,191.679,272.639,187.7,273.013,187.758Z" transform="translate(-268.912 -182.942)" fill="#ea7b59"/>
          <path id="Path_2997" data-name="Path 2997" d="M275.762,188.613c.3-.653.759-1.108,1.042-1.023s.281.68-.01,1.333-.763,1.128-1.05,1.042S275.469,189.269,275.762,188.613Z" transform="translate(-270.588 -182.897)" fill="#4f3131"/>
          <path id="Path_2998" data-name="Path 2998" d="M276.53,183.857c-.049.868,2.086,1.785,2.538,1.52s.823-.585.556-1.011-1.729-1.915-2.216-1.788A1.6,1.6,0,0,0,276.53,183.857Z" transform="translate(-270.839 -181.63)" fill="#b54131"/>
          <path id="Path_2999" data-name="Path 2999" d="M273.531,182.943c-.39.679-2.687.339-2.783-.128s-.123-.927.208-1.082,2.558-.667,2.744-.279A2.083,2.083,0,0,1,273.531,182.943Z" transform="translate(-269.361 -181.312)" fill="#b54131"/>
        </g>
      </g>
      <g id="Group_9739" data-name="Group 9739" transform="translate(4.864 56.336)">
        <path id="Path_3000" data-name="Path 3000" d="M258.085,247.768c-.454.94-.549,1.44-.686,1.653s-.483.968-.858.943-1.849-1.046-1.59-1.395,1.554-.752,2.637-1.47C258.3,247.032,258.085,247.768,258.085,247.768Z" transform="translate(-253.243 -247.344)" fill="#ffb882"/>
        <path id="Path_3001" data-name="Path 3001" d="M257.3,250.61c-.317.625-1.1,2.529-1.35,2.556s.586-2.694.586-2.694Z" transform="translate(-253.49 -248.136)" fill="#ffb882"/>
        <path id="Path_3002" data-name="Path 3002" d="M257.005,247.975c-1,.143-2.793-.424-2.892-.2s2.364,1.073,2.364,1.073Z" transform="translate(-253.038 -247.44)" fill="#ffb882"/>
        <path id="Path_3003" data-name="Path 3003" d="M256,250.323c-.51.487-1.893,2.069-2.2,2.032S255.158,250,255.158,250Z" transform="translate(-252.948 -248.017)" fill="#ffb882"/>
        <path id="Path_3004" data-name="Path 3004" d="M255.726,249.6c-.681.2-2.685,1-3.02.856s2.216-1.422,2.216-1.422Z" transform="translate(-252.674 -247.771)" fill="#ffb882"/>
      </g>
      <g id="Group_9740" data-name="Group 9740" transform="translate(0 53.062)">
        <path id="Path_3005" data-name="Path 3005" d="M251.573,243.385c-.454.94-.549,1.44-.686,1.653s-.482.968-.858.944-1.849-1.046-1.59-1.395,1.554-.751,2.638-1.47C251.784,242.65,251.573,243.385,251.573,243.385Z" transform="translate(-246.732 -242.962)" fill="#ffb882"/>
        <path id="Path_3006" data-name="Path 3006" d="M250.787,246.227c-.318.625-1.1,2.529-1.351,2.556s.586-2.694.586-2.694Z" transform="translate(-246.979 -243.753)" fill="#ffb882"/>
        <path id="Path_3007" data-name="Path 3007" d="M250.494,243.592c-1,.143-2.792-.424-2.892-.2s2.364,1.073,2.364,1.073Z" transform="translate(-246.527 -243.057)" fill="#ffb882"/>
        <path id="Path_3008" data-name="Path 3008" d="M249.484,245.94c-.509.487-1.893,2.069-2.2,2.032s1.363-2.352,1.363-2.352Z" transform="translate(-246.437 -243.634)" fill="#ffb882"/>
        <path id="Path_3009" data-name="Path 3009" d="M249.216,245.212c-.682.2-2.685,1-3.021.856s2.216-1.422,2.216-1.422Z" transform="translate(-246.163 -243.388)" fill="#ffb882"/>
      </g>
    </g>
    <g id="Group_9747" data-name="Group 9747" transform="translate(156.807 125.427)">
      <path id="Path_3010" data-name="Path 3010" d="M198.194,288.012s-1.051-34.332-.646-37.467c.842-6.527,9.318-32.824,9.318-32.824s9.167-1.891,10.541,8.028c-6.964,12.324-12.357,24.139-13.065,26.512l-5.711,35.615Z" transform="translate(-193.045 -159.611)" fill="#e85684"/>
      <path id="Path_3011" data-name="Path 3011" d="M207.965,217.636c3.854.5,4.381,1.815,5.185,7.623a129.525,129.525,0,0,0-10.943,24.656l-3.48,38.017.226-.069,6.321-35.641c.708-2.373,7.112-14.829,14.075-27.153C218.178,216.611,210.792,217.445,207.965,217.636Z" transform="translate(-193.367 -159.597)" fill="#d13d72"/>
      <path id="Path_3012" data-name="Path 3012" d="M191.552,312.117H197.6s.807-2.575-.942-2.289S191.552,312.117,191.552,312.117Z" transform="translate(-191.552 -182.942)" fill="#ffdf97"/>
      <path id="Path_3013" data-name="Path 3013" d="M227.621,197.35c-10.685-10.412-14.5-18.332-11.583-25.134,2.979-6.938,3.415-18.84,9.489-20.741,5.591-6.111,13.26-2.022,15.806,8.356,3.773,15.384-8.028,20.349-10.8,25.976A31.8,31.8,0,0,0,227.621,197.35Z" transform="translate(-197.506 -142.165)" fill="#84474c"/>
      <path id="Path_3014" data-name="Path 3014" d="M241.332,161.513a20.968,20.968,0,0,0-2.57-6.246,8.836,8.836,0,0,1-9.123,9.708,12.418,12.418,0,0,1-9.547-4.791c-1.513,4.374-2.385,9.824-4.055,13.715-2.92,6.8.9,14.722,11.583,25.134a31.8,31.8,0,0,1,2.916-11.545C233.3,181.862,245.106,176.9,241.332,161.513Z" transform="translate(-197.506 -143.848)" fill="#5e2a33"/>
      <path id="Path_3015" data-name="Path 3015" d="M227.971,202.869a31.8,31.8,0,0,1,2.916-11.545,21.444,21.444,0,0,1,3.875-4.777c-7.585-6.864-1.082-16.115-5.391-16.115-4.487,0-11.414,8.861-12.894,17.085C218.182,192.017,222,197.054,227.971,202.869Z" transform="translate(-197.857 -147.684)" fill="#441d24"/>
      <path id="Path_3016" data-name="Path 3016" d="M231.13,288.2s-13.08-28.95-13.751-32.727c-.394-2.217-1.092-19.214-1.092-19.214l-5.231-1.772.288-15.748a18.457,18.457,0,0,1,15.383,3.658c3.984,12.339-2.574,29.939-1.544,32.056l6.176,33.747Z" transform="translate(-196.486 -159.801)" fill="#e85684"/>
      <path id="Path_3017" data-name="Path 3017" d="M225.306,221.946c3.984,12.339-1.322,30.431-.293,32.547l7.577,33.122.27.6h.229l-6.176-33.747c-1.029-2.116,5.528-19.716,1.544-32.056a19.014,19.014,0,0,0-10.561-4.034A19.262,19.262,0,0,1,225.306,221.946Z" transform="translate(-198.216 -159.813)" fill="#d13d72"/>
      <path id="Path_3018" data-name="Path 3018" d="M214.337,242.476l-6.6-3.789s8.293,1.358,10.617.89Z" transform="translate(-195.647 -164.951)" fill="#d13d72"/>
      <path id="Path_3019" data-name="Path 3019" d="M215.906,224.773c.19-.064-.258,6.9-.258,6.9l.83-.032,1.462-6.739Z" transform="translate(-197.648 -161.431)" fill="#d13d72"/>
      <path id="Path_3020" data-name="Path 3020" d="M224.536,221.53l-16.35.549-1.221,4.159a43.806,43.806,0,0,0,18.307,1.484Z" transform="translate(-195.451 -160.611)" fill="#d13d72"/>
      <path id="Path_3021" data-name="Path 3021" d="M207.73,216.35c2.7,2.482,19.272,2.3,19.272,2.3-.9-4.966-8.442-11.831-3.725-26.478l-11.887,6.681C212.519,206.793,208.044,213.965,207.73,216.35Z" transform="translate(-195.645 -153.183)" fill="#663c49"/>
      <path id="Path_3022" data-name="Path 3022" d="M224.359,192.17l-11.887,6.681a21.482,21.482,0,0,1-.462,7.88,4.143,4.143,0,0,1,2.927-1.428c3.564,0,6.473,5.847,6.7,13.233,3.559.143,6.446.112,6.446.112C227.065,212.2,219.643,206.818,224.359,192.17Z" transform="translate(-196.728 -153.183)" fill="#512b39"/>
      <path id="Path_3023" data-name="Path 3023" d="M203.086,164.921c1.776,6.228,7.535,15.5,9.365,17.406,1.469,1.531,6.052-.969,3.992-3.176-2.541-2.722-7.292-13.155-9.543-14.8A2.69,2.69,0,0,0,203.086,164.921Z" transform="translate(-194.47 -145.996)" fill="#663c49"/>
      <path id="Path_3024" data-name="Path 3024" d="M215.631,178.136a1.931,1.931,0,0,1-1.7-.433c-1.506-1.569-5.67-8.122-8.088-13.865a2.861,2.861,0,0,0-2.755,1.085c1.776,6.228,7.535,15.5,9.365,17.4,1.469,1.531,6.052-.968,3.992-3.175A10.676,10.676,0,0,1,215.631,178.136Z" transform="translate(-194.47 -145.998)" fill="#512b39"/>
      <path id="Path_3025" data-name="Path 3025" d="M207.644,164.351a2.887,2.887,0,0,0-3.744-1.585,2.947,2.947,0,0,0-.811,4.02,2.886,2.886,0,0,0,3.743,1.585A2.948,2.948,0,0,0,207.644,164.351Z" transform="translate(-194.361 -145.681)" fill="#e85684"/>
      <path id="Path_3026" data-name="Path 3026" d="M207.976,164.355a3.149,3.149,0,0,0-2.887-1.821,3.753,3.753,0,0,1,.55.772,2.948,2.948,0,0,1-.811,4.02,2.147,2.147,0,0,1-.858.235,2.668,2.668,0,0,0,3.194.814A2.948,2.948,0,0,0,207.976,164.355Z" transform="translate(-194.693 -145.685)" fill="#c9356a"/>
      <path id="Path_3027" data-name="Path 3027" d="M198.437,139.981c.811,9.059,3.181,19.544,4.2,20.483s3.969,1.336,3.871-.915S199,140.125,199,140.125Z" transform="translate(-193.294 -139.981)" fill="#ffb882"/>
      <path id="Path_3028" data-name="Path 3028" d="M224.141,185.023c.811,2.67-3.339,14.863-4.546,15.035s-11.988-1.885-12.345-3.183,7.886-14.158,9.355-14.471S223.8,183.895,224.141,185.023Z" transform="translate(-195.52 -150.704)" fill="#663c49"/>
      <path id="Path_3029" data-name="Path 3029" d="M221,182.432l-2.8,6.167,1.653.445,2.988-6.421Z" transform="translate(-198.295 -150.72)" fill="#e85684"/>
      <path id="Path_3030" data-name="Path 3030" d="M224.142,185.4c-.141-.465-1.2-1.044-2.5-1.544.032.049.11.1.083.145-1.51,2.321-3.4,13.735-4.609,13.907a32.508,32.508,0,0,1-9.873-.821.5.5,0,0,0,.007.165c.357,1.3,11.235,3.832,12.441,3.66S224.952,188.069,224.142,185.4Z" transform="translate(-195.521 -151.08)" fill="#512b39"/>
      <path id="Path_3031" data-name="Path 3031" d="M222.312,180.324l3.059-6.067,4.995.805a73.846,73.846,0,0,0-3.963,7.1,5.27,5.27,0,0,1-3.618.177A1.173,1.173,0,0,1,222.312,180.324Z" transform="translate(-199.228 -148.652)" fill="#ffb882"/>
      <path id="Path_3032" data-name="Path 3032" d="M239.434,312.213h-4.292s.667-2.289,1.907-2S239.434,312.213,239.434,312.213Z" transform="translate(-202.579 -183.038)" fill="#ffdf97"/>
      <g id="Group_9742" data-name="Group 9742" transform="translate(17.974 25.605)" opacity="0.6" style="mix-blend-mode: multiply;isolation: isolate">
        <path id="Path_3033" data-name="Path 3033" d="M220,187.755c1.689-.18,3.2-4.6,5.078-5.742-.05-.026-.095-.052-.148-.078a73.944,73.944,0,0,1,3.85-6.872l-4.995-.805-3.059,6.067s-.024.028-.058.072l-.318-.033-.036.079a4.792,4.792,0,0,0-1.587-.091.6.6,0,0,0-.176.078c-.583-.851-1.228-1.916-1.9-3.067C214.371,181.549,216.011,188.179,220,187.755Z" transform="translate(-215.613 -174.257)" fill="#843131"/>
      </g>
      <g id="Group_9746" data-name="Group 9746" transform="translate(21.38 11.972)">
        <path id="Path_3034" data-name="Path 3034" d="M220.724,174.189c5.186.45,7.343-.143,10.942-3.551s5.574-9.994,2.776-12.944-8.429-2.111-11.618,3.156A16.8,16.8,0,0,0,220.724,174.189Z" transform="translate(-220.173 -156.007)" fill="#ffb882"/>
        <path id="Path_3035" data-name="Path 3035" d="M234.463,177.831a4.153,4.153,0,0,0,5.03-.952c.745-1.16.535-3.2-1.091-2.6S233.7,177.4,234.463,177.831Z" transform="translate(-223.757 -160.601)" fill="#ffb882"/>
        <path id="Path_3036" data-name="Path 3036" d="M236,177.7a2.548,2.548,0,0,0,3.087-.585c.457-.712.329-1.962-.669-1.6S235.528,177.438,236,177.7Z" transform="translate(-224.157 -160.926)" fill="#ea7b59"/>
        <path id="Path_3037" data-name="Path 3037" d="M235.5,178a1.691,1.691,0,0,0,2.048-.388c.3-.472.218-1.3-.444-1.061S235.192,177.828,235.5,178Z" transform="translate(-224.038 -161.193)" fill="#ffb882"/>
        <g id="Group_9745" data-name="Group 9745" transform="translate(1.53 2.965)">
          <path id="Path_3038" data-name="Path 3038" d="M226.881,173.4l-3.508-2.039s-.989,2.641.461,3.427C225.222,175.538,226.881,173.4,226.881,173.4Z" transform="translate(-222.428 -162.855)" fill="#491d2e"/>
          <path id="Path_3039" data-name="Path 3039" d="M226.625,173.607l-2.934-1.828s-.619.79,1.033,1.865C226.463,174.775,226.625,173.607,226.625,173.607Z" transform="translate(-222.563 -162.962)" fill="#ffebeb"/>
          <path id="Path_3040" data-name="Path 3040" d="M232.987,167.62c.327-.752.205-1.468-.292-1.619-.525-.156-1.277.368-1.66,1.2-.393.844-.217,1.611.363,1.691C231.948,168.964,232.651,168.39,232.987,167.62Z" transform="translate(-224.397 -161.493)" fill="#563b36"/>
          <path id="Path_3041" data-name="Path 3041" d="M226.284,164.362c.419-.709.484-1.446.132-1.663s-1.038.2-1.493.967-.489,1.528-.087,1.7C225.224,165.524,225.864,165.071,226.284,164.362Z" transform="translate(-222.811 -160.65)" fill="#563b36"/>
          <path id="Path_3042" data-name="Path 3042" d="M224.949,162.829a3.451,3.451,0,0,1,2.358.5.867.867,0,0,0-.612-.879C226.009,162.2,224.949,162.829,224.949,162.829Z" transform="translate(-222.91 -160.587)" fill="#563b36"/>
          <path id="Path_3043" data-name="Path 3043" d="M233.745,167.382a3.467,3.467,0,0,0-1.785-1.825,1.236,1.236,0,0,1,1.345.228A1.845,1.845,0,0,1,233.745,167.382Z" transform="translate(-224.684 -161.361)" fill="#563b36"/>
          <g id="Group_9743" data-name="Group 9743" transform="translate(2.511)">
            <path id="Path_3044" data-name="Path 3044" d="M225.582,160.694l.024-.255a3.278,3.278,0,0,1,3.227-.075l-.139.54A3.457,3.457,0,0,0,225.582,160.694Z" transform="translate(-225.582 -159.976)" fill="#8c3b3f"/>
          </g>
          <g id="Group_9744" data-name="Group 9744" transform="translate(8.513 1.596)">
            <path id="Path_3045" data-name="Path 3045" d="M235.723,166.047a6.983,6.983,0,0,0-2.107-3.52l.413-.415a6.792,6.792,0,0,1,1.933,3.878Z" transform="translate(-233.616 -162.112)" fill="#8c3b3f"/>
          </g>
          <path id="Path_3046" data-name="Path 3046" d="M223.5,177.394c.077-.137-.208-.258-.556-.47s-.628-.434-.705-.3.143.421.491.632S223.419,177.531,223.5,177.394Z" transform="translate(-222.22 -164.177)" fill="#ea7b59"/>
          <path id="Path_3047" data-name="Path 3047" d="M227.172,168.142a3.389,3.389,0,0,0-1.864,1.054c-.182.369.6,1.04.932,1.017S227.413,168.1,227.172,168.142Z" transform="translate(-222.994 -162.041)" fill="#ea7b59"/>
          <path id="Path_3048" data-name="Path 3048" d="M227.681,168.159a3.391,3.391,0,0,0-1.865,1.054c-.182.369.6,1.04.933,1.016S227.922,168.118,227.681,168.159Z" transform="translate(-223.123 -162.046)" fill="#ffb882"/>
        </g>
      </g>
      <path id="Path_3049" data-name="Path 3049" d="M211.63,165.434c1.776,6.227,7.535,15.5,9.365,17.405,1.469,1.531,6.052-.969,3.992-3.176-2.541-2.721-7.293-13.155-9.544-14.8A2.69,2.69,0,0,0,211.63,165.434Z" transform="translate(-196.631 -146.126)" fill="#663c49"/>
      <path id="Path_3050" data-name="Path 3050" d="M224.554,179.151a2.2,2.2,0,0,1-2.224-.317c-1.567-1.632-6.01-8.659-8.371-14.554a3,3,0,0,0-2.329,1.155c1.776,6.227,8.152,16.982,9.982,18.889,1.469,1.531,5.435-2.453,3.375-4.66C224.849,179.517,224.7,179.342,224.554,179.151Z" transform="translate(-196.631 -146.127)" fill="#512b39"/>
      <ellipse id="Ellipse_60" data-name="Ellipse 60" cx="2.573" cy="3.545" rx="2.573" ry="3.545" transform="matrix(0.816, -0.577, 0.577, 0.816, 13.485, 18.885)" fill="#e85684"/>
      <path id="Path_3051" data-name="Path 3051" d="M216.925,164.839a4.093,4.093,0,0,0-2.828-2,4.774,4.774,0,0,1,.777.953c1.02,1.667.828,3.562-.43,4.234a2.151,2.151,0,0,1-1.3.2,2.988,2.988,0,0,0,3.348.846C217.753,168.4,217.946,166.506,216.925,164.839Z" transform="translate(-197.015 -145.763)" fill="#c9356a"/>
      <path id="Path_3052" data-name="Path 3052" d="M206.982,140.493c.811,9.06,3.181,19.544,4.2,20.483s3.97,1.336,3.871-.915-7.514-19.423-7.514-19.423Z" transform="translate(-195.455 -140.111)" fill="#ffb882"/>
      <path id="Path_3053" data-name="Path 3053" d="M212.039,158.644c-.967-.9-3.4-9.742-4.734-18.068l-.323-.083c.811,9.06,3.181,19.544,4.2,20.483s3.97,1.336,3.871-.915a3.6,3.6,0,0,0-.114-.639A3.561,3.561,0,0,1,212.039,158.644Z" transform="translate(-195.455 -140.111)" fill="#ff9566"/>
      <path id="Path_3054" data-name="Path 3054" d="M203.476,158.005c-.941-.875-3.315-9.513-4.688-17.934l-.352-.09c.811,9.059,3.181,19.544,4.2,20.483s3.969,1.336,3.871-.915a4.31,4.31,0,0,0-.154-.792A3.486,3.486,0,0,1,203.476,158.005Z" transform="translate(-193.294 -139.981)" fill="#ff9566"/>
    </g>
    <g id="Group_9752" data-name="Group 9752" transform="translate(125.536 167.844)">
      <path id="Path_3055" data-name="Path 3055" d="M174.51,265.9c-2.4-.9-2.416,2.521-2.412,3.376a123.6,123.6,0,0,0,1.719,17.776l.342.012C174.8,284.5,176.938,266.808,174.51,265.9Z" transform="translate(-155.359 -214.215)" fill="#ffb882"/>
      <path id="Path_3056" data-name="Path 3056" d="M175.124,273.968a1.432,1.432,0,0,1,.459.086c.178-4.149-.011-7.757-1.073-8.155-2.4-.9-2.416,2.522-2.412,3.377.005,1.227.1,4.028.437,7.769C173.127,275.18,174.064,273.968,175.124,273.968Z" transform="translate(-155.359 -214.215)" fill="#ff9566"/>
      <path id="Path_3057" data-name="Path 3057" d="M163.175,259.185c-2.806-.31-1.967,3.6-1.75,4.573a149.218,149.218,0,0,0,6.273,19.78l.37-.087C168.12,280.328,166.009,259.5,163.175,259.185Z" transform="translate(-152.587 -212.549)" fill="#ffb882"/>
      <path id="Path_3058" data-name="Path 3058" d="M167.082,272.883c-.877-6.5-2.271-13.517-3.906-13.7-2.806-.31-1.967,3.6-1.75,4.573A137.787,137.787,0,0,0,165.3,277C165.662,274.976,166.307,273.461,167.082,272.883Z" transform="translate(-152.587 -212.549)" fill="#ff9566"/>
      <path id="Path_3059" data-name="Path 3059" d="M178.086,223.422c3.618-.967,7.506-6.613,7.479-14.209-.025-7.246-4.447-6.14-4.447-6.14s-.524-6.46-4.357-6.308a4.528,4.528,0,0,0-4.5,3.3s-1.472-3.593-4.77-1.948c-5.173,2.58-4.122,6.662-4.122,6.662s-2.873-.989-4.791,5.831c-2.756,9.8,1.072,10.9,1.072,10.9s-3.067,5.536,4.686,7.942C170.357,231.326,171.977,233,178.086,223.422Z" transform="translate(-151.686 -196.762)" fill="#d33c31"/>
      <path id="Path_3060" data-name="Path 3060" d="M175.393,211.86c-6,0-10.946-3.673-11.663-8.415a5.146,5.146,0,0,0-.365,3.029s-2.873-.989-4.791,5.831c-2.755,9.8,1.073,10.9,1.073,10.9s-3.067,5.536,4.686,7.942c6.025,1.87,7.645,3.545,13.754-6.034,3.618-.967,7.506-6.613,7.479-14.209a11.276,11.276,0,0,0-.424-3.271A12.643,12.643,0,0,1,175.393,211.86Z" transform="translate(-151.686 -198.453)" fill="#bc2824"/>
      <path id="Path_3061" data-name="Path 3061" d="M170.019,217.858c-4.793,0-8.678,5.223-8.678,11.666a15.4,15.4,0,0,0,.382,3.43,9.751,9.751,0,0,0,3.561,1.838c5.908,1.833,7.583,3.471,13.4-5.493C178.6,222.961,174.755,217.858,170.019,217.858Z" transform="translate(-152.638 -202.099)" fill="#a01818"/>
      <path id="Path_3062" data-name="Path 3062" d="M173.737,237.47c1.913,1.142,17.629,6.816,17.629,6.816l.256-.574s-12.66-8-14.562-8.624C175.2,234.473,172.854,236.943,173.737,237.47Z" transform="translate(-155.725 -206.433)" fill="#ffb882"/>
      <path id="Path_3063" data-name="Path 3063" d="M179.293,238.215c-.434-.29-.1-1.064.57-1.674a22.707,22.707,0,0,0-2.8-1.454c-1.865-.614-4.207,1.856-3.324,2.383,1.913,1.142,17.629,6.816,17.629,6.816l.2-.444C186.944,241.848,180.472,239,179.293,238.215Z" transform="translate(-155.725 -206.433)" fill="#ff9566"/>
      <path id="Path_3064" data-name="Path 3064" d="M161.813,262.489c13.061.766,14.694-1.894,17.148-6.805,0,0-7.644-10.189-5.285-20.442.75-3.261-7.222-5.319-8.687-3.691C163.563,233.132,155.008,247.7,161.813,262.489Z" transform="translate(-152.1 -205.419)" fill="#ffb640"/>
      <path id="Path_3065" data-name="Path 3065" d="M174.818,232.586c.1-.362-.891-1.035-2.208-1.5s-2.464-.552-2.561-.189.891,1.035,2.208,1.5S174.72,232.949,174.818,232.586Z" transform="translate(-154.839 -205.34)" fill="#ffecc7"/>
      <path id="Path_3066" data-name="Path 3066" d="M177.043,241.152a14.91,14.91,0,0,0,2.027,7.939,23,23,0,0,1-1.215-9.836C177.647,239.419,177.043,238.97,177.043,241.152Z" transform="translate(-156.61 -207.512)" fill="#ff8e31"/>
      <path id="Path_3067" data-name="Path 3067" d="M167.066,234.73c.942-2.336.828-3.823-.005-4.033s-2.07.934-3.013,3.27-.892,5.153-.6,5.316S166.124,237.067,167.066,234.73Z" transform="translate(-153.124 -205.341)" fill="#ff8e31"/>
      <path id="Path_3068" data-name="Path 3068" d="M162.2,245.27c0-5.772,1.492-10.9,3.8-14.175a1.826,1.826,0,0,0-1.018.484c-1.425,1.581-9.98,16.149-3.176,30.938a50.1,50.1,0,0,0,7.508-.018C165.214,260.387,162.2,253.476,162.2,245.27Z" transform="translate(-152.1 -205.448)" fill="#ff8e31"/>
      <path id="Path_3069" data-name="Path 3069" d="M166.984,233.34c.943-2.336.632-3.9-.454-4.214s-2.536.746-3.479,3.081.179,4.974.568,5.176S166.041,235.676,166.984,233.34Z" transform="translate(-152.977 -204.936)" fill="#ffecc7"/>
      <path id="Path_3070" data-name="Path 3070" d="M161.3,229.135c-1.25-2.469-7.531-22.911-7.531-22.911l.613-.362s8.741,16.32,9.436,18.8C164.5,227.087,161.875,230.273,161.3,229.135Z" transform="translate(-150.722 -199.064)" fill="#ffb882"/>
      <path id="Path_3071" data-name="Path 3071" d="M163.818,224.681a13.7,13.7,0,0,0-.624-1.56c-.642,1.1-1.583,1.747-1.925,1.137-.935-1.668-4.765-12.111-7.006-18.3l-.495.292s6.281,20.442,7.531,22.911C161.875,230.3,164.5,227.111,163.818,224.681Z" transform="translate(-150.722 -199.088)" fill="#ff9566"/>
      <path id="Path_3072" data-name="Path 3072" d="M177.9,241.463c.053-.1,2.278-6.2,2.278-6.2a2.878,2.878,0,0,0-2.687-1.477C177.505,234.913,177.9,241.463,177.9,241.463Z" transform="translate(-156.723 -206.121)" fill="#ffecc7"/>
      <path id="Path_3073" data-name="Path 3073" d="M175.5,226.526l-3.014-.906-1.279,4.116c1.1.83,2.137,1.321,3.013.906Z" transform="translate(-155.133 -204.063)" fill="#ffb882"/>
      <path id="Path_3074" data-name="Path 3074" d="M176.309,297.812c-2.67-1.859-2.936-3.506-2.165-4.487C175.976,290.993,176.309,297.812,176.309,297.812Z" transform="translate(-155.781 -221.067)" fill="#ffdf97"/>
      <path id="Path_3075" data-name="Path 3075" d="M168.8,295.772c-1.289-2.988-.647-4.527.524-4.954C172.112,289.8,168.8,295.772,168.8,295.772Z" transform="translate(-154.346 -220.526)" fill="#ffdf97"/>
      <path id="Path_3076" data-name="Path 3076" d="M171.346,233.819a10.886,10.886,0,0,0,5.414-.208l.148-.406a2.878,2.878,0,0,0-2.687-1.477v0a5.4,5.4,0,0,0-.851-.654,2.286,2.286,0,0,0-.766-.638l1.215-3.911-3.014-.906-1.18,3.8c-.535-.058-.907,0-.96.2,0,.006,0,.013,0,.018a6.689,6.689,0,0,0-.67,0,1.472,1.472,0,0,0-.989-1.382,1.569,1.569,0,0,0-.981.069c-.235-.533-.536-1.177-.88-1.9a3.088,3.088,0,0,0-.515,1.169C164.114,230.189,167.12,232.974,171.346,233.819Z" transform="translate(-153.456 -204.063)" fill="#843131" opacity="0.6" style="mix-blend-mode: multiply;isolation: isolate"/>
      <g id="Group_9749" data-name="Group 9749" transform="translate(10.006 9.753)">
        <path id="Path_3077" data-name="Path 3077" d="M181.69,220.4c1.337-4.286-.346-8.357-4.927-10.066s-8.386,1.035-9.442,5.4-.071,7.623,4.5,9.372C177.622,227.323,180.7,223.584,181.69,220.4Z" transform="translate(-164.059 -209.818)" fill="#ffb882"/>
        <g id="Group_9748" data-name="Group 9748" transform="translate(5.036 1.461)">
          <path id="Path_3078" data-name="Path 3078" d="M171.6,217.193a1.594,1.594,0,0,1,2.13-1.124,2.044,2.044,0,0,1,.94,2.5c-.329,1-1.121,1.059-1.968.679A1.609,1.609,0,0,1,171.6,217.193Z" transform="translate(-170.251 -212.828)" fill="#ea7b59"/>
          <path id="Path_3079" data-name="Path 3079" d="M179.35,219.8a1.593,1.593,0,0,1,2.129-1.124,2.042,2.042,0,0,1,.94,2.5c-.329,1-1.121,1.059-1.968.68A1.609,1.609,0,0,1,179.35,219.8Z" transform="translate(-172.212 -213.489)" fill="#ea7b59"/>
          <path id="Path_3080" data-name="Path 3080" d="M179.27,220.245a1.724,1.724,0,0,1,2.117-1.211,1.771,1.771,0,0,1,.833,2.321,1.329,1.329,0,0,1-1.945.777A1.384,1.384,0,0,1,179.27,220.245Z" transform="translate(-172.187 -213.589)" fill="#fffbdd"/>
          <path id="Path_3081" data-name="Path 3081" d="M180.21,219.74a.938.938,0,0,1,1.082-.765.954.954,0,0,1,.594,1.194.938.938,0,0,1-1.082.765A.954.954,0,0,1,180.21,219.74Z" transform="translate(-172.444 -213.59)" fill="#3f7fa5"/>
          <path id="Path_3082" data-name="Path 3082" d="M180.358,219.293a.362.362,0,0,1,.418-.3.369.369,0,0,1,.23.462.362.362,0,0,1-.418.3A.368.368,0,0,1,180.358,219.293Z" transform="translate(-172.487 -213.599)" fill="#fffbdd"/>
          <path id="Path_3083" data-name="Path 3083" d="M184.881,218.462l-.8.248a4.421,4.421,0,0,0-2.76-3.081l.923-.943S185.013,216,184.881,218.462Z" transform="translate(-172.733 -212.511)" fill="#d33c31"/>
          <path id="Path_3084" data-name="Path 3084" d="M171.657,217.733a1.623,1.623,0,0,1,2.057-1.151,1.834,1.834,0,0,1,.791,2.349,1.251,1.251,0,0,1-1.887.72A1.423,1.423,0,0,1,171.657,217.733Z" transform="translate(-170.261 -212.965)" fill="#fffbdd"/>
          <path id="Path_3085" data-name="Path 3085" d="M172.615,217.219a.928.928,0,0,1,1.077-.755.953.953,0,0,1,.6,1.188.928.928,0,0,1-1.077.755A.953.953,0,0,1,172.615,217.219Z" transform="translate(-170.523 -212.954)" fill="#3f7fa5"/>
          <path id="Path_3086" data-name="Path 3086" d="M172.76,216.776a.359.359,0,0,1,.416-.292.368.368,0,0,1,.231.459.359.359,0,0,1-.416.291A.368.368,0,0,1,172.76,216.776Z" transform="translate(-170.565 -212.963)" fill="#fffbdd"/>
          <path id="Path_3087" data-name="Path 3087" d="M169.826,213.587l.55.645A4.273,4.273,0,0,1,174.3,213.1l-.293-1.3S170.989,211.416,169.826,213.587Z" transform="translate(-169.826 -211.774)" fill="#d33c31"/>
          <path id="Path_3088" data-name="Path 3088" d="M176.939,225.954l-4.7-1.31a2.546,2.546,0,0,0,4.7,1.31Z" transform="translate(-170.437 -215.03)" fill="#763224"/>
          <path id="Path_3089" data-name="Path 3089" d="M176.545,226.036l-3.923-1.115s.293.787,1.836,1.252C176.181,226.692,176.545,226.036,176.545,226.036Z" transform="translate(-170.533 -215.1)" fill="#fffbdd"/>
          <path id="Path_3090" data-name="Path 3090" d="M176.141,223.585a2.161,2.161,0,0,1-.946-.509l1.439-.763C177.361,222.991,176.815,223.719,176.141,223.585Z" transform="translate(-171.184 -214.44)" fill="#ea7b59"/>
          <path id="Path_3091" data-name="Path 3091" d="M176.072,223.376a1.679,1.679,0,0,1-.752-.37l1.149-.615C176.975,222.91,176.565,223.453,176.072,223.376Z" transform="translate(-171.216 -214.46)" fill="#ffb882"/>
          <path id="Path_3092" data-name="Path 3092" d="M173.851,228.671c.025-.075.359-.015.746.134s.681.329.657.4-.359.014-.746-.134S173.826,228.745,173.851,228.671Z" transform="translate(-170.844 -216.04)" fill="#ea7b59"/>
        </g>
        <path id="Path_3093" data-name="Path 3093" d="M187.117,223.924c.988-1.107,2.409-.024,1.5.964s-2.529,1.386-2.444.788A3.62,3.62,0,0,1,187.117,223.924Z" transform="translate(-168.926 -213.269)" fill="#ffb882"/>
        <path id="Path_3094" data-name="Path 3094" d="M187.527,224.516c.562-.63,1.371-.014.855.548s-1.44.789-1.391.448A2.058,2.058,0,0,1,187.527,224.516Z" transform="translate(-169.132 -213.469)" fill="#d3583c"/>
        <path id="Path_3095" data-name="Path 3095" d="M187.094,225.187c.385-.432.938-.01.586.375s-.986.54-.953.308A1.406,1.406,0,0,1,187.094,225.187Z" transform="translate(-169.065 -213.66)" fill="#ffb882"/>
        <path id="Path_3096" data-name="Path 3096" d="M165.118,217.8c-.048-1.5-2.1-1.747-2.032-.387s1.2,2.811,1.563,2.32A3.137,3.137,0,0,0,165.118,217.8Z" transform="translate(-163.085 -211.513)" fill="#ffb882"/>
        <path id="Path_3097" data-name="Path 3097" d="M164.789,218.166c-.027-.856-1.193-.994-1.156-.22s.681,1.6.89,1.32A1.783,1.783,0,0,0,164.789,218.166Z" transform="translate(-163.223 -211.746)" fill="#d3583c"/>
        <path id="Path_3098" data-name="Path 3098" d="M164.868,219.057c-.019-.586-.817-.681-.793-.151s.466,1.1.61.9A1.23,1.23,0,0,0,164.868,219.057Z" transform="translate(-163.336 -212.029)" fill="#ffb882"/>
      </g>
      <g id="Group_9750" data-name="Group 9750" transform="translate(0 3.051)">
        <path id="Path_3099" data-name="Path 3099" d="M154,206.751c-.773-.7-1.225-.936-1.39-1.127s-.792-.737-.661-1.09,1.528-1.475,1.789-1.129.279,1.7.66,2.946C154.644,207.161,154,206.751,154,206.751Z" transform="translate(-150.257 -201.477)" fill="#ffb882"/>
        <path id="Path_3100" data-name="Path 3100" d="M151.759,205.105c-.509-.483-2.113-1.771-2.068-2.021s2.417,1.327,2.417,1.327Z" transform="translate(-149.691 -201.406)" fill="#ffb882"/>
        <path id="Path_3101" data-name="Path 3101" d="M154.656,205.819c.148-1,1.2-2.558,1.014-2.717s-1.7,1.962-1.7,1.962Z" transform="translate(-150.773 -201.415)" fill="#ffb882"/>
        <path id="Path_3102" data-name="Path 3102" d="M152.515,203.968c-.322-.627-1.445-2.4-1.324-2.686s1.868,1.974,1.868,1.974Z" transform="translate(-150.068 -200.95)" fill="#ffb882"/>
        <path id="Path_3103" data-name="Path 3103" d="M153.555,204.006c0-.711-.2-2.858.037-3.139s.734,2.528.734,2.528Z" transform="translate(-150.648 -200.847)" fill="#ffb882"/>
      </g>
      <g id="Group_9751" data-name="Group 9751" transform="translate(33.584 36.06)">
        <path id="Path_3104" data-name="Path 3104" d="M195.072,245.065c.936.463,1.435.563,1.646.7s.964.492.935.867-1.065,1.838-1.411,1.576-.736-1.561-1.443-2.652C194.338,244.846,195.072,245.065,195.072,245.065Z" transform="translate(-194.647 -245.034)" fill="#ffb882"/>
        <path id="Path_3105" data-name="Path 3105" d="M197.9,246.487c.622.324,2.519,1.123,2.544,1.375s-2.688-.612-2.688-.612Z" transform="translate(-195.433 -245.401)" fill="#ffb882"/>
        <path id="Path_3106" data-name="Path 3106" d="M195.259,246.247c.133,1-.451,2.788-.229,2.89s1.1-2.353,1.1-2.353Z" transform="translate(-194.731 -245.34)" fill="#ffb882"/>
        <path id="Path_3107" data-name="Path 3107" d="M197.6,247.5c.482.515,2.05,1.914,2.01,2.219s-2.338-1.386-2.338-1.386Z" transform="translate(-195.311 -245.658)" fill="#ffb882"/>
        <path id="Path_3108" data-name="Path 3108" d="M196.873,247.489c.2.684.976,2.695.826,3.029s-1.4-2.23-1.4-2.23Z" transform="translate(-195.065 -245.655)" fill="#ffb882"/>
      </g>
    </g>
    <g id="Group_9764" data-name="Group 9764" transform="translate(54.207 114.226)">
      <g id="Group_9754" data-name="Group 9754" transform="translate(58.882 1.25)">
        <g id="Group_9753" data-name="Group 9753">
          <path id="Path_3109" data-name="Path 3109" d="M134.517,136.81l6.512,3.994a23.567,23.567,0,0,0-3.427,5.9l-4.573-3.191S134.922,139.533,134.517,136.81Z" transform="translate(-133.028 -129.229)" fill="#ff9566"/>
          <path id="Path_3110" data-name="Path 3110" d="M135.526,137.169c-.118-.58-.837-1.128-.837-2.416,0-3.886,1.827-2.326,2.4-2.593.943-.439,1.564-2.6,2.038-2.786,1.033-.4,3.934,3.5,4.575,4.642s-.752,4.569-3.17,5.925C139.644,140.44,135.526,137.169,135.526,137.169Z" transform="translate(-133.448 -127.34)" fill="#ff9566"/>
          <path id="Path_3111" data-name="Path 3111" d="M142.89,133.144c.811.866,1.813,1.813.87,4.73,1.027-1.478,1.726-3.35,1.309-4.1-.64-1.146-3.608-5.1-4.641-4.7-.047.018-1.271,2.771-1.321,2.824C140.725,132.369,141.662,131.834,142.89,133.144Z" transform="translate(-134.566 -127.267)" fill="#ff9566"/>
          <path id="Path_3112" data-name="Path 3112" d="M137.085,133.041c-.571.267-2.112-1.669-2.4,2.593-.142,2.113,1.49,3.288,2.855,4.191a3.278,3.278,0,0,0,2.121-2.884C139.706,135.6,137.463,132.865,137.085,133.041Z" transform="translate(-133.445 -128.221)" fill="#ff9566"/>
          <path id="Path_3113" data-name="Path 3113" d="M139.86,129.546a21.664,21.664,0,0,1,2.083-2.821c.418-.308,1.826.552,1.631,1.32a11.782,11.782,0,0,1-2.211,3.359C141.115,131.509,139.372,130.241,139.86,129.546Z" transform="translate(-134.735 -126.661)" fill="#ffb882"/>
          <path id="Path_3114" data-name="Path 3114" d="M141.792,133.113a21.641,21.641,0,0,1,2.083-2.82c.418-.308,1.826.551,1.631,1.32a11.789,11.789,0,0,1-2.211,3.358C143.047,135.077,141.3,133.809,141.792,133.113Z" transform="translate(-135.223 -127.564)" fill="#ffb882"/>
          <path id="Path_3115" data-name="Path 3115" d="M143.915,136.482a29.533,29.533,0,0,1,1.9-2.624c.474-.388,1.623.5,1.482,1.267a11.993,11.993,0,0,1-2.334,3.284C144.728,138.5,143.449,137.117,143.915,136.482Z" transform="translate(-135.756 -128.458)" fill="#ffb882"/>
        </g>
        <path id="Path_3116" data-name="Path 3116" d="M139.86,129.546a21.664,21.664,0,0,1,2.083-2.821c.418-.308,1.826.552,1.631,1.32a11.782,11.782,0,0,1-2.211,3.359C141.115,131.509,139.372,130.241,139.86,129.546Z" transform="translate(-134.735 -126.661)" fill="#ffb882"/>
        <path id="Path_3117" data-name="Path 3117" d="M136.507,131.62a21.521,21.521,0,0,1,3.227,1.372c.4.335-.113,1.9-.905,1.892a11.78,11.78,0,0,1-3.78-1.372C134.889,133.3,135.719,131.306,136.507,131.62Z" transform="translate(-133.534 -127.907)" fill="#ffb882"/>
        <path id="Path_3118" data-name="Path 3118" d="M141.792,133.113a21.641,21.641,0,0,1,2.083-2.82c.418-.308,1.826.551,1.631,1.32a11.789,11.789,0,0,1-2.211,3.358C143.047,135.077,141.3,133.809,141.792,133.113Z" transform="translate(-135.223 -127.564)" fill="#ffb882"/>
        <path id="Path_3119" data-name="Path 3119" d="M143.915,136.482a29.533,29.533,0,0,1,1.9-2.624c.474-.388,1.623.5,1.482,1.267a11.993,11.993,0,0,1-2.334,3.284C144.728,138.5,143.449,137.117,143.915,136.482Z" transform="translate(-135.756 -128.458)" fill="#ffb882"/>
      </g>
      <g id="Group_9756" data-name="Group 9756">
        <path id="Path_3120" data-name="Path 3120" d="M61.386,143.089c-5.341-1.275-7.3-3.132-6.366-5.166,0,0-1.363-3.1-.536-4.327,0,0-1.258-3.069,1.6-3.756,0,0-.461-2.968,1.1-3.528a6.671,6.671,0,0,1,3.59.141s-.523-1.547,1.515-1.463a3.005,3.005,0,0,1,2.568,1.237,3.236,3.236,0,0,1,3.008.075,2.664,2.664,0,0,1,1.4,1.89s.536-.549,1.912.873c1.31,1.354-.509,4.574-.509,4.574Z" transform="translate(-54.207 -124.988)" fill="#d33c31"/>
        <path id="Path_3121" data-name="Path 3121" d="M63.524,133.828c-3.392-1.663-5.5-4.646-5.438-7.318a3.637,3.637,0,0,0-.9.188c-1.565.56-1.1,3.528-1.1,3.528-2.854.687-1.6,3.756-1.6,3.756-.826,1.222.537,4.327.537,4.327-.932,2.034,1.025,3.891,6.366,5.166l8.463-8.62A10.372,10.372,0,0,1,63.524,133.828Z" transform="translate(-54.207 -125.373)" fill="#ba2925"/>
        <path id="Path_3122" data-name="Path 3122" d="M58.752,140.6c1.663,4.49,6.879,6.119,11.1,3.522,4.792-2.949,4.813-6.212,3.566-10.011-.7-2.131-6.563-5.736-9.787-3.95S57.22,136.462,58.752,140.6Z" transform="translate(-55.256 -126.174)" fill="#ffb882"/>
        <path id="Path_3123" data-name="Path 3123" d="M59.705,142.3c-1.478-3.206,2.538-8.321.652-9.747s-3.932,3.816-3.783,6.049S59.705,142.3,59.705,142.3Z" transform="translate(-54.804 -126.841)" fill="#ba2925"/>
        <path id="Path_3124" data-name="Path 3124" d="M59.1,145.464c-2.839-.484-3.309-1.241-2.753-2.642s2.074-.924,3.5,2.2C60.185,145.863,59.1,145.464,59.1,145.464Z" transform="translate(-54.696 -129.31)" fill="#ffb882"/>
        <path id="Path_3125" data-name="Path 3125" d="M58.838,145.2c-1.813-.309-2.113-.793-1.759-1.688s1.325-.589,2.234,1.407C59.531,145.455,58.838,145.2,58.838,145.2Z" transform="translate(-54.901 -129.553)" fill="#ea7b59"/>
        <path id="Path_3126" data-name="Path 3126" d="M59.514,145.71c-1.281-.217-1.494-.56-1.245-1.195s.935-.419,1.58,1C60,145.89,59.514,145.71,59.514,145.71Z" transform="translate(-55.211 -129.842)" fill="#ffb882"/>
        <g id="Group_9755" data-name="Group 9755" transform="translate(5.362 5.727)">
          <path id="Path_3127" data-name="Path 3127" d="M67.372,139.119a1.478,1.478,0,0,0-1.95-.688,1.454,1.454,0,0,0-.388,2.017,1.145,1.145,0,0,0,1.745.357C67.425,140.438,67.8,139.866,67.372,139.119Z" transform="translate(-62.248 -134.076)" fill="#fffbdd"/>
          <path id="Path_3128" data-name="Path 3128" d="M67.389,138.8a.8.8,0,0,0-1.016-.471.788.788,0,0,0-.339,1.062.8.8,0,0,0,1.016.471A.788.788,0,0,0,67.389,138.8Z" transform="translate(-62.54 -134.074)" fill="#3f7fa5"/>
          <path id="Path_3129" data-name="Path 3129" d="M67.433,138.6a.308.308,0,0,0-.393-.182.326.326,0,1,0,.393.182Z" transform="translate(-62.774 -134.106)" fill="#fffbdd"/>
          <path id="Path_3130" data-name="Path 3130" d="M74.03,136.4a1.21,1.21,0,0,0-1.609-.737,1.381,1.381,0,0,0-.542,1.788c.294.7.873.717,1.467.427A1.088,1.088,0,0,0,74.03,136.4Z" transform="translate(-64.007 -133.389)" fill="#fffbdd"/>
          <path id="Path_3131" data-name="Path 3131" d="M73.992,136.1a.683.683,0,0,0-.847-.5.731.731,0,0,0-.426.916.683.683,0,0,0,.846.5A.73.73,0,0,0,73.992,136.1Z" transform="translate(-64.243 -133.39)" fill="#3f7fa5"/>
          <path id="Path_3132" data-name="Path 3132" d="M74.038,135.86a.263.263,0,0,0-.326-.193.282.282,0,0,0-.165.353.264.264,0,0,0,.327.193A.282.282,0,0,0,74.038,135.86Z" transform="translate(-64.457 -133.413)" fill="#fffbdd"/>
          <path id="Path_3133" data-name="Path 3133" d="M71.8,140.964a1.6,1.6,0,0,0-.814.048l.717,1.014C72.429,141.787,72.306,141.092,71.8,140.964Z" transform="translate(-63.814 -134.747)" fill="#ea7b59"/>
          <path id="Path_3134" data-name="Path 3134" d="M71.669,141.135a1.244,1.244,0,0,0-.635.013l.571.814C72.124,141.763,72.029,141.244,71.669,141.135Z" transform="translate(-63.825 -134.79)" fill="#ffb882"/>
          <path id="Path_3135" data-name="Path 3135" d="M72.835,143.686l-2.8.745a1.623,1.623,0,0,0,1.829,1.325A1.671,1.671,0,0,0,72.835,143.686Z" transform="translate(-63.572 -135.444)" fill="#4f3735"/>
          <path id="Path_3136" data-name="Path 3136" d="M72.877,145.342a1.895,1.895,0,0,0-1.727.5,1.1,1.1,0,0,0,.981.258A1.14,1.14,0,0,0,72.877,145.342Z" transform="translate(-63.855 -135.852)" fill="#ff9566"/>
          <path id="Path_3137" data-name="Path 3137" d="M73.7,147.76c-.063-.058-.335.006-.608.143s-.442.293-.379.35.335-.007.608-.143S73.765,147.817,73.7,147.76Z" transform="translate(-64.247 -136.469)" fill="#ff9566"/>
          <path id="Path_3138" data-name="Path 3138" d="M61.747,138.786a10.147,10.147,0,0,1,2.291-2.526l-.327-.333a8.812,8.812,0,0,0-2.327,2.4Z" transform="translate(-61.384 -133.481)" fill="#d33c31"/>
          <path id="Path_3139" data-name="Path 3139" d="M70.33,133.4a8.424,8.424,0,0,1,3.211-.03l.152-.5a7.014,7.014,0,0,0-3.119-.087Z" transform="translate(-63.647 -132.653)" fill="#d33c31"/>
        </g>
      </g>
      <path id="Path_3140" data-name="Path 3140" d="M68.219,150.813c-3.257,9.148-.565,13.869,1.044,15.537s8.711.859,8.672-2.709S76.223,150.3,73.881,149.7,68.564,149.844,68.219,150.813Z" transform="translate(-57.363 -131.186)" fill="#e85684"/>
      <path id="Path_3141" data-name="Path 3141" d="M74.058,149.7c-2.343-.593-5.317.139-5.662,1.108a29.086,29.086,0,0,0-1.012,3.505.764.764,0,0,1,.54-.277c1.035,0,1.875,2.918,1.875,6.516,0,2.185-1.268,2.6-1.744,3.781a4.866,4.866,0,0,0,1.385,2.012c1.964,1.23,8.711.859,8.672-2.709S76.4,150.3,74.058,149.7Z" transform="translate(-57.54 -131.186)" fill="#cc366c"/>
      <path id="Path_3142" data-name="Path 3142" d="M112.975,160.962c-4.2,2.448-10.385,5.231-17.569,4.341-8.078-1-6.42,8.268-6.954,11.749-.787,5.13,27.391-1.791,29.937-8.634C119.658,165.008,116.289,159.029,112.975,160.962Z" transform="translate(-62.866 -133.993)" fill="#ffcb57"/>
      <path id="Path_3143" data-name="Path 3143" d="M116.071,170.12c-5.51,1.152-13.339,8.269-15.8,9.472-1.981.97-11.566-1.974-11.818-.33-.356,2.322,9.491,8.622,13.439,2.937,1.59-2.289,16.7-6.77,18.1-10.516C121.261,168.273,119.826,169.335,116.071,170.12Z" transform="translate(-62.868 -136.203)" fill="#ffaa4d"/>
      <path id="Path_3144" data-name="Path 3144" d="M119.7,160.879c1.454-3.95,5.181-5.878,8.3-4.435,3.058,1.413,4.512,5.6,3.273,9.472-1.274,3.984-4.936,6.239-8.21,4.906C119.719,169.461,118.2,164.947,119.7,160.879Z" transform="translate(-70.628 -132.825)" fill="#ffecc7"/>
      <path id="Path_3145" data-name="Path 3145" d="M125.719,163.5a8.589,8.589,0,0,0-.734-7.372,5.144,5.144,0,0,1,3.446.313c3.058,1.413,4.512,5.6,3.273,9.472-1.274,3.984-4.936,6.239-8.21,4.906a5.849,5.849,0,0,1-2.673-2.275A7.783,7.783,0,0,0,125.719,163.5Z" transform="translate(-71.058 -132.825)" fill="#f9e0b2"/>
      <path id="Path_3146" data-name="Path 3146" d="M121.281,161.076c-1.064-8,5.5-14.492,9.992-20.588,1.088-1.476,2.414-.28,3.581,1.134l.62.751a2.8,2.8,0,0,1,.6,2.275c-.639,3.581-2.561,13.68-4.523,17.468C129.145,166.755,122.176,167.807,121.281,161.076Z" transform="translate(-71.146 -128.737)" fill="#ffb882"/>
      <path id="Path_3147" data-name="Path 3147" d="M126.373,159.855c-1.9-7.927,5.227-19.92,5.227-19.92-3.528,5.2-11.558,11.881-10.322,21.172.751,5.65,5.78,5.814,8.8,2.979C128.44,163.764,127,162.465,126.373,159.855Z" transform="translate(-71.141 -128.769)" fill="#ff9566"/>
      <path id="Path_3148" data-name="Path 3148" d="M135.765,287.453,125.524,248.18l-13.882-20.55-1.633-8.3L91.228,230.351l3.357,8.665,21.129,14.8,19.433,33.975Z" transform="translate(-63.572 -148.853)" fill="#4b607f"/>
      <path id="Path_3149" data-name="Path 3149" d="M116.72,253.615l-17.99-16.86-3.759-5.581-4.957,2.9,3.494,8.555,21.363,14.617,19.969,33.545.613-.337-.023-.083Z" transform="translate(-63.265 -151.85)" fill="#344860"/>
      <path id="Path_3150" data-name="Path 3150" d="M76.451,286.481l20.8-31.475,2.818-16.649,5.415-5.55L98.415,211.7,79.9,223.632,86.918,253.8,75.792,286.2Z" transform="translate(-59.667 -146.924)" fill="#4b607f"/>
      <path id="Path_3151" data-name="Path 3151" d="M76.451,289.563l.14-.212,14.232-33.315L87.585,240.4c7.612-3.143,14.185-8.156,19.987-12.692l-.663-3.82L79.9,226.714l6.484,30.193L75.792,289.285Z" transform="translate(-59.667 -150.005)" fill="#344860"/>
      <path id="Path_3152" data-name="Path 3152" d="M78.833,217c3.708,1.479,24.036-.04,27.565-5.272,0,0-4.083-29.655-15.212-41.49-1.9-2.015-16.122-3.651-20.776,2.2-2.454,3.086,4.71,20.059,5.346,28.519C76.166,206.419,78.833,217,78.833,217Z" transform="translate(-58.176 -135.966)" fill="#ffcb57"/>
      <path id="Path_3153" data-name="Path 3153" d="M91.655,169.618c-2.95-1.278-10.643-2.012-15.915.125,1.271,1.038,4.3,1.856,7.8,1.992C87.866,171.9,91.354,170.97,91.655,169.618Z" transform="translate(-59.654 -135.967)" fill="#ffecc7"/>
      <path id="Path_3154" data-name="Path 3154" d="M73.6,174.119a5.761,5.761,0,0,0-2.494-1.3,7.291,7.291,0,0,0-.692.742c-2.454,3.086,4.71,20.059,5.346,28.519.41,5.457,3.077,16.039,3.077,16.039,1.65.658,6.595.721,11.884.128C88.661,208.505,82.931,184.973,73.6,174.119Z" transform="translate(-58.176 -137.089)" fill="#ffaa4d"/>
      <path id="Path_3155" data-name="Path 3155" d="M66.152,198.137c-3.811-16.2.713-24.531,5.606-27.353s5.967,18.607,5.317,21.321c6.029.94,4.314,7.653.382,11.348C74.083,206.624,67.034,201.885,66.152,198.137Z" transform="translate(-56.869 -136.508)" fill="#ffcb57"/>
      <path id="Path_3156" data-name="Path 3156" d="M80.251,191.738c.65-2.713-3.519-23.778-8.412-20.956a11.243,11.243,0,0,0-3.085,2.682c1.469,1.579,3.57,3.046,3.57,7,0,5.46-2.952,11.253-5.34,11.253-.671,0-1.367.213-1.933-.411a55.364,55.364,0,0,0,1.183,6.825c.882,3.748,7.1,7.746,11.568,6.532C80.875,203.833,82.019,194.01,80.251,191.738Z" transform="translate(-56.95 -136.507)" fill="#ffaa4d"/>
      <ellipse id="Ellipse_61" data-name="Ellipse 61" cx="6.742" cy="8.818" rx="6.742" ry="8.818" transform="translate(9.589 52.965) rotate(-9.457)" fill="#f9e0b2"/>
      <path id="Path_3157" data-name="Path 3157" d="M76.24,203.21a10.885,10.885,0,0,0-2.828-8.231,5.2,5.2,0,0,1,3.764-.526c3.743.868,6.5,5.434,6.15,10.2s-3.662,7.923-7.4,7.055a6.822,6.822,0,0,1-3.321-1.968A7.918,7.918,0,0,0,76.24,203.21Z" transform="translate(-58.859 -142.525)" fill="#ffecc7"/>
      <path id="Path_3158" data-name="Path 3158" d="M79.057,154.822l10.609,2.556.987,6.675c-2.277,3.28-7.447,3.51-12.9,1.706Z" transform="translate(-60.163 -132.535)" fill="#ffb882"/>
      <g id="Group_9757" data-name="Group 9757" transform="translate(13.111 22.287)" opacity="0.6" style="mix-blend-mode: multiply;isolation: isolate">
        <path id="Path_3159" data-name="Path 3159" d="M94.25,167.681c-.328-.394-1.641-2.138-1.983-2.5-.2-.214-1.164,1.2-1.62,1.006h0a11.944,11.944,0,0,0-2.105-.645l-.013,0c-.229-.05-.465-.1-.711-.143a5.752,5.752,0,0,0,1.319-1.342l-.987-6.675L77.54,154.822l-1.305,10.937.059.018a15.3,15.3,0,0,0-1.562.534h0a10.268,10.268,0,0,0-2.975,1.79A25.684,25.684,0,0,0,82.8,171.747C88.576,172.432,93.03,169.376,94.25,167.681Z" transform="translate(-71.757 -154.822)" fill="#b23232"/>
      </g>
      <path id="Path_3160" data-name="Path 3160" d="M69.155,170.552a37.971,37.971,0,0,0,11.93,9.268l.563-.587L75.4,169.471Z" transform="translate(-57.988 -136.241)" fill="#e85684"/>
      <path id="Path_3161" data-name="Path 3161" d="M78.4,178.168c-2.273-2.732-5.114-6.711-1.956-7.132L75.4,169.4c-1.67-.539-3.885.1-6.241,1.081a37.862,37.862,0,0,0,9.457,7.93C78.54,178.334,78.467,178.253,78.4,178.168Z" transform="translate(-57.988 -136.174)" fill="#cc366c"/>
      <g id="Group_9758" data-name="Group 9758" transform="translate(16.201 46.905)" opacity="0.6" style="mix-blend-mode: multiply;isolation: isolate">
        <path id="Path_3162" data-name="Path 3162" d="M76.18,197.04l25.273-6.255c-.377-1.013-.772-2.018-1.186-3.009l-24.373,4.972Z" transform="translate(-75.894 -187.776)" fill="#cc366c"/>
        <path id="Path_3163" data-name="Path 3163" d="M102.544,195.388,76.453,202.2c.335,1.437.608,2.8.784,4.037l26.254-7.9C103.191,197.355,102.877,196.371,102.544,195.388Z" transform="translate(-76.035 -189.702)" fill="#cc366c"/>
      </g>
      <path id="Path_3164" data-name="Path 3164" d="M72.4,203.375c-4.656-7.211,2.087-13.874,4.859-20.911l6.161,1.693s1.9,13.456.646,17.716S75.771,208.6,72.4,203.375Z" transform="translate(-58.405 -139.527)" fill="#ffb882"/>
      <path id="Path_3165" data-name="Path 3165" d="M77.189,201.1c-4.449-5.962-.593-11.983,1.985-18.11l-1.917-.527c-2.771,7.037-9.515,13.7-4.859,20.911,2.841,4.4,8.284,3.344,10.679.355A6.177,6.177,0,0,1,77.189,201.1Z" transform="translate(-58.405 -139.527)" fill="#ff9566"/>
      <g id="Group_9760" data-name="Group 9760" transform="translate(14.959 2.509)">
        <path id="Path_3166" data-name="Path 3166" d="M74.5,135.755c1-1.66,1.839-1.159,1.839-1.159s2.1-3.708,3.457-4.2c0,0,3.128-2.527,5.08-1.484,0,0,4.789-1.776,7.145.942s.649,7.118.649,7.118.679,9.142-1.749,14.52l-11.352.853c-3.424-6.236-3.94-10.113-3.94-10.113S73.5,137.416,74.5,135.755Z" transform="translate(-74.231 -128.346)" fill="#9e2b20"/>
        <path id="Path_3167" data-name="Path 3167" d="M75.627,142.854s-2.128-4.821-1.13-6.482,1.839-1.159,1.839-1.159,2.1-3.708,3.457-4.2c0,0,.114-.092.31-.232-1.468,1.862-2,3.924-1.224,5.618,1.2,2.624,5.16,3.5,9.331,2.269a14.677,14.677,0,0,0,1.286,4.454,14.508,14.508,0,0,0,2.772,4.124,19.642,19.642,0,0,1-1.351,4.865l-11.352.853C76.143,146.73,75.627,142.854,75.627,142.854Z" transform="translate(-74.231 -128.963)" fill="#841a15"/>
        <path id="Path_3168" data-name="Path 3168" d="M79.169,150.022c.9,6.478,1.269,12.7,4.478,15.167s10.945,3.288,14.133.628c0,0-2.6-3.8-2.341-6.1s-2.738-10.2-2.738-10.2l-12.165-.072Z" transform="translate(-75.48 -133.684)" fill="#9e2b20"/>
        <path id="Path_3169" data-name="Path 3169" d="M78.5,150.008l1.865-.56,1.274.084c.855,6.323.926,12.246,4.065,14.662,2.528,1.945,7.859,2.857,11.568,1.86-3.36,2.357-10.691,1.523-13.8-.866C80.27,162.719,79.4,156.485,78.5,150.008Z" transform="translate(-75.312 -133.684)" fill="#841a15"/>
        <path id="Path_3170" data-name="Path 3170" d="M93.812,139.217c.7,2.385.878,11.852.315,12.865s-8.247,2.171-9.392.835c-1.175-1.371-1.228-11.69-.525-13.263S93.007,136.478,93.812,139.217Z" transform="translate(-76.64 -130.722)" fill="#ffb882"/>
        <path id="Path_3171" data-name="Path 3171" d="M79.394,148.379l1.649,3.061,1.259.026s1.3-11.84-1.825-12.454S79.394,148.379,79.394,148.379Z" transform="translate(-75.372 -131.037)" fill="#841a15"/>
        <path id="Path_3172" data-name="Path 3172" d="M80.8,152.654c-.772-3.275-3.989-3.038-3.877-.895s2.457,4.432,3.061,3.9A3.381,3.381,0,0,0,80.8,152.654Z" transform="translate(-74.912 -133.866)" fill="#ffb882"/>
        <path id="Path_3173" data-name="Path 3173" d="M80.376,153.088c-.5-2.133-2.6-1.979-2.525-.583s1.6,2.887,1.993,2.541A2.2,2.2,0,0,0,80.376,153.088Z" transform="translate(-75.147 -134.195)" fill="#d3583c"/>
        <path id="Path_3174" data-name="Path 3174" d="M80.6,154.246c-.377-1.6-1.95-1.488-1.9-.439s1.2,2.17,1.5,1.91A1.658,1.658,0,0,0,80.6,154.246Z" transform="translate(-75.362 -134.59)" fill="#ffb882"/>
        <g id="Group_9759" data-name="Group 9759" transform="translate(7.831 11.031)">
          <path id="Path_3175" data-name="Path 3175" d="M96.045,149.428c-.094-.739-.525-1.287-.961-1.223s-.71.717-.614,1.457.526,1.286.96,1.221S96.142,150.168,96.045,149.428Z" transform="translate(-87.177 -144.399)" fill="#4f3131"/>
          <path id="Path_3176" data-name="Path 3176" d="M91.554,147.444c.56-.9,2.814,6.936,2.633,7.766-.084.388-2.415.418-2.415.418S91.456,147.6,91.554,147.444Z" transform="translate(-86.439 -144.19)" fill="#ffb882"/>
          <path id="Path_3177" data-name="Path 3177" d="M91.931,147.716c.8,1.712,2.391,6.805,2.238,7.5-.066.3-1.55.391-2.134.4.006.124.007.2.007.2s2.493.087,2.575-.292C94.782,154.743,92.578,147.768,91.931,147.716Z" transform="translate(-86.54 -144.277)" fill="#ef8f6f"/>
          <path id="Path_3178" data-name="Path 3178" d="M89.135,150.341c-.1-.741-.528-1.287-.964-1.224s-.712.715-.616,1.453.526,1.289.963,1.227S89.23,151.08,89.135,150.341Z" transform="translate(-85.428 -144.63)" fill="#4f3131"/>
          <path id="Path_3179" data-name="Path 3179" d="M89.3,145.9c-.669,1.108-3.973,1.048-4.295.471s-.508-1.183.157-1.567,3.675-1.451,4.157-1.013S89.608,145.384,89.3,145.9Z" transform="translate(-84.714 -143.257)" fill="#9e2b20"/>
          <path id="Path_3180" data-name="Path 3180" d="M93.666,145.478c.676.971,3.035.214,3.164-.431s.151-1.3-.394-1.538-2.895-.678-3.164-.137A2.721,2.721,0,0,0,93.666,145.478Z" transform="translate(-86.855 -143.112)" fill="#9e2b20"/>
          <path id="Path_3181" data-name="Path 3181" d="M95.624,159.6l-5.193.828s.74,2.891,1.649,2.922,2.919-.53,3.239-1.1A9.158,9.158,0,0,0,95.624,159.6Z" transform="translate(-86.16 -147.283)" fill="#542a29"/>
          <path id="Path_3182" data-name="Path 3182" d="M95.382,161.447a14.867,14.867,0,0,0,.09-1.686l-4.734.754a10.616,10.616,0,0,0,.6,1.67Z" transform="translate(-86.238 -147.324)" fill="#fff7e9"/>
        </g>
      </g>
      <g id="Group_9761" data-name="Group 9761" transform="translate(17.677 3.914)">
        <path id="Path_3183" data-name="Path 3183" d="M80.511,136.492c.485-.915.825-1.283.915-1.517s.492-.955.262-1.246-1.857-.9-1.987-.486.279,1.7.322,3C80.051,137.091,80.511,136.492,80.511,136.492Z" transform="translate(-78.327 -130.954)" fill="#ffb882"/>
        <path id="Path_3184" data-name="Path 3184" d="M81.995,134.04a12.559,12.559,0,0,0,1.254-2.583c-.122-.223-1.789,2.04-1.789,2.04Z" transform="translate(-78.778 -130.534)" fill="#ffb882"/>
        <path id="Path_3185" data-name="Path 3185" d="M79.653,135.836c-.449-.9-1.9-2.029-1.776-2.24s2.166,1.3,2.166,1.3Z" transform="translate(-77.87 -131.074)" fill="#ffb882"/>
        <path id="Path_3186" data-name="Path 3186" d="M81.185,133.211c.1-.7.565-2.742.365-2.97s-1.085,2.474-1.085,2.474Z" transform="translate(-78.526 -130.227)" fill="#ffb882"/>
        <path id="Path_3187" data-name="Path 3187" d="M80.544,133.6c-.22-.674-.716-2.768-1.018-2.956s.123,2.629.123,2.629Z" transform="translate(-78.26 -130.329)" fill="#ffb882"/>
      </g>
      <path id="Path_3188" data-name="Path 3188" d="M72.354,150.983c5.521-7.157,6.116-14.429,5.851-14.6l-.829-.224a42.628,42.628,0,0,1-7.893,11.172Z" transform="translate(-58.071 -127.814)" fill="#e85684"/>
      <path id="Path_3189" data-name="Path 3189" d="M74.342,143.145a41.132,41.132,0,0,1-4.859,5.954l2.871,3.651a30.85,30.85,0,0,0,3.29-5.3A8.877,8.877,0,0,1,74.342,143.145Z" transform="translate(-58.071 -129.581)" fill="#cc366c"/>
      <path id="Path_3190" data-name="Path 3190" d="M107.448,247.2c.191-.128,4.578-4.9,4.578-4.9l-3.9,2.839-5.759.976Z" transform="translate(-66.389 -154.665)" fill="#344860"/>
      <path id="Path_3191" data-name="Path 3191" d="M70.943,311.751h6.051s-.043-3.779-1.7-3.359S70.943,311.751,70.943,311.751Z" transform="translate(-58.441 -171.376)" fill="#ffdf97"/>
      <path id="Path_3192" data-name="Path 3192" d="M154.593,311.816H148.24s0-3.566,1.744-3.17S154.593,311.816,154.593,311.816Z" transform="translate(-77.995 -171.44)" fill="#ffdf97"/>
      <path id="Path_3193" data-name="Path 3193" d="M109.666,232.6l-3.446,1.353.445,1.586,2.475-.7Z" transform="translate(-67.365 -152.21)" fill="#f9e0b2"/>
      <g id="Group_9763" data-name="Group 9763" transform="translate(16.146 33.377)">
        <g id="Group_9762" data-name="Group 9762" transform="translate(0.137)">
          <path id="Path_3194" data-name="Path 3194" d="M77.706,181.049l8.821.13c-.381,1.4-1,7.621-.7,8.4L80,187.624S79.788,183.139,77.706,181.049Z" transform="translate(-76.435 -172.546)" fill="#ffb882"/>
          <path id="Path_3195" data-name="Path 3195" d="M79.285,180.451c-.474-.424-1.631-.513-2.406-1.615-2.364-3.362.762-2.82,1.255-3.282.79-.74.252-2.73.661-3.042.867-.662,5.671,1.36,6.8,1.983,1.1.607,1.614,3.61.22,5.676C85.27,180.974,79.285,180.451,79.285,180.451Z" transform="translate(-76.005 -170.353)" fill="#ffb882"/>
          <path id="Path_3196" data-name="Path 3196" d="M84.447,174.5a3.807,3.807,0,0,1,3.156,3.184c.134-1.477-.2-3.079-.91-3.476-1.119-.624-5.99-2.671-6.853-2.015-.04.031.179,2.7.155,2.766C81.945,174.7,82.593,173.94,84.447,174.5Z" transform="translate(-76.974 -170.274)" fill="#ffb882"/>
          <path id="Path_3197" data-name="Path 3197" d="M78.153,176.613c-.493.462-3.49-.53-1.255,3.282,1.1,1.881,3.631,2,5.566,2.02a2.628,2.628,0,0,0,.53-3.265C82.319,177.584,78.473,176.313,78.153,176.613Z" transform="translate(-76.024 -171.413)" fill="#ffb882"/>
          <path id="Path_3198" data-name="Path 3198" d="M79.541,173.443a24.426,24.426,0,0,1-.106-3.47c.177-.4,1.945-.457,2.263.143a7.928,7.928,0,0,1,.266,3.365C81.817,173.688,79.552,174.208,79.541,173.443Z" transform="translate(-76.858 -169.667)" fill="#ffb882"/>
          <path id="Path_3199" data-name="Path 3199" d="M83.4,174.16a15.466,15.466,0,0,1-.341-3.005c.108-.425,1.711-.707,2.078-.152a8.574,8.574,0,0,1,.673,3.3C85.7,174.53,83.506,174.915,83.4,174.16Z" transform="translate(-77.782 -169.927)" fill="#ffb882"/>
        </g>
        <path id="Path_3200" data-name="Path 3200" d="M76.682,175.695a35.8,35.8,0,0,1,4.28-.15c.577.113.914,1.54.109,1.859a19.614,19.614,0,0,1-5,.539C75.746,177.829,75.557,175.754,76.682,175.695Z" transform="translate(-75.821 -171.145)" fill="#ffb882"/>
        <path id="Path_3201" data-name="Path 3201" d="M87.069,176.128a25.08,25.08,0,0,1,.093-3.067c.177-.506,1.638-.131,1.961.573a10.538,10.538,0,0,1-.005,3.757C88.975,177.572,87.039,176.9,87.069,176.128Z" transform="translate(-78.666 -170.467)" fill="#ffb882"/>
      </g>
    </g>
    <g id="Group_9765" data-name="Group 9765" transform="translate(165.678 121.117)">
      <path id="Path_3202" data-name="Path 3202" d="M207.443,142.237c-.726-1.094-1.181-1.5-1.329-1.786s-.741-1.144-.538-1.586,1.925-1.643,2.152-1.129.014,2.322.218,4.053C208.079,142.918,207.443,142.237,207.443,142.237Z" transform="translate(-203.96 -135.071)" fill="#ffb882"/>
      <path id="Path_3203" data-name="Path 3203" d="M205.348,139.475c-.475-.746-2.011-2.792-1.918-3.114s2.418,2.265,2.418,2.265Z" transform="translate(-203.427 -134.748)" fill="#ffb882"/>
      <path id="Path_3204" data-name="Path 3204" d="M208.284,141.14c.332-1.3,1.75-3.149,1.574-3.4s-2.2,2.254-2.2,2.254Z" transform="translate(-204.498 -135.1)" fill="#ffb882"/>
      <path id="Path_3205" data-name="Path 3205" d="M206.366,138.121c-.246-.9-1.171-3.493-.99-3.843s1.707,3.011,1.707,3.011Z" transform="translate(-203.914 -134.222)" fill="#ffb882"/>
      <path id="Path_3206" data-name="Path 3206" d="M207.35,138.4c.118-.946.272-3.839.577-4.163s.371,3.512.371,3.512Z" transform="translate(-204.419 -134.212)" fill="#ffb882"/>
    </g>
    <g id="Group_9766" data-name="Group 9766" transform="translate(159.13 120.259)">
      <path id="Path_3207" data-name="Path 3207" d="M198.677,141.088c-.726-1.094-1.181-1.5-1.329-1.786s-.741-1.144-.538-1.586,1.925-1.643,2.152-1.129.014,2.322.218,4.053C199.313,141.769,198.677,141.088,198.677,141.088Z" transform="translate(-195.194 -133.922)" fill="#ffb882"/>
      <path id="Path_3208" data-name="Path 3208" d="M196.582,138.326c-.475-.746-2.011-2.792-1.918-3.114s2.418,2.265,2.418,2.265Z" transform="translate(-194.661 -133.599)" fill="#ffb882"/>
      <path id="Path_3209" data-name="Path 3209" d="M199.518,139.991c.333-1.3,1.75-3.149,1.574-3.4s-2.2,2.254-2.2,2.254Z" transform="translate(-195.732 -133.951)" fill="#ffb882"/>
      <path id="Path_3210" data-name="Path 3210" d="M197.6,136.972c-.246-.9-1.171-3.493-.99-3.843s1.707,3.011,1.707,3.011Z" transform="translate(-195.148 -133.073)" fill="#ffb882"/>
      <path id="Path_3211" data-name="Path 3211" d="M198.584,137.247c.118-.946.272-3.84.577-4.164s.371,3.512.371,3.512Z" transform="translate(-195.653 -133.063)" fill="#ffb882"/>
    </g>
  </g>
</svg>
