<svg xmlns="http://www.w3.org/2000/svg" width="288.448" height="164.13" viewBox="0 0 288.448 164.13">
  <g id="Group_9815" data-name="Group 9815" transform="translate(-153.705 -1532.674)">
    <path id="Path_3372" data-name="Path 3372" d="M263.634,1712.3h-7.844c-.42-.357.291-1.166,1.034-1.22a4.566,4.566,0,0,1,1.2.142c.108-1.434.724-7.88,3.048-7.621,2.612.29,0,2.839-.739,4.348a35.679,35.679,0,0,0-1.387,3.476c.211.046.431.091.656.133.346-1.063,1.634-4.639,3.273-4.431,1.924.244,1.15,1.678-.213,2.529-1,.626-2.229,1.515-2.813,1.946a8.457,8.457,0,0,0,1.534.123A3.3,3.3,0,0,1,263.634,1712.3Z" transform="translate(-9.442 -15.828)" fill="#a8d29f"/>
    <g id="Group_9791" data-name="Group 9791" transform="translate(168.978 1687.96)">
      <path id="Path_3373" data-name="Path 3373" d="M179.885,1712.322s-3.37-9.255-5.737-8.466S179.885,1712.322,179.885,1712.322Z" transform="translate(-170.831 -1703.808)" fill="#a8d29f"/>
      <path id="Path_3374" data-name="Path 3374" d="M178.477,1712.746c-.287,0-5.665-5.58-6.023-4.12S178.477,1712.746,178.477,1712.746Z" transform="translate(-170.713 -1704.232)" fill="#a8d29f"/>
      <path id="Path_3375" data-name="Path 3375" d="M184.036,1713.028a6.405,6.405,0,0,0-5.04-1.508c-2.816.531-4.019,1.112-5.787.71a2.619,2.619,0,0,0-2.672.8Z" transform="translate(-170.537 -1704.514)" fill="#a8d29f"/>
    </g>
    <path id="Path_3376" data-name="Path 3376" d="M439.4,1607.343l.012-.016A.052.052,0,0,0,439.4,1607.343Z" transform="translate(-26.457 -6.913)" fill="#7f2722"/>
    <g id="Group_9792" data-name="Group 9792" transform="translate(268.397 1588.951)">
      <path id="Path_3377" data-name="Path 3377" d="M316.122,1605.979s3.318-3.721-2.356-4.431-6.638-5.2-10.533-6.528c-3.605-1.228-9.96,1.332-10.545,2.418,0,0,1.528,4.512.437,8.149s5.093,7.5,7.276,7.059c0,0-3.784.313-5.585-.753,0,0,3.056,2.911,6.6,1.6s6.744-2.015,7.3-.324S316.122,1605.979,316.122,1605.979Z" transform="translate(-281.268 -1594.695)" fill="#aa443e"/>
      <path id="Path_3378" data-name="Path 3378" d="M318.208,1668.127c-.812,3.25-1.365,5.778-.8,7.066,1.337,3.077-1.8,14.391-3.661,20.492-.726,2.375-1.259,3.961-1.259,3.961h-2.838s.066-1.589.154-3.961c.215-5.7.565-15.935.47-19.435-.134-4.955-3.023-30.511-3.023-30.511s.437-.044,1.149-.107c3.072-.272,11.269-.906,11.547.058C322.171,1653.428,319.732,1662.042,318.208,1668.127Z" transform="translate(-282.616 -1599.37)" fill="#ffb27d"/>
      <path id="Path_3379" data-name="Path 3379" d="M318.322,1668.127c-3.552-1.747-8.963-8.021-8.963-8.021a97.506,97.506,0,0,1-.85-14.475c3.072-.272,11.269-.906,11.547.058C322.284,1653.428,319.845,1662.042,318.322,1668.127Z" transform="translate(-282.729 -1599.37)" fill="#ed975d"/>
      <path id="Path_3380" data-name="Path 3380" d="M308.983,1617.616c.267-.073.55-1.061.777-2.117.274-1.269.471-2.637.471-2.637l1.214.023,3.247.063.266.006a15.153,15.153,0,0,0-.31,1.964,9.746,9.746,0,0,0,.077,2.647c.129.671.338,1.09.547,1.2C315.453,1618.844,308.67,1617.577,308.983,1617.616Z" transform="translate(-282.776 -1596.377)" fill="#ffb27d"/>
      <path id="Path_3381" data-name="Path 3381" d="M314.852,1617.558c-2.015-.5-4.494-4.7-4.494-4.7a2.452,2.452,0,0,1,1.216.024,7.326,7.326,0,0,1,3.2,2.033A9.74,9.74,0,0,0,314.852,1617.558Z" transform="translate(-282.904 -1596.371)" fill="#ed975d"/>
      <path id="Path_3382" data-name="Path 3382" d="M315.785,1614.842s-5.795-.105-5.674-3.712-.545-6.051,3.16-6.137,4.377,1.315,4.63,2.529S317.3,1614.776,315.785,1614.842Z" transform="translate(-282.881 -1595.648)" fill="#ffb27d"/>
      <path id="Path_3383" data-name="Path 3383" d="M305.608,1617.648a55.872,55.872,0,0,1,11.952,1.938s2.037,6.121.436,10.85,3.234,13.838,3.234,13.838-13.86,1.434-14.242-.422S302.169,1626.325,305.608,1617.648Z" transform="translate(-282.344 -1596.82)" fill="#ffb27d"/>
      <path id="Path_3384" data-name="Path 3384" d="M346.307,1686.769l-2.421,2.455-4.326-3.6c-5.254-4.366-13.432-11.173-13.513-11.284-5.168-5.21-14.359-29.862-14.359-29.862s1.338-2.739,8.36-3.007c2.867-.109,5.121,4.219,6.864,9.55,2,6.1,3.32,13.517,4.134,17.1a3.792,3.792,0,0,0,1.961,2.527c3.846,1.991,7.819,7.307,10.409,11.292C345.183,1684.669,346.307,1686.769,346.307,1686.769Z" transform="translate(-283.027 -1599.027)" fill="#ffb27d"/>
      <path id="Path_3385" data-name="Path 3385" d="M317.436,1617.489s9.142-4.248,9.707-5.145.691-11.752.473-13.28h1.419S331.8,1610.993,331,1613.9s-12.23,8.957-12.23,8.957Z" transform="translate(-283.56 -1595.099)" fill="#ffb27d"/>
      <path id="Path_3386" data-name="Path 3386" d="M332.663,1670.412c-1.634-.139-9.228-15.531-9.706-15.852a33.12,33.12,0,0,1,5-2.56c2,6.1,3.32,13.517,4.134,17.1A3.77,3.77,0,0,0,332.663,1670.412Z" transform="translate(-284.071 -1600.002)" fill="#ed975d"/>
      <path id="Path_3387" data-name="Path 3387" d="M302.7,1619.464s.465-1.818-9.345,9.44l-8.964-4.415-.862.961s9.18,8.308,10.373,7.932,8.8-7.117,8.8-7.117Z" transform="translate(-280.42 -1596.979)" fill="#ffb27d"/>
      <path id="Path_3388" data-name="Path 3388" d="M324.515,1639.163c-2.955-3.826-4.688-8.987-5.709-13.038-.009-.035-.018-.071-.026-.106,4.435-3.128,2.116-9.479,2.116-9.479a57.406,57.406,0,0,0-6.512,2.273h0s-1.634,2.207-3.963,1.879-2.839-2.94-2.841-2.947h0a9.081,9.081,0,0,0-3.716,0c-.845.286-6.285,4.8-6.322,5.24s1.842,5.306,5.565,6.1c-.413,12.417,3.241,30.1,3.241,30.1,10.088.869,18.039-4.792,21.826-8.176a26.853,26.853,0,0,0,2.417-2.406A71.67,71.67,0,0,0,324.515,1639.163Z" transform="translate(-281.717 -1596.718)" fill="#6bb7bf"/>
      <path id="Path_3389" data-name="Path 3389" d="M314.6,1613.214s.146.563.528.655a5.332,5.332,0,0,0,1.474.145,4.909,4.909,0,0,0,.4-.563A7.6,7.6,0,0,0,314.6,1613.214Z" transform="translate(-283.297 -1596.406)" fill="#fff"/>
      <path id="Path_3390" data-name="Path 3390" d="M328.557,1598.693s-.61-.154-.7-1.173c-.061-.681-.364-1.139-.228-1.173s.554.724.71.891c.132.141.437-2.237.764-2.182s1.11.455.874,3.638Z" transform="translate(-284.5 -1594.728)" fill="#ffb27d"/>
      <path id="Path_3391" data-name="Path 3391" d="M284.075,1624.69s-1.166-1.936-1.516-2.32c-.693-.759-2.4-1.05-2.454-.662s1.18.77,1.353,1.62c.048.236-.506-.156-.833-.292-.2-.082-.292.024-.178.147.58.63.945,1.309,1.441,1.508a6.466,6.466,0,0,1,1.326.961Z" transform="translate(-280.102 -1597.181)" fill="#ffb27d"/>
      <path id="Path_3392" data-name="Path 3392" d="M312.514,1710.167a9.821,9.821,0,0,0-3.238,1.87c-.764.582-5.348,1.092-5.93.436s1.892-1.916,2.691-2.322,3.238-4.947,3.238-4.947h2.838S313.9,1709.779,312.514,1710.167Z" transform="translate(-282.247 -1604.929)" fill="#ffb27d"/>
      <path id="Path_3393" data-name="Path 3393" d="M352.308,1701.078c-1.091.089-1.2-2.165-2.715-3.365a9.9,9.9,0,0,1-2.421-3.865l2.421-2.455s3.1,1.027,3.043,2.719,1.474,3.165,1.747,4.42A2.341,2.341,0,0,1,352.308,1701.078Z" transform="translate(-286.313 -1603.65)" fill="#ffb27d"/>
      <path id="Path_3394" data-name="Path 3394" d="M317.324,1606.712s-.858.663-3.551,0-2.255,4.63-4.6,3.975-6.1-7.968-.84-8.078S316.527,1603.555,317.324,1606.712Z" transform="translate(-282.47 -1595.427)" fill="#aa443e"/>
      <path id="Path_3395" data-name="Path 3395" d="M332.735,1649.581a26.853,26.853,0,0,1-2.417,2.406c-11.139-4.187-9.529-24.9-9.529-24.9a.793.793,0,0,1,.162.011c1.022,4.052,2.754,9.213,5.709,13.038A71.67,71.67,0,0,1,332.735,1649.581Z" transform="translate(-283.863 -1597.695)" fill="#5ea7aa"/>
      <path id="Path_3396" data-name="Path 3396" d="M312.388,1703.966a2.6,2.6,0,0,0,0,1.622c.439,1.326,1.141,3.889.122,4.176a9.821,9.821,0,0,0-3.238,1.87c-.764.582-5.348,1.092-5.93.436s1.892-1.916,2.691-2.322c.6-.3,2.141-2.964,2.858-4.253a3.291,3.291,0,0,0,.412-1.467c.027-.691.071-1.807.123-3.188,0,0,2.544,1.306,3.943,0C312.963,1702.182,312.614,1703.272,312.388,1703.966Z" transform="translate(-282.247 -1604.525)" fill="#c65447"/>
      <path id="Path_3397" data-name="Path 3397" d="M351.866,1700.586c-1.091.089-1.2-2.165-2.715-3.365a8.871,8.871,0,0,1-2.217-3.336,2.42,2.42,0,0,0-.692-.936l-3.838-3.19s.921-3.143,3.855-3.68c1.256,1.932,2.187,3.551,2.621,4.327a1.565,1.565,0,0,0,.755.681c.868.368,2.6,1.263,2.56,2.532-.054,1.691,1.474,3.165,1.747,4.42A2.341,2.341,0,0,1,351.866,1700.586Z" transform="translate(-285.872 -1603.158)" fill="#c65447"/>
    </g>
    <g id="Group_9795" data-name="Group 9795" transform="translate(320.574 1590.939)">
      <path id="Path_3398" data-name="Path 3398" d="M355.869,1630.8s4.057,1.58,7.709-2.5c-.084.13-2.56,3.932-4.679,4.62.273.192.536.392.79.6a22.841,22.841,0,0,0,3.1,2.412h0a15.986,15.986,0,0,0,6.821,2.152,7.077,7.077,0,0,0,3.437-4.08c.282-.22.563-.44.837-.655a7.039,7.039,0,0,1-1.913,4.5,7.333,7.333,0,0,0,5.1-5.206q.074-.229.136-.463c.024-.084.046-.168.066-.252a12.26,12.26,0,0,0,.3-1.788,14.4,14.4,0,0,0-.853-6.371c-.034-.091-.07-.182-.105-.27l0-.011a12.087,12.087,0,0,0-1.1-2.116,6.541,6.541,0,0,1-.74-4.341,22.987,22.987,0,0,1,2.3-7.035,5.43,5.43,0,0,0-.921-1.044c-1.212-1.1-3.683-2.567-7.794-1.809-6.255,1.154-8.419,5.607-7.7,11.095s.555,8.663-3.617,10.1l-.043.015A1.881,1.881,0,0,0,355.869,1630.8Z" transform="translate(-339.286 -1597.816)" fill="#163560"/>
      <path id="Path_3399" data-name="Path 3399" d="M370.861,1646.148s5.1,5.767,7.234,6.528c2.2.782,10.076-.356,10.076-.356s-.911-6.938-.719-9.082,4.952-9.981,5.336-13.219-3.286-6.536-3.286-6.536-2.483.005-2.643-.29a4.514,4.514,0,0,1-.194-.408,6.75,6.75,0,0,1-.4-3.192l-4.749-.2c.043.575.076,1.066.1,1.494a3.2,3.2,0,0,1-2.212,3.247c-1.3.417-2.419.913-2.5,1.218-.409,1.554,3.484,12.243,2.146,13.284A55.477,55.477,0,0,0,370.861,1646.148Z" transform="translate(-340.685 -1598.97)" fill="#ffb27d"/>
      <path id="Path_3400" data-name="Path 3400" d="M382.608,1619.4s.318,2.35,5.145,3.388a6.75,6.75,0,0,1-.4-3.192Z" transform="translate(-341.772 -1598.97)" fill="#ed975d"/>
      <path id="Path_3401" data-name="Path 3401" d="M388.59,1618.18s-4.67,3.379-6.729.438-4.05-4.485-1.155-6.766,4.267-1.57,5.193-.756S389.752,1617.226,388.59,1618.18Z" transform="translate(-341.462 -1598.129)" fill="#ffb27d"/>
      <path id="Path_3402" data-name="Path 3402" d="M386.983,1617.924s.311.318,1.2-.3c0,0,.747-.516.476-.91A2.917,2.917,0,0,0,386.983,1617.924Z" transform="translate(-342.178 -1598.722)" fill="#fff"/>
      <path id="Path_3403" data-name="Path 3403" d="M384.565,1610.025s1.8-2.819-1.145-4.3c-4.948-2.479-5.139,4.178-6.618,4.641s-3.219,3.442-1.429,5.513,4.1,1.58,4.581,2.629,2.068.545,1.956.168c-.044-.146-.43-.358-.647-.906-.12-.3.207-.642.086-.647-1.187-.045-1.9-1.855-.622-1.723a1.594,1.594,0,0,0,1.749-1.592c-.054-.5-1.271-1.665-.14-2.314S383.925,1610.892,384.565,1610.025Z" transform="translate(-341.032 -1597.653)" fill="#163560"/>
      <path id="Path_3404" data-name="Path 3404" d="M374.746,1681.928c-1.73,7.662,5.218,23.231,5.218,23.231h2.387s-1.017-18.278.375-22.846c.813-2.67,2.5-11.312,3.756-18.036.9-4.784,1.577-8.6,1.577-8.6H369.651s1.409,15.161,4.1,22.547A11.618,11.618,0,0,1,374.746,1681.928Z" transform="translate(-340.573 -1602.33)" fill="#ffb27d"/>
      <path id="Path_3405" data-name="Path 3405" d="M372.075,1655.68s-1.12,15.24,2.031,22.956l12.582-14.359c.9-4.784,1.577-8.6,1.577-8.6Z" transform="translate(-340.779 -1602.33)" fill="#ed975d"/>
      <path id="Path_3406" data-name="Path 3406" d="M343.911,1664.472c8.4,7.883,23.695,14.335,23.695,14.335,3.462-1.654,16.307-25.046,16.307-25.046a29.573,29.573,0,0,0-13.779-5.9c-2.68-.387-4.137,1.815-4.88,4.967a35.3,35.3,0,0,0-.684,8.1,78.836,78.836,0,0,0,.684,9.184,11.9,11.9,0,0,0-6.344-3.525c-10.319-1.724-13.434-3.833-13.434-3.833Z" transform="translate(-338.189 -1601.601)" fill="#ffb27d"/>
      <path id="Path_3407" data-name="Path 3407" d="M391.406,1621.9s7.337-1.181,8.163-5.554c.577-3.052,2.219-13.836,2.219-13.836l1.68-.239s.71,13.01-.077,14.981c-1,2.507-8.42,9.671-8.42,9.671Z" transform="translate(-342.587 -1597.384)" fill="#ffb27d"/>
      <path id="Path_3408" data-name="Path 3408" d="M379.329,1624.541l-3.685,1.29s-5.736,7.132-7.359,7.95c-2.064,1.04-11,1.553-11,1.553l-.1,1.186s8.363,1.987,12.41,1.186c1.052-.209,9-6.635,9-6.635Z" transform="translate(-339.418 -1599.446)" fill="#ffb27d"/>
      <path id="Path_3409" data-name="Path 3409" d="M343.328,1665.443s-2.314-1.827-3.083-2.6-2.98-3.749-2.6-4.422,2.327,1.494,4.229,1.634,2.165.765,2.589,2.216a16.789,16.789,0,0,0,.675,2Z" transform="translate(-337.605 -1602.572)" fill="#ffb27d"/>
      <path id="Path_3410" data-name="Path 3410" d="M365.93,1636.674h0s4.071.378,4.748.112a20.087,20.087,0,0,0,3.295-2.278c.282-.22.563-.44.837-.655a11.916,11.916,0,0,1,2.676-1.859l0,0a.092.092,0,0,1,.047.025,2.951,2.951,0,0,1,.465,1.129,22.151,22.151,0,0,1,.776,4.516v0a.162.162,0,0,1-.012.035l0,0,0,0c-.172.24-2.743,2.343-3.864,3.253-.314.258-.515.419-.515.419l.075.038c.044.024.112.057.2.1.193.1.484.241.853.416v0c.848.4,2.11.973,3.546,1.525,2.557.987,5.667,1.919,7.975,1.759q.249-.018.486-.052s-.378-2.185.168-3.147,4.2-9.8,4.367-10.445a13.782,13.782,0,0,0,.247-2.1c.015-.19.027-.372.044-.545a2.217,2.217,0,0,1,.253-1.085l.022-.02.012-.012a.336.336,0,0,1,.031-.03c.018-.02.04-.041.064-.064l.017-.017a97.727,97.727,0,0,0,7.413-8.091l.037-.052a5.741,5.741,0,0,0,.823-1.385h0c.044-.137.084-.28.121-.43a21.33,21.33,0,0,0,.31-5.067l-.005,0a9.263,9.263,0,0,0-1.524-.271,9.93,9.93,0,0,0-1.9-.015h0a45.716,45.716,0,0,1-.941,4.562c-.556.621-6.815,5.515-7.94,5.854h0a.336.336,0,0,1-.1.017h-.016c-.144,0-.286,0-.419,0h-.023c-.549,0-1.038-.045-1.038-.045s1.685,2.255,1.494,4.051-5.384,1.732-6.794.642a14.315,14.315,0,0,1-2.285-2.545c-.358-.479-.651-.9-.829-1.167-.119-.174-.186-.278-.186-.278l0,0-.06.019-.039.014-.049.015c-.241.083-.736.257-1.232.47-.265.113-.532.238-.76.364l0,0a2.833,2.833,0,0,0-.421.276c-1.139.937-6.557,7.522-7.244,7.981l0,0a.207.207,0,0,1-.039.02c-.446.137-3.144.771-3.144.771h0a7.564,7.564,0,0,0-.228,1.569A4.837,4.837,0,0,0,365.93,1636.674Z" transform="translate(-340.207 -1598.318)" fill="#c65447"/>
      <path id="Path_3411" data-name="Path 3411" d="M383.366,1710.134a15.184,15.184,0,0,0,3.547,1.813c1.2.24,3.461.412,3.653,1.168h-9.9a6.645,6.645,0,0,1,.314-2.981C381.53,1708.486,383.366,1710.134,383.366,1710.134Z" transform="translate(-341.588 -1607.305)" fill="#ffb27d"/>
      <path id="Path_3412" data-name="Path 3412" d="M366.678,1661.438c.492-.523,3.164-2.639,13.23-1.268,0,0-6.325-7.245-12.546-6.836A35.3,35.3,0,0,0,366.678,1661.438Z" transform="translate(-340.297 -1602.111)" fill="#ed975d"/>
      <path id="Path_3413" data-name="Path 3413" d="M375.266,1643.391a50.121,50.121,0,0,0,4.67,2.08,10.487,10.487,0,0,0,1.992-6.7c-.318-2.949-3.1-4.53-3.507-4.748.518.412,1.4,5.415,1.226,5.688l0,0c-.171.24-2.744,2.343-3.864,3.253C375.467,1643.23,375.266,1643.391,375.266,1643.391Z" transform="translate(-341.093 -1600.325)" fill="#c4453b"/>
      <path id="Path_3414" data-name="Path 3414" d="M395.326,1628.449c.352-.343,7.779-7.683,8.42-9.671C403.745,1618.778,394.195,1624.787,395.326,1628.449Z" transform="translate(-342.942 -1598.912)" fill="#c4453b"/>
      <g id="Group_9794" data-name="Group 9794" transform="translate(9.583 42.563)">
        <path id="Path_3415" data-name="Path 3415" d="M385.888,1648.714s11.65,10.269,14.507,15.075c.075.126,0,.438,0,.573a9.63,9.63,0,0,1-5.473-.9,6.643,6.643,0,0,0-5.384-.789,5.968,5.968,0,0,1-5.514-1.73c-1.792-1.827-4.388-.993-5.734-.929a5.123,5.123,0,0,1-3.718-1.6c-.769-.9-3.268-1.73-4.294-1.122a4.141,4.141,0,0,1-4.166-.609c-1.219-.962-1.859-2.628-4.295-2.115s-3.653.513-4.743-.257-3.012-2.08-4.678-1.617-4.178-2.3-4.178-2.3-.122-.515,0-.574c1.663-.8,14.362-6.164,25.052-5.313A26.013,26.013,0,0,0,385.888,1648.714Z" transform="translate(-348.165 -1643.85)" fill="#c65447"/>
        <path id="Path_3416" data-name="Path 3416" d="M348.225,1649.764s.122.134.33.338c.7.689,2.382,2.173,3.664,2a1.253,1.253,0,0,0,.183-.038h0c1.667-.461,3.588.849,4.677,1.619s2.308.769,4.743.256a3.613,3.613,0,0,1,1.377-.052c1.231.218,1.84,1.191,2.64,1.927h0c.09.083.181.162.278.239a4.613,4.613,0,0,0,2.318.914,3.074,3.074,0,0,0,1.847-.3,2.231,2.231,0,0,1,1.327-.188,5.4,5.4,0,0,1,2.857,1.193c.04.038.076.077.11.116a5.119,5.119,0,0,0,3.718,1.6,11.578,11.578,0,0,1,4.042-.067h0a3.725,3.725,0,0,1,1.692,1,5.926,5.926,0,0,0,2.915,1.682h0a6.473,6.473,0,0,0,2.6.048,7.487,7.487,0,0,1,3.211-.1h0a8.036,8.036,0,0,1,2.171.893,9.633,9.633,0,0,0,5.472.9c-2.452-4.614-14.506-15.649-14.506-15.649a26.01,26.01,0,0,1-12.618-4.206C361.8,1642.964,348.225,1649.764,348.225,1649.764Z" transform="translate(-348.171 -1643.792)" fill="#f99746"/>
        <g id="Group_9793" data-name="Group 9793" transform="translate(0.384 3.924)">
          <path id="Path_3417" data-name="Path 3417" d="M390.846,1663.287h0a6.473,6.473,0,0,0,2.6.048,7.487,7.487,0,0,1,3.211-.1c-.068-.086-4.542-5.8-5.112-5.44S389.617,1662.558,390.846,1663.287Z" transform="translate(-352.456 -1649.011)" fill="#ed7d2b"/>
          <path id="Path_3418" data-name="Path 3418" d="M377.147,1658.714c.04.038.076.077.11.116a5.119,5.119,0,0,0,3.718,1.6,11.578,11.578,0,0,1,4.042-.067c-.035-.078-2.343-5.031-3.512-5.206C380.49,1655.008,377.419,1657.173,377.147,1658.714Z" transform="translate(-351.234 -1648.768)" fill="#ed7d2b"/>
          <path id="Path_3419" data-name="Path 3419" d="M348.589,1650.5c.7.689,2.382,2.173,3.664,2,.061-.011.122-.024.183-.038h0c.123-.052,8.054-3.433,8.462-4.191C361.28,1647.563,350.655,1649.5,348.589,1650.5Z" transform="translate(-348.589 -1648.117)" fill="#ed7d2b"/>
          <path id="Path_3420" data-name="Path 3420" d="M357.985,1654.334c1.09.769,2.308.769,4.743.256a3.613,3.613,0,0,1,1.377-.052s4.669-2.685,4.464-3.525S357.985,1653.76,357.985,1654.334Z" transform="translate(-349.459 -1648.373)" fill="#ed7d2b"/>
          <path id="Path_3421" data-name="Path 3421" d="M367.638,1656.782h0c.09.083.181.162.278.239a4.613,4.613,0,0,0,2.317.914,3.074,3.074,0,0,0,1.847-.3,2.232,2.232,0,0,1,1.327-.188c.3-.264,2.768-2.485,2.3-3.038C375.205,1653.816,367.366,1655.968,367.638,1656.782Z" transform="translate(-350.352 -1648.69)" fill="#ed7d2b"/>
        </g>
      </g>
      <path id="Path_3422" data-name="Path 3422" d="M402.725,1602.008a6.879,6.879,0,0,0-.588-2.22c-.478-.9,1.247-2.627,1.83-2.812s1.008-.08,1.008.265-.822.928-.663,1.433a4.576,4.576,0,0,1,.336,1.7c-.044.611-.193,1.4-.193,1.4Z" transform="translate(-343.573 -1596.885)" fill="#ffb27d"/>
      <path id="Path_3423" data-name="Path 3423" d="M357.184,1636.325a8.762,8.762,0,0,1-1.533-.785c-.681-.461-2.213.772-2.412,1.224s-.152.8.125.831.816-.579,1.206-.408a3.678,3.678,0,0,0,1.332.416c.493.018,1.138-.034,1.138-.034Z" transform="translate(-339.041 -1600.455)" fill="#ffb27d"/>
    </g>
    <g id="Group_9796" data-name="Group 9796" transform="translate(432.53 1649.703)">
      <path id="Path_3424" data-name="Path 3424" d="M465.459,1665.15a3.65,3.65,0,0,1-2.12.679,3.308,3.308,0,0,1-1.74-.834l-.614,1.193a4.788,4.788,0,0,0,2.87.542,3.334,3.334,0,0,0,1.311-.838A1.138,1.138,0,0,0,465.459,1665.15Z" transform="translate(-460.986 -1661.957)" fill="#6bb7bf"/>
      <path id="Path_3425" data-name="Path 3425" d="M465.634,1662.421l1.647-.774s-.068,3.5-2.9,4.7C464.377,1666.349,466.088,1663.875,465.634,1662.421Z" transform="translate(-461.3 -1661.647)" fill="#86d1cd"/>
    </g>
    <g id="Group_9797" data-name="Group 9797" transform="translate(153.705 1663.005)">
      <path id="Path_3426" data-name="Path 3426" d="M157.165,1682.23a5.388,5.388,0,0,1-1.824-2.731,4.889,4.889,0,0,1,.475-2.807l-1.943-.387a7.07,7.07,0,0,0,.4,4.292,4.916,4.916,0,0,0,1.721,1.519A1.676,1.676,0,0,0,157.165,1682.23Z" transform="translate(-153.705 -1676.306)" fill="#6bb7bf"/>
      <path id="Path_3427" data-name="Path 3427" d="M160.618,1681.513l1.768,2.023s-5,1.327-7.853-2.208C154.533,1681.328,158.74,1682.75,160.618,1681.513Z" transform="translate(-153.782 -1676.771)" fill="#86d1cd"/>
    </g>
    <g id="Group_9798" data-name="Group 9798" transform="translate(338.792 1566.947)">
      <path id="Path_3428" data-name="Path 3428" d="M358.591,1576.594a5.1,5.1,0,0,1,.642-3.042,4.61,4.61,0,0,1,2.217-1.534l-1.024-1.573a6.693,6.693,0,0,0-2.643,3.111,4.656,4.656,0,0,0,.111,2.171A1.587,1.587,0,0,0,358.591,1576.594Z" transform="translate(-357.683 -1570.445)" fill="#6bb7bf"/>
      <path id="Path_3429" data-name="Path 3429" d="M361.624,1578.447l-.2,2.536s-4.2-2.507-3.7-6.78C357.724,1574.2,359.543,1577.993,361.624,1578.447Z" transform="translate(-357.682 -1570.793)" fill="#86d1cd"/>
    </g>
    <g id="Group_9799" data-name="Group 9799" transform="translate(271.436 1667.127)">
      <path id="Path_3430" data-name="Path 3430" d="M284.307,1681.822s.72-1.551,3.926-.736c1.436.366,3.924,2.479.635,4.263-3.421,1.856-4.5-.083-4.5-.083s5.509-.9,4.722-3.13c-.867-2.456-3.176.2-3.176.2A4.242,4.242,0,0,0,284.307,1681.822Z" transform="translate(-283.53 -1680.849)" fill="#f1a34f"/>
      <path id="Path_3431" data-name="Path 3431" d="M283.692,1685.382a1.707,1.707,0,0,1,.369-2.179l1.367,1.09s-1.329,1.048,0,1.992C285.428,1686.285,283.884,1685.861,283.692,1685.382Z" transform="translate(-283.451 -1681.067)" fill="#db7714"/>
    </g>
    <g id="Group_9800" data-name="Group 9800" transform="translate(321.188 1615.542)">
      <path id="Path_3432" data-name="Path 3432" d="M340.293,1624.831a2.325,2.325,0,0,1,3.279.639l1.543-.664s-.762-1.2-3.755-.671C339.4,1624.484,340.293,1624.831,340.293,1624.831Z" transform="translate(-338.449 -1623.999)" fill="#5685d8"/>
      <path id="Path_3433" data-name="Path 3433" d="M338.281,1626.1s.511-2.1,4.352-2.1a3.758,3.758,0,0,0-2.564,2Z" transform="translate(-338.281 -1623.999)" fill="#739af0"/>
    </g>
    <path id="Path_3434" data-name="Path 3434" d="M396.382,1664.778s1.357-.857,1.5-1.893c0,0,1.322.072,1.608.5,0,0-.608,1.715-1.322,2.036C398.168,1665.421,396.561,1665.528,396.382,1664.778Z" transform="translate(-22.474 -12.058)" fill="#f1a34f"/>
    <path id="Path_3435" data-name="Path 3435" d="M280.815,1580.084s-.88-.556-.973-1.228c0,0-.857.046-1.043.324,0,0,.394,1.112.857,1.32C279.657,1580.5,280.7,1580.57,280.815,1580.084Z" transform="translate(-11.585 -4.277)" fill="#ed7d2b"/>
    <path id="Path_3436" data-name="Path 3436" d="M396.772,1685.855s1.2-.76,1.329-1.678c0,0,1.171.063,1.425.443,0,0-.538,1.519-1.171,1.8C398.354,1686.424,396.93,1686.519,396.772,1685.855Z" transform="translate(-22.51 -14.03)" fill="#86d1cd"/>
    <g id="Group_9801" data-name="Group 9801" transform="translate(232.175 1570.994)">
      <path id="Path_3437" data-name="Path 3437" d="M271.1,1666.875s5.717,1.984,7.6,1.735c0,0,.125-.964-1.532-1.863s-3.084-3.9-3.984-3.67a8.427,8.427,0,0,0-2.089,1.04Z" transform="translate(-243.046 -1583.069)" fill="#163560"/>
      <path id="Path_3438" data-name="Path 3438" d="M279.944,1657.031s5.971-.982,7.507-2.1c0,0-.349-.907-2.234-.907s-4.569-1.955-5.252-1.327a8.421,8.421,0,0,0-1.341,1.909Z" transform="translate(-243.744 -1582.097)" fill="#163560"/>
      <path id="Path_3439" data-name="Path 3439" d="M268.289,1664.349q-2.442-.078-4.594-.207c-21.8-1.287-22.433-6.134-22.433-6.134-3.625-11.107,10.94-22.138,10.94-22.138s8.839-1.241,8.488,3.953-12.578,15.4-12.578,15.4c4.071.381,10.69,2.671,15.228,4.4,2.895,1.1,4.943,1.973,4.943,1.973a2.7,2.7,0,0,1,.328,1.4A4.219,4.219,0,0,1,268.289,1664.349Z" transform="translate(-240.23 -1580.539)" fill="#1c468a"/>
      <path id="Path_3440" data-name="Path 3440" d="M263.694,1664.142c-21.8-1.287-22.433-6.134-22.433-6.134-3.625-11.107,10.94-22.138,10.94-22.138s8.839-1.241,8.488,3.953-12.578,15.4-12.578,15.4c4.071.381,10.69,2.671,15.228,4.4A6.478,6.478,0,0,1,263.694,1664.142Z" transform="translate(-240.23 -1580.539)" fill="#163560"/>
      <path id="Path_3441" data-name="Path 3441" d="M277.111,1655.4l-.021.005c-18.763,5.067-25.383,4.993-27.291,4.611-.846-.169-1.441-1.4-1.441-1.4-3.624-11.108,11.826-23.629,11.826-23.629s6.656-.3,8.514,2.735a3.37,3.37,0,0,1,.466,2.038c-.226,3.345-5.289,8.167-8.865,11.175-1.889,1.59-3.364,2.673-3.49,2.766l-.006,0c6.241-3.852,18.966-.721,18.966-.721a4.006,4.006,0,0,1,.973.954A3.471,3.471,0,0,1,277.111,1655.4Z" transform="translate(-240.89 -1580.468)" fill="#1c468a"/>
      <path id="Path_3442" data-name="Path 3442" d="M286.311,1587.535c-.691-.036-2.22,2.146-2.51,2.328s-.146-.8-.375-1.492-.753.873-.753,1.855a2.959,2.959,0,0,0,.753,1.783,1.06,1.06,0,0,1-.165.481c-.893,1.484-2.775,4.85-4.287,7.57-1.25,2.24-2.239,4.039-2.239,4.039a55.616,55.616,0,0,0-5.962.687c-2.034.33-3.846.7-4.864.92-.535.111-.851.18-.851.18s-.124.37-.261.934c-.1.385-.192.879-.275,1.4-.247,1.828-.137,4.053,1.882,4.177a4.779,4.779,0,0,0,1.127-.083,20.606,20.606,0,0,0,4-1.1,62.791,62.791,0,0,0,6.457-2.761,18.594,18.594,0,0,0,2.391-1.333,22.353,22.353,0,0,0,1.8-4.589c1.278-3.888,2.761-8.93,3-9.741a38.56,38.56,0,0,0,2.122-3.84C287.366,1588.48,287,1587.571,286.311,1587.535Z" transform="translate(-242.429 -1576.074)" fill="#ffb27d"/>
      <path id="Path_3443" data-name="Path 3443" d="M259.392,1578.215c-.6-.163,2.674-3.332.6-3.31-1.662.017-3.494,3.585-3.494,3.585-.275.508-.576,1.016-.576,1.016a49.5,49.5,0,0,0-5.619,8.669c-2.115,4.369-1.717,6.305-1.717,6.305a13.306,13.306,0,0,0,.179,2.624,90.859,90.859,0,0,0,2.775,11.665c.055.192.083.289.083.289l4.918-3.531a4.74,4.74,0,0,0-.014-1.168,18.7,18.7,0,0,0-.632-2.967c-.014-.055-.042-.111-.055-.165-.467-1.635-1.1-3.38-1.649-4.809-.1-.247-.179-.481-.275-.7a.578.578,0,0,1-.054-.137c-.536-1.347-.935-2.268-.935-2.268.165-.357.344-.714.508-1.085l.083-.206c.11-.247.221-.495.316-.741.014-.055.042-.1.055-.138a.845.845,0,0,0,.069-.164.045.045,0,0,0,.014-.028,88.506,88.506,0,0,0,3.476-10.62.978.978,0,0,1,.3-.414c.006,0,2.468-1.047,3.129-1.427S259.992,1578.379,259.392,1578.215Z" transform="translate(-240.959 -1574.905)" fill="#ffb27d"/>
      <path id="Path_3444" data-name="Path 3444" d="M259.152,1620.266a120.829,120.829,0,0,0-12.341-11.1,14.848,14.848,0,0,1-.6-2.451,2.952,2.952,0,0,0-.165,1.9,18.032,18.032,0,0,0-4.175-2.341c-.4-2.316,1.828-4.748,1.828-4.748-1.913.776-2.689,3.327-2.942,4.5a2.319,2.319,0,0,0-.573.018s-.192-7.816,11.747-7.816c4.645,0,3.98-8.07,10.592-7.491,0,0,7.221,1.411,5.873,7.708s.867,7.708,1.637,9.12S267.529,1618.854,259.152,1620.266Z" transform="translate(-240.184 -1576.368)" fill="#aa443e"/>
      <path id="Path_3445" data-name="Path 3445" d="M266.775,1608.462l-6.964,2.757-.74-3.085a12.608,12.608,0,0,1,.179-2.92,23.382,23.382,0,0,1,.759-3.178l.015-.046.179,0,.578-.015,3.914-.1a7.472,7.472,0,0,0-.258,1.627A5.766,5.766,0,0,0,266.775,1608.462Z" transform="translate(-241.931 -1577.402)" fill="#ffb27d"/>
      <path id="Path_3446" data-name="Path 3446" d="M255.279,1607.077s-9.357,5.177-2.178,26.138l14.96.816s-6.392-8.892-4.863-11.949,4.585-12.644,4.585-12.644Z" transform="translate(-241.129 -1577.884)" fill="#e5b0b4"/>
      <path id="Path_3447" data-name="Path 3447" d="M280.7,1602.759s-1.3,4.38-1.929,4.729-8.831,4.561-11.317,4.9a5.5,5.5,0,0,0-1.178.237h0a.2.2,0,0,0-.1.077l-.007.018c-.176.463-2.378,7.967-2.429,9.958-.037,1.387,6.08,10.314,6.007,11.327a.707.707,0,0,1-.062.249c-.345.76-2.029.694-3.412-.031a21.963,21.963,0,0,0-3.522-1.436,10.462,10.462,0,0,0-4.876-.52c-2.822.58-5.718-.144-6.732-3.257s-.868-9.482-1.157-10.785-.544-5.39,1.191-8.1h0v0a1.76,1.76,0,0,0-.144-1.338c-.362-.9-3-10.424-2.605-13.282a14.947,14.947,0,0,1,1.859-5.969,5.014,5.014,0,0,1,2,1.067c.923.823,1.525,1.679,1.671,1.715a18.23,18.23,0,0,0-.917,2.354c.054.181,3.347,9.519,3.528,10.061,0,0,1.3-.113,1.577.17,0,0-.111,2.678,5.969.458,0,0,.376-.061.393.253,0,0,7.841-1.252,10.568-1.447,0,0,.146-.016.989-1.593a13.344,13.344,0,0,1,1.415-2.318A3.466,3.466,0,0,1,280.7,1602.759Z" transform="translate(-240.943 -1576.259)" fill="#ffb93e"/>
      <path id="Path_3448" data-name="Path 3448" d="M270.916,1636.372a.706.706,0,0,1-.062.249c-.345.76-2.029.694-3.412-.031a21.975,21.975,0,0,0-3.522-1.436,49.416,49.416,0,0,1-2.815-9.039c-.778-4.532,5.339-10.225,6.232-11.029-.176.463-2.378,7.967-2.429,9.959C264.872,1626.432,270.988,1635.359,270.916,1636.372Z" transform="translate(-242.115 -1578.626)" fill="#ffa412"/>
      <path id="Path_3449" data-name="Path 3449" d="M264.458,1603.506s-3.26,1.659-5.187,1.717a23.372,23.372,0,0,1,.759-3.178c.065-.02.131-.037.194-.05a1.531,1.531,0,0,1,.4-.032c.058,0,.115.01.174.016A10.687,10.687,0,0,1,264.458,1603.506Z" transform="translate(-241.951 -1577.411)" fill="#ed975d"/>
      <path id="Path_3450" data-name="Path 3450" d="M258.34,1601.987s5.56,2.817,7.26-.672,3.565-5.475.087-7.422-4.822-.953-5.673.073S256.937,1601.164,258.34,1601.987Z" transform="translate(-241.823 -1576.56)" fill="#ffb27d"/>
      <path id="Path_3451" data-name="Path 3451" d="M262.746,1593.831s1.686,1.677,1.191,3.27.306,4.761,2.477,5.123,4.755-6.98,1.9-8.393-7.529-2.109-8.939-.336a5.08,5.08,0,0,0-.867,4.016S260.46,1593.723,262.746,1593.831Z" transform="translate(-241.871 -1576.529)" fill="#aa443e"/>
      <path id="Path_3452" data-name="Path 3452" d="M260.552,1601.575s-.228.376-1.22-.017c0,0-.833-.329-.661-.769A2.877,2.877,0,0,1,260.552,1601.575Z" transform="translate(-241.894 -1577.302)" fill="#fff"/>
    </g>
    <g id="Group_9803" data-name="Group 9803" transform="translate(182.486 1592.355)">
      <path id="Path_3453" data-name="Path 3453" d="M212.014,1608.725l.681-1.088c2.712-3.625,1.64-5.492.806-6.446a6.56,6.56,0,0,0-2.369-1.692l-.1-.042a5.292,5.292,0,0,0-1.415-.536c-5.778-2.877-9.345,8.234-8.618,9.161s2.95,1.431,2.95,1.431a1.886,1.886,0,0,1-.151-.452c.522.722,2.94,1.164,2.94,1.164a3.857,3.857,0,0,1-.517-2.416l1.383.264a6.243,6.243,0,0,0,.921,2.7,5.758,5.758,0,0,0,3.008,1.435,1.4,1.4,0,0,1-.058-.485c.019.232.365.481.365.481a2.9,2.9,0,0,0,.877-.054S211.474,1611.822,212.014,1608.725Z" transform="translate(-186.857 -1598.446)" fill="#233862"/>
      <path id="Path_3454" data-name="Path 3454" d="M204.11,1616.568l-.009,0C204.084,1616.57,204.087,1616.568,204.11,1616.568Z" transform="translate(-187.152 -1600.124)" fill="#ffb27d"/>
      <path id="Path_3455" data-name="Path 3455" d="M210.825,1613.943c.081.727.178,1.379.221,1.691.1.7-6.512.243-6.934.241.294-.128,1.19-2.972,1.475-4.056.344-1.316.614-2.737.614-2.737l4.667.294.278.017a16.3,16.3,0,0,0-.379,1.795c-.011.075-.023.151-.032.225A12.09,12.09,0,0,0,210.825,1613.943Z" transform="translate(-187.154 -1599.431)" fill="#ffb27d"/>
      <path id="Path_3456" data-name="Path 3456" d="M211.035,1613.956c-3.265-.956-4.65-4.728-4.65-4.728a9.978,9.978,0,0,1,4.591,1.973c-.011.075-.023.151-.032.225A12.09,12.09,0,0,0,211.035,1613.956Z" transform="translate(-187.364 -1599.444)" fill="#ed975d"/>
      <path id="Path_3457" data-name="Path 3457" d="M211.25,1611.878s-5.9-1.458-4.934-5.117.853-6.312,4.659-5.536,4.167,2.365,4.142,3.664S212.809,1612.163,211.25,1611.878Z" transform="translate(-187.348 -1598.691)" fill="#ffb27d"/>
      <path id="Path_3458" data-name="Path 3458" d="M213.526,1601.794s-2.744,3.866-5.379,3.847-3.531-.964-3.531-.964a7.231,7.231,0,0,0,3.378-3.524S212.854,1599.43,213.526,1601.794Z" transform="translate(-187.2 -1598.641)" fill="#233862"/>
      <path id="Path_3459" data-name="Path 3459" d="M213.9,1602.142a5.367,5.367,0,0,1,.993,2.285c.046,1.009-.329,2.961.247,3.044,0,0,1.984-2.6,1.059-4.607C215.213,1600.732,213.9,1602.142,213.9,1602.142Z" transform="translate(-188.06 -1598.746)" fill="#233862"/>
      <path id="Path_3460" data-name="Path 3460" d="M213.5,1602.281s-2.335,4.19-5.83,4.805c0,0,3.845-1.937,4.894-4.833S213.5,1602.281,213.5,1602.281Z" transform="translate(-187.484 -1598.68)" fill="#233862"/>
      <path id="Path_3461" data-name="Path 3461" d="M210.75,1610.394s.074.556.428.689a5.165,5.165,0,0,0,1.395.311,4.757,4.757,0,0,0,.449-.494A7.346,7.346,0,0,0,210.75,1610.394Z" transform="translate(-187.768 -1599.552)" fill="#fff"/>
      <path id="Path_3462" data-name="Path 3462" d="M207.2,1670.188c-.075.313-.15.622-.224.93-.445,1.847-.858,3.561-1.119,4.994-.338,1.866-.418,3.255.026,3.838,1.831,2.4,0,21.46,0,21.46l-2.085,2.148s-3.624-18.817-4.607-21.765c-.447-1.34-1.1-7.065-1.673-12.909q-.044-.44-.085-.877c-.1-1.023-.2-2.041-.288-3.034-.516-5.53-.9-10.264-.9-10.264s3.844-2.7,7.336-3a4.4,4.4,0,0,1,4.948,3C209.924,1658.387,208.514,1664.738,207.2,1670.188Z" transform="translate(-186.425 -1603.376)" fill="#ffb27d"/>
      <path id="Path_3463" data-name="Path 3463" d="M207.47,1670.188a20.519,20.519,0,0,1-8.333-11.75c-.279-2.992,2.08-5.835,4.712-6.732a4.4,4.4,0,0,1,4.948,3C210.19,1658.387,208.78,1664.738,207.47,1670.188Z" transform="translate(-186.691 -1603.376)" fill="#ed975d"/>
      <path id="Path_3464" data-name="Path 3464" d="M219.69,1632.025l14.036,3.626v1.639s-13.967-.163-14.869-1.719S219.69,1632.025,219.69,1632.025Z" transform="translate(-188.495 -1601.556)" fill="#ffb27d"/>
      <path id="Path_3465" data-name="Path 3465" d="M232.312,1687.523l-.656,2.708s-18.987-9.806-21.443-11.69c-.987-.757-2.29-4.865-3.5-9.514-1.8-6.929-3.383-15.055-3.383-15.055s2.661-10.236,9.787-3.972c4.264,3.75,3.6,10.974,3.133,16.594-.31,3.77-.534,6.818.88,7.608,2.758,1.539,10.851,8.63,13.412,13.508Z" transform="translate(-187.082 -1603.032)" fill="#ffb27d"/>
      <path id="Path_3466" data-name="Path 3466" d="M198.712,1639.133c-4.959-1.262-10.41-8.955-10.41-8.955l1.4-1.211c1.445,1.7,7.456,4.64,7.456,4.64-.032-1.56.009-2.982.107-4.277.667-8.8,3.984-11.732,4.89-12.375a2.132,2.132,0,0,1,.23-.148s0,.063.008.185c.014.261.037.788.062,1.511C202.635,1623.889,202.855,1640.189,198.712,1639.133Z" transform="translate(-185.69 -1600.146)" fill="#ffb27d"/>
      <path id="Path_3467" data-name="Path 3467" d="M203.247,1628.5c-.257,6.277-1.2,12.494-3.929,12.094-3.35-.489-4.223-3.616-4.4-5.94a13.312,13.312,0,0,1,.049-2.583,5.919,5.919,0,0,0,1.915-.253c1.267-1.17.89-12.642,1.517-13.833s4.694-1.955,4.694-1.955S203.5,1622.3,203.247,1628.5Z" transform="translate(-186.299 -1600.074)" fill="#f99746"/>
      <path id="Path_3468" data-name="Path 3468" d="M203.251,1629.333c-.257,6.277-1.2,12.494-3.929,12.094-3.35-.489-4.223-3.616-4.4-5.94.822-.042,2.27-.242,2.846-1.12.824-1.257,3.395-9.343,3.395-9.343S202.171,1626.84,203.251,1629.333Z" transform="translate(-186.303 -1600.907)" fill="#ed7d2b"/>
      <path id="Path_3469" data-name="Path 3469" d="M224.669,1630.318c.908,1.29.408,3.79-1.5,5.8a5.648,5.648,0,0,1-5.392,1.605c-1.136-.167-4.311-1.96-4.645-4.146-.06-.4-.093-.628-.093-.628a12.45,12.45,0,0,0-1.5,1.721c-.024.123-.149,1.216-.168,1.366a5.279,5.279,0,0,0,.105.846s-6.906,3.02-12.615-.419c0,0-1.628-13.951-.458-16.272.581-1.153,3.84-3.4,4.974-4.391a1.811,1.811,0,0,0,.444-1.329c-.057-.366.364-.984.717-.871.682.219,2.613,1.174,3.972.809.677-.18,1.535-.962,2.191-.783.8.219-.045,2.149.409,2.174.626.031,4.009.707,4.292,1.252.1.19,1.071,2.765,2.289,6.17l0,.009C219.983,1629.624,223.336,1628.425,224.669,1630.318Z" transform="translate(-186.586 -1599.848)" fill="#f99746"/>
      <path id="Path_3470" data-name="Path 3470" d="M213.968,1634.392s-.169-5.321-.6-5.256-6.634,6.037-5.159,8.425S213.968,1634.392,213.968,1634.392Z" transform="translate(-187.512 -1601.288)" fill="#ed7d2b"/>
      <path id="Path_3471" data-name="Path 3471" d="M217.567,1657.052a41.25,41.25,0,0,1-5.913,1.226c-4.362.6-10.459.82-15.9-1.226,0,0-.449-8.1.841-12.326s1.893-6.245,1.893-6.245a27.3,27.3,0,0,0,10.419.29,16.888,16.888,0,0,0,2.2-.569s3.238,6.875,4.129,9.822S217.567,1657.052,217.567,1657.052Z" transform="translate(-186.372 -1602.128)" fill="#2b478b"/>
      <path id="Path_3472" data-name="Path 3472" d="M218.781,1657.052a41.25,41.25,0,0,1-5.913,1.226c-6.46-3.662-3.31-19.074-3.31-19.074.191-.156.379-.3.56-.432a16.888,16.888,0,0,0,2.2-.569s3.238,6.875,4.129,9.822S218.781,1657.052,218.781,1657.052Z" transform="translate(-187.587 -1602.128)" fill="#233862"/>
      <g id="Group_9802" data-name="Group 9802" transform="translate(11.831 34.668)">
        <path id="Path_3473" data-name="Path 3473" d="M204.233,1639.862c-3.829,0-5.407-1.317-5.524-1.407l-.248-1.8c.036.027,5.175,3.112,13.125.158l-.168,1.366A20.854,20.854,0,0,1,204.233,1639.862Z" transform="translate(-198.461 -1636.652)" fill="#b64c41"/>
      </g>
      <path id="Path_3474" data-name="Path 3474" d="M235.27,1635.868a18.8,18.8,0,0,1,3.6-1.391,8.1,8.1,0,0,1,2.744,0,7.65,7.65,0,0,1-2.334,1.391c-.492.083-1.434.779-1.147.861s1.8-.267,1.822,0-.921.43-1.085.634a1.949,1.949,0,0,1-1.658.328c-.922-.123-1.941-.184-1.941-.184Z" transform="translate(-190.039 -1601.773)" fill="#ffb27d"/>
      <path id="Path_3475" data-name="Path 3475" d="M189.429,1629.809l-1.4,1.221s-2.487-1.817-2.606-2.562v-.074c0-.774,1.579-2.383,2.889-2.442a.715.715,0,0,1,.358.089c.7.436.78,2.257.775,3.2C189.443,1629.583,189.429,1629.809,189.429,1629.809Z" transform="translate(-185.423 -1600.993)" fill="#ffb27d"/>
      <path id="Path_3476" data-name="Path 3476" d="M232.658,1689.424l-.656,2.709s-18.987-9.806-21.443-11.69c-.987-.757-2.29-4.865-3.5-9.514,1.621.333,5.12.509,9.538-2.434-.31,3.77-.534,6.818.88,7.608,2.758,1.539,10.851,8.63,13.412,13.508Z" transform="translate(-187.427 -1604.933)" fill="#2b478b"/>
      <path id="Path_3477" data-name="Path 3477" d="M238.843,1692.338l-.017,0a1.189,1.189,0,0,1-.734-.771c-.171-.409-.221-.745-.378-1.15l-.641-1.107c-.671-.883-.906-.676-.906-.676s-.175.225-.434.522a5.425,5.425,0,0,1-1.548,1.347,1.345,1.345,0,0,0-.663.519,1.278,1.278,0,0,0-.2.455s1.377.24,1.257.918c-.234,1.314-.179,1.552-.154,1.6l.008.009s2.347,1.229,3.1,1.47a5.87,5.87,0,0,1,2.467,1.751.771.771,0,0,0,.657.207c.352-.055.809-.169.909-.385Z" transform="translate(-189.859 -1606.796)" fill="#f99746"/>
      <path id="Path_3478" data-name="Path 3478" d="M206.018,1681.707c1.831,2.4,0,21.46,0,21.46l-2.085,2.148s-3.624-18.817-4.607-21.765c-.447-1.34-1.1-7.065-1.673-12.909,1.738.775,5.975,2.463,9.458,2.233-.445,1.847-.858,3.561-1.119,4.994C205.653,1679.735,205.574,1681.123,206.018,1681.707Z" transform="translate(-186.556 -1605.132)" fill="#233862"/>
      <path id="Path_3479" data-name="Path 3479" d="M208.29,1709.516l-1.125.609c-.409.145-.746.186-1.16.345a2.4,2.4,0,0,0-1.092.8c-.318,1.29-.768,1.208-.768,1.208l-4.519.043c-.213-.106.148-1.019.321-1.189.427-.421,1.706-.21,2.172-1.533.263-.744,1.559-3.055,1.559-3.055l.009-.008c.044-.023.284-.071,1.591.2.674.14.954-1.229.954-1.229a1.281,1.281,0,0,1,.449.211,1.347,1.347,0,0,1,.5.678,5.408,5.408,0,0,0,1.3,1.586c.289.268.508.449.508.449S209.192,1708.872,208.29,1709.516Z" transform="translate(-186.732 -1608.379)" fill="#f99746"/>
    </g>
    <g id="Group_9805" data-name="Group 9805" transform="translate(185.321 1549.754)">
      <path id="Path_3480" data-name="Path 3480" d="M209.977,1557.023a8.608,8.608,0,0,1,1.186,2.64c1.856,6.644-.986,17.867-.986,17.867s-15.261-1.5-19.225-7.142a12.521,12.521,0,0,1-.745-13.589,10.894,10.894,0,0,1,3.081-3.309C198.542,1549.8,206.013,1551.381,209.977,1557.023Z" transform="translate(-188.548 -1551.497)" fill="#86d1cd"/>
      <path id="Path_3481" data-name="Path 3481" d="M212.384,1580.135s.856,1.679,1.507,1.375,1.133-1.481.838-1.8S212.384,1580.135,212.384,1580.135Z" transform="translate(-190.755 -1554.102)" fill="#86d1cd"/>
      <path id="Path_3482" data-name="Path 3482" d="M212.594,1580.115l-.31.218a.149.149,0,0,1-.206-.036h0a.148.148,0,0,1,.036-.205l.31-.218a.147.147,0,0,1,.205.035h0A.148.148,0,0,1,212.594,1580.115Z" transform="translate(-190.724 -1554.122)" fill="#f99746"/>
      <g id="Group_9804" data-name="Group 9804" transform="translate(21.389 26.09)">
        <path id="Path_3483" data-name="Path 3483" d="M225.98,1595.366a1.622,1.622,0,0,0-.449-.557.436.436,0,0,0-.394-.084c.025-.06,2.533-6,1.544-8.529-.537-1.375-4.16-.178-7.07.784-2.567.849-4.6,1.917-5.325,1.033-.671-.821.37-2.831,1.074-4.443.416-.95.886-2.025.685-2.239-.243-.26-1.061.2-1.718.564-.821.459-1.531.856-1.877.515-.621-.61-.18-2.1-.161-2.161l.073.022c0,.014-.25,1.457.263,1.961.213.21.972-.214,1.581-.555.846-.472,1.853-1.1,2.23-.693.3.318-.24,1.3-.847,2.686-.643,1.472-1.443,3.3-.884,4.022.4.513,2.65-.231,4.826-.95,3.323-1.1,7.05-2.474,7.674-.879.433,1.109.3,2.977-.18,5.592A31.239,31.239,0,0,1,225.98,1595.366Z" transform="translate(-212.12 -1580.25)" fill="#f99746"/>
      </g>
      <path id="Path_3484" data-name="Path 3484" d="M210.064,1557.023a8.608,8.608,0,0,1,1.186,2.64c-.019,4.626-3.687,8.225-10.944,8.773-15.026,1.135-10.012-11.637-10.012-11.637h0a10.894,10.894,0,0,1,3.081-3.309C198.629,1549.8,206.1,1551.381,210.064,1557.023Z" transform="translate(-188.635 -1551.497)" fill="#abddda"/>
      <path id="Path_3485" data-name="Path 3485" d="M204.567,1554.872c-.088.688-2.239,1.763-3.879,1.554a2.641,2.641,0,0,1-2.467-2.122c0-1.328,1.945-1.61,3.585-1.4S204.655,1554.184,204.567,1554.872Z" transform="translate(-189.444 -1551.621)" fill="#c5efeb"/>
    </g>
    <g id="Group_9807" data-name="Group 9807" transform="translate(288.012 1532.674)">
      <path id="Path_3486" data-name="Path 3486" d="M330.656,1546.29a10.742,10.742,0,0,1-.2,3.611c-1.749,8.438-11.339,19.265-11.339,19.265s-16.079-10.416-17.243-18.951a15.642,15.642,0,0,1,6.964-15.51,13.606,13.606,0,0,1,5.319-1.906C322.105,1531.716,329.492,1537.756,330.656,1546.29Z" transform="translate(-301.72 -1532.674)" fill="#ed7d2b"/>
      <path id="Path_3487" data-name="Path 3487" d="M320.893,1572.891s-.013,2.355.886,2.39,2.107-.994,1.965-1.524S320.893,1572.891,320.893,1572.891Z" transform="translate(-303.495 -1536.399)" fill="#ed7d2b"/>
      <path id="Path_3488" data-name="Path 3488" d="M321.144,1572.957l-.469.064a.187.187,0,0,1-.208-.158h0a.186.186,0,0,1,.158-.208l.469-.064a.185.185,0,0,1,.208.158h0A.185.185,0,0,1,321.144,1572.957Z" transform="translate(-303.456 -1536.371)" fill="#1c468a"/>
      <g id="Group_9806" data-name="Group 9806" transform="translate(15.031 36.516)">
        <path id="Path_3489" data-name="Path 3489" d="M327.069,1597.544a2.031,2.031,0,0,0-.179-.876.549.549,0,0,0-.389-.319c.063-.052,6.249-5.2,6.6-8.581.192-1.833-4.514-2.581-8.3-3.182-3.336-.531-6.207-.512-6.5-1.907-.274-1.3,2.034-2.929,3.74-4.315,1-.817,2.143-1.741,2.043-2.092-.122-.427-1.29-.389-2.229-.358-1.175.039-2.19.073-2.38-.5-.339-1.033,1-2.433,1.061-2.492l.068.066c-.013.013-1.112,1.473-.832,2.328.117.354,1.2.318,2.072.289,1.21-.04,2.685-.152,2.874.51.149.524-1.009,1.3-2.48,2.5-1.557,1.265-3.5,2.838-3.288,3.958.149.8,3.074,1.263,5.9,1.713,4.316.686,9.245,1.3,9.021,3.423-.156,1.479-1.376,3.476-3.406,6.1A39.029,39.029,0,0,1,327.069,1597.544Z" transform="translate(-318.284 -1572.917)" fill="#1c468a"/>
      </g>
      <path id="Path_3490" data-name="Path 3490" d="M330.912,1546.29a10.742,10.742,0,0,1-.2,3.611c-2.673,5.123-8.807,7.015-17.177,3.463-17.329-7.357-4.44-18.658-4.44-18.658h0a13.606,13.606,0,0,1,5.319-1.906C322.362,1531.716,329.748,1537.756,330.912,1546.29Z" transform="translate(-301.976 -1532.674)" fill="#f99746"/>
      <path id="Path_3491" data-name="Path 3491" d="M326.63,1540.395c-.491.713-3.5.673-5.2-.5a3.3,3.3,0,0,1-1.522-3.77c.757-1.476,3.082-.672,4.782.5S327.122,1539.682,326.63,1540.395Z" transform="translate(-303.389 -1532.92)" fill="#ffb680"/>
    </g>
    <g id="Group_9809" data-name="Group 9809" transform="translate(382.243 1554.109)">
      <path id="Path_3492" data-name="Path 3492" d="M427.834,1570.437a6.44,6.44,0,0,1-1.561,1.5c-4.21,2.974-12.825,3.793-12.825,3.793s-2.777-11.12.2-15.327a9.356,9.356,0,0,1,9.379-3.938,8.149,8.149,0,0,1,3.1,1.338C430.047,1560.573,430.81,1566.23,427.834,1570.437Z" transform="translate(-406.188 -1556.296)" fill="#ffa412"/>
      <path id="Path_3493" data-name="Path 3493" d="M413.5,1577.711s-.967,1.024-.589,1.406,1.327.426,1.481.136S413.5,1577.711,413.5,1577.711Z" transform="translate(-406.239 -1558.279)" fill="#ffa412"/>
      <path id="Path_3494" data-name="Path 3494" d="M413.638,1577.85l-.231-.163a.111.111,0,0,1-.026-.154h0a.11.11,0,0,1,.153-.026l.231.163a.111.111,0,0,1,.026.154h0A.111.111,0,0,1,413.638,1577.85Z" transform="translate(-406.289 -1558.259)" fill="#f99746"/>
      <g id="Group_9808" data-name="Group 9808" transform="translate(0 19.397)">
        <path id="Path_3495" data-name="Path 3495" d="M405.567,1591.107a1.212,1.212,0,0,0,.279-.456.327.327,0,0,0-.04-.3c.049,0,4.856.278,6.392-1.055.833-.722-.919-2.972-2.327-4.779-1.242-1.594-2.505-2.758-2.064-3.489.409-.679,2.085-.451,3.4-.359.772.054,1.648.113,1.748-.081.122-.237-.406-.7-.828-1.067-.53-.463-.987-.863-.835-1.192.274-.591,1.432-.653,1.481-.656l0,.056c-.011,0-1.088.191-1.314.679-.093.2.4.63.788.973.545.476,1.237,1.029,1.049,1.4-.149.29-.973.157-2.1.079-1.2-.083-2.688-.186-3.054.388-.26.41.828,1.807,1.882,3.159,1.607,2.063,3.513,4.341,2.546,5.18-.671.583-2.021.958-3.982,1.279A23.54,23.54,0,0,1,405.567,1591.107Z" transform="translate(-405.567 -1577.673)" fill="#f99746"/>
      </g>
      <path id="Path_3496" data-name="Path 3496" d="M428.232,1570.454a6.44,6.44,0,0,1-1.561,1.5c-3.261,1.148-6.716-.529-8.924-5.5-4.574-10.293,5.677-9.97,5.677-9.97h0a8.15,8.15,0,0,1,3.1,1.338C430.445,1560.59,431.208,1566.247,428.232,1570.454Z" transform="translate(-406.586 -1556.313)" fill="#ffb93e"/>
      <path id="Path_3497" data-name="Path 3497" d="M429.225,1565.882c-.505.111-1.8-1.133-2.068-2.34a1.973,1.973,0,0,1,.874-2.269c.934-.336,1.622.965,1.886,2.171S429.731,1565.771,429.225,1565.882Z" transform="translate(-407.561 -1556.752)" fill="#ffd599"/>
    </g>
    <g id="Group_9812" data-name="Group 9812" transform="translate(383.894 1599.567)">
      <path id="Path_3498" data-name="Path 3498" d="M412.377,1638.17s-.953-1.157-1.465-1.319-1.5-.93-1.633-.613.667.8.624,1.166-2.53.942-2.515,1.325a1.471,1.471,0,0,0,1.535,1.2c.949-.106,3.356-.678,3.85-.431S412.377,1638.17,412.377,1638.17Z" transform="translate(-407.387 -1609.151)" fill="#ffb27d"/>
      <path id="Path_3499" data-name="Path 3499" d="M429.774,1712.21h10.284c.737-.5-.2-5.384-.2-5.384s-2.807-1.064-3.292,1.1-3.574,2.853-5.209,3.116A1.76,1.76,0,0,0,429.774,1712.21Z" transform="translate(-409.46 -1615.671)" fill="#233862"/>
      <path id="Path_3500" data-name="Path 3500" d="M432.823,1657.782s.462,5.767,1.005,12.7c.739,9.417,2.73,32.764,2.73,32.764s1.3,1.114,4.2.5a91.458,91.458,0,0,0,3.2-17.247c.011-.151.023-.3.034-.455.685-9.359,1.75-29.065,1.75-29.065Z" transform="translate(-409.742 -1611.079)" fill="#6bb7bf"/>
      <path id="Path_3501" data-name="Path 3501" d="M432.649,1655.668s.62,7.76,1.163,14.692l10.126,16.022c.011-.151.023-.3.034-.455.685-9.359,1.75-29.065,1.75-29.065Z" transform="translate(-409.726 -1610.957)" fill="#599dad"/>
      <path id="Path_3502" data-name="Path 3502" d="M439.474,1625.237a4.585,4.585,0,0,0,3.164.427,6.557,6.557,0,0,0,2.143-.9,6.366,6.366,0,0,0,.865-.651s-.038-.054-.1-.162a9.247,9.247,0,0,1-.888-5.875,2.284,2.284,0,0,0-.809.133c-1.457.345-4.386,1.176-4.516,1.213h0s-.036.688-.157,1.922c-.01.108-.021.222-.033.339-.015.145-.03.3-.048.457A10.218,10.218,0,0,0,439.474,1625.237Z" transform="translate(-410.321 -1607.474)" fill="#ffb27d"/>
      <path id="Path_3503" data-name="Path 3503" d="M439.181,1621.353c2.175.5,5.422-2.713,5.422-2.713a3.371,3.371,0,0,0-.744-.422c-1.457.345-4.386,1.176-4.516,1.213h0S439.3,1620.119,439.181,1621.353Z" transform="translate(-410.331 -1607.489)" fill="#ed975d"/>
      <path id="Path_3504" data-name="Path 3504" d="M438.305,1618.451a11.034,11.034,0,0,0,2.034.475c1.668.225,3.861.092,4.55-1.926,1.161-3.4,2.642-5.433-.772-6.819-1.827-.743-3-.782-3.791-.5a2.75,2.75,0,0,0-1.406,1.217C438.258,1611.938,436.924,1617.857,438.305,1618.451Z" transform="translate(-410.194 -1606.684)" fill="#ffb27d"/>
      <g id="Group_9810" data-name="Group 9810" transform="translate(25.87 42.711)">
        <path id="Path_3505" data-name="Path 3505" d="M464.835,1703.268a4.594,4.594,0,0,1,.018,5.275,1.955,1.955,0,0,1-.893.967,3.626,3.626,0,0,0-1.993,2.214h4.573s1.924-3.855,3.293-4.416c1.188-.486,1.182-2.435-.191-3.2a10.605,10.605,0,0,1-1.908-2.466Z" transform="translate(-438.311 -1657.925)" fill="#233862"/>
        <path id="Path_3506" data-name="Path 3506" d="M435.9,1655.475s7.941,24.159,12.161,27.51,14.518,16.876,14.518,16.876,2.978-1.365,3.474-2.73c0,0-7.755-17.775-11.479-19.169-3.3-1.233-.93-20.422-7.646-23.766C442.493,1651.99,435.9,1655.475,435.9,1655.475Z" transform="translate(-435.897 -1653.464)" fill="#6bb7bf"/>
      </g>
      <path id="Path_3507" data-name="Path 3507" d="M436.083,1610.877c1.977,1.421,4.712.025,5.562.4s1,1.8,1.017,2.254.075.835,1.229.564a.558.558,0,0,1,.418.025c.478.284-.132,1.66-.318,1.957,0,0-.265.985.324,1.465.071.057,1.228.563,4.016-3.7a3.963,3.963,0,0,0,.18-3.631c-.676-1.452-3.5-2.856-5.9-3.6a3.206,3.206,0,0,0-2.084-.077,3.772,3.772,0,0,0-1.791,1.963A7.513,7.513,0,0,1,436.083,1610.877Z" transform="translate(-410.044 -1606.394)" fill="#a9453d"/>
      <path id="Path_3508" data-name="Path 3508" d="M438.508,1631.412c4.362-5.86-1.371-8.337-4.524-7.213a8.976,8.976,0,0,0-4.684,3.9,36.156,36.156,0,0,1-6.01,7.2v0l0,0-10.81.946-.064,2.208c.171.49,8.147,1.173,10.152,1.816C422.566,1640.26,432.638,1639.3,438.508,1631.412Z" transform="translate(-407.852 -1608.019)" fill="#f99746"/>
      <path id="Path_3509" data-name="Path 3509" d="M433.12,1653.149a32.627,32.627,0,0,0,9.472,1.558,23.711,23.711,0,0,0,3.619-.387c1.21-.2,2.167-.412,2.167-.412,1.036-.24,2.181-.879,2.027-2.062-.465-3.591-.164-13-.4-18.871a3.165,3.165,0,0,1,.717-1.948l0,0c.12-.131-.967-6.078-2.158-7.189-.69-.642-3.886-.972-4.13-.92-.073-.015-.145-.033-.221-.045,0,0-3.383,1.836-5.841.454,0,0-3.589.828-4.62,1.918a9.59,9.59,0,0,0-1.817,5.217c-.054,3.531.083,7.544.083,7.545C431.768,1641.849,430.461,1653.149,433.12,1653.149Z" transform="translate(-409.618 -1607.92)" fill="#f99746"/>
      <path id="Path_3510" data-name="Path 3510" d="M445.092,1622.926s-3.664,3.779-6.284,3c0,0-.348-.51.831-.673S442.093,1625.16,445.092,1622.926Z" transform="translate(-410.292 -1607.925)" fill="#ed7d2b"/>
      <path id="Path_3511" data-name="Path 3511" d="M447.274,1655.153c1.21-.2,2.167-.412,2.167-.412,1.036-.24,2.181-.879,2.027-2.062-.465-3.591-.164-13-.4-18.871a3.165,3.165,0,0,1,.717-1.948c-1.142,1.009-4.25,4.207-6.56,6.593C442.014,1641.766,441.777,1647.806,447.274,1655.153Z" transform="translate(-410.68 -1608.753)" fill="#ed7d2b"/>
      <path id="Path_3512" data-name="Path 3512" d="M438.338,1616.947s-.072.439.951.79c0,0,.858.294,1.014-.156A2.91,2.91,0,0,0,438.338,1616.947Z" transform="translate(-410.253 -1607.371)" fill="#fff"/>
      <g id="Group_9811" data-name="Group 9811" transform="translate(26.404 30.787)">
        <path id="Path_3513" data-name="Path 3513" d="M436.8,1647.806l.861-.129c.33-.093.583-.24.593-.559l.05-1.68a.622.622,0,0,0-.413-.612,1.786,1.786,0,0,1-1.377-1.976s.474-2.455.485-2.528l3.169.1c.006.073.39,2.554.39,2.554.189.94-.665,1.671-1.509,1.894a.572.572,0,0,0-.432.534l-.051,1.7c-.01.332.228.491.583.62l.819.189c.064,0,.067.081,0,.078l-3.176-.1C436.732,1647.891,436.735,1647.835,436.8,1647.806Z" transform="translate(-436.486 -1640.323)" fill="#7693ce"/>
        <path id="Path_3514" data-name="Path 3514" d="M436.673,1643.366a1.839,1.839,0,0,0,1.827,1.451,1.958,1.958,0,0,0,1.942-1.374,1.289,1.289,0,0,0,.016-.469,3.143,3.143,0,0,0-.085-.393c-.014-.049-.347-2.167-.347-2.167l-2.877-.087-.448,2.278a.933.933,0,0,0-.021.108l-.009.04h0c-.005.036-.012.071-.016.107A1.834,1.834,0,0,0,436.673,1643.366Z" transform="translate(-436.501 -1640.323)" fill="#ebf3fa"/>
        <path id="Path_3515" data-name="Path 3515" d="M436.676,1643.674a1.839,1.839,0,0,0,1.827,1.451,1.958,1.958,0,0,0,1.942-1.374,7.785,7.785,0,0,0-2.1-.045A6.362,6.362,0,0,1,436.676,1643.674Z" transform="translate(-436.503 -1640.631)" fill="#c94c43"/>
        <path id="Path_3516" data-name="Path 3516" d="M439.878,1643.429a1.29,1.29,0,0,0,.015-.469,3.154,3.154,0,0,0-.084-.393c-.015-.049-.347-2.168-.347-2.168l.363.011s.333,2.119.347,2.168a3.149,3.149,0,0,1,.084.393,1.289,1.289,0,0,1-.015.469,1.958,1.958,0,0,1-1.942,1.374c-.064,0-.125-.007-.188-.015A1.944,1.944,0,0,0,439.878,1643.429Z" transform="translate(-436.636 -1640.33)" fill="#fff" opacity="0.7"/>
      </g>
      <path id="Path_3517" data-name="Path 3517" d="M441.862,1646.256s-2.932-1.3-3.677-.882-1.675,1.861-1.256,2.419,5.119,0,5.119,0Z" transform="translate(-410.113 -1609.996)" fill="#ffb27d"/>
      <path id="Path_3518" data-name="Path 3518" d="M460.152,1644.39c-5.018-17.861-10.686-20.454-10.686-20.454s-2.684,4.2-2.912,6.618c-.183,1.957,5.379,8.911,7.756,11.361h0s-11.234,1.389-11.753,1.669a2.576,2.576,0,0,0-1.265,2.73s13.519.457,15.634.295C460.369,1646.343,460.152,1644.39,460.152,1644.39Z" transform="translate(-410.52 -1608.019)" fill="#f99746"/>
    </g>
    <path id="Path_3519" data-name="Path 3519" d="M272.51,1582.811,270.5,1595.6a9.831,9.831,0,0,1-2.353-.462,13.994,13.994,0,0,1-6.746-5.167Z" transform="translate(-9.973 -4.643)" fill="#f99746"/>
    <path id="Path_3520" data-name="Path 3520" d="M268.148,1595.14a13.994,13.994,0,0,1-6.746-5.167l11.108-7.162S267.06,1588.693,268.148,1595.14Z" transform="translate(-9.973 -4.643)" fill="#ed7d2b"/>
    <g id="Group_9813" data-name="Group 9813" transform="translate(412.945 1591.331)">
      <path id="Path_3521" data-name="Path 3521" d="M448.04,1608.4a15.665,15.665,0,0,1-2.114.194c-4.378.149-6.522-1.549-6.522-1.549l6.269-9.724Z" transform="translate(-439.403 -1597.317)" fill="#f99746"/>
      <path id="Path_3522" data-name="Path 3522" d="M445.925,1608.59c-4.378.149-6.522-1.549-6.522-1.549l6.269-9.724S444.779,1605.254,445.925,1608.59Z" transform="translate(-439.403 -1597.317)" fill="#ed7d2b"/>
    </g>
    <g id="Group_9814" data-name="Group 9814" transform="translate(181.939 1607.449)">
      <path id="Path_3523" data-name="Path 3523" d="M184.82,1632.089l.567.3,6.367-13.082h0Z" transform="translate(-184.82 -1615.471)" fill="#f99746"/>
      <path id="Path_3524" data-name="Path 3524" d="M192.178,1617.155s1.293.5,1.857-.545c0,0-.67,1.224.212,1.753a1.485,1.485,0,0,0-1.811.691S193.151,1617.864,192.178,1617.155Z" transform="translate(-185.501 -1615.222)" fill="#ffb93e"/>
      <path id="Path_3525" data-name="Path 3525" d="M192.7,1616.629s-.113-.864-.541-.9S192.562,1616.239,192.7,1616.629Z" transform="translate(-185.489 -1615.14)" fill="#ffb93e"/>
      <path id="Path_3526" data-name="Path 3526" d="M191.96,1617.911s-.852-.183-1.034.206S191.546,1617.911,191.96,1617.911Z" transform="translate(-185.383 -1615.338)" fill="#ffb93e"/>
      <path id="Path_3527" data-name="Path 3527" d="M194.6,1617.683s1.255-.08,1.208.211S195.1,1617.693,194.6,1617.683Z" transform="translate(-185.726 -1615.32)" fill="#ffb93e"/>
      <path id="Path_3528" data-name="Path 3528" d="M193.7,1619.431s.961.811.725.989S194.05,1619.781,193.7,1619.431Z" transform="translate(-185.642 -1615.483)" fill="#ffb93e"/>
      <path id="Path_3529" data-name="Path 3529" d="M193.857,1616.31s.1-1.358-.245-1.221S193.821,1615.978,193.857,1616.31Z" transform="translate(-185.624 -1615.08)" fill="#ffb93e"/>
      <path id="Path_3530" data-name="Path 3530" d="M194.515,1616.529s.708-.935.852-.72S194.515,1616.529,194.515,1616.529Z" transform="translate(-185.718 -1615.145)" fill="#ffb93e"/>
    </g>
    <path id="Path_3531" data-name="Path 3531" d="M188.029,1628.469a3.438,3.438,0,0,1-2.606,0v-.074c0-.774,1.579-2.383,2.889-2.442a.715.715,0,0,1,.358.089C188.744,1626.593,188.848,1627.993,188.029,1628.469Z" transform="translate(-2.937 -8.638)" fill="#ffb27d"/>
  </g>
</svg>
