<svg xmlns="http://www.w3.org/2000/svg" class="bk-icon -streamline-sports_golf" viewBox="0 0 24 24" role="presentation" aria-hidden="true" focusable="false"><path d="M6 11.019V.75l-1.085.67L9.13 3.53a.236.236 0 0 1-.001-.422l-1.965.982a.75.75 0 0 0 .67 1.342l1.966-.983a1.264 1.264 0 0 0 .001-2.26L5.585.079A.75.75 0 0 0 4.5.75v10.269a.75.75 0 0 0 1.5 0zm16.506-5.116l-2.165 16.6h-2.716a1.125 1.125 0 0 1 0-2.25c.535 0 1.051.201 1.445.564l1.623 1.487a.75.75 0 1 0 1.014-1.106l-1.622-1.486a3.632 3.632 0 0 0-2.46-.959 2.625 2.625 0 0 0 0 5.25h2.717a1.5 1.5 0 0 0 1.487-1.306l2.165-16.6a.75.75 0 1 0-1.488-.194zM12 21a.75.75 0 1 1-1.5 0 .75.75 0 0 1 1.5 0zm1.5 0A2.25 2.25 0 1 0 9 21a2.25 2.25 0 0 0 4.5 0zM8.204 9.022c3.054.187 5.296 1.57 5.296 2.978 0 1.538-2.631 3-6 3s-6-1.462-6-3c.055-.68.475-1.34 1.12-1.704a.75.75 0 0 0-.74-1.306 3.721 3.721 0 0 0-1.878 2.952C0 14.604 3.412 16.5 7.5 16.5c4.087 0 7.5-1.896 7.5-4.5 0-2.42-2.96-4.246-6.704-4.476a.75.75 0 1 0-.092 1.498z"/></svg>