<svg xmlns="http://www.w3.org/2000/svg" class="bk-icon -streamline-briefcase" viewBox="0 0 24 24" role="presentation" aria-hidden="true" focusable="false"><path d="M9.75 12.75H1.728a.228.228 0 0 1-.228-.228V6.456c0-.666.54-1.206 1.206-1.206h18.587c.666 0 1.207.54 1.207 1.206v6.066a.228.228 0 0 1-.228.228H14.25a.75.75 0 0 0 0 1.5h8.022c.954 0 1.728-.774 1.728-1.728V6.456a2.707 2.707 0 0 0-2.707-2.706H2.706A2.706 2.706 0 0 0 0 6.456v6.066c0 .954.774 1.728 1.728 1.728H9.75a.75.75 0 0 0 0-1.5zm6.75-9h-9l.75.75v-.938c.04-1.166 1.036-2.1 2.227-2.062H13.5a2.166 2.166 0 0 1 2.25 2.087V4.5l.75-.75zm0 1.5a.75.75 0 0 0 .75-.75v-.938A3.665 3.665 0 0 0 13.476 0H10.5C8.506-.062 6.818 1.52 6.75 3.537V4.5c0 .414.336.75.75.75h9zm-6 4.5a1.5 1.5 0 0 0-1.5 1.5v2.25a3 3 0 1 0 6 0v-2.25a1.5 1.5 0 0 0-1.5-1.5h-3zm0 1.5h3v2.25a1.5 1.5 0 0 1-3 0v-2.25zm10.509 2.364l1.234 8.022a.75.75 0 0 1-.742.864H2.5a.75.75 0 0 1-.74-.864l1.231-8.022a.75.75 0 1 0-1.482-.228L.277 21.408A2.248 2.248 0 0 0 2.5 24h19a2.25 2.25 0 0 0 2.225-2.592l-1.234-8.022a.75.75 0 0 0-1.482.228z"/></svg>