<svg xmlns="http://www.w3.org/2000/svg" class="bk-icon -streamline-tea_maker" fill="currentColor" size="medium" viewBox="0 0 24 24"><path d="M.75 24h22.5a.75.75 0 0 0 0-1.5H.75a.75.75 0 0 0 0 1.5zM24 2.25A2.25 2.25 0 0 0 21.75 0H4.5a2.25 2.25 0 0 0-2.25 2.25v6A2.25 2.25 0 0 0 4.5 10.5H12a.75.75 0 0 1 .75.75v12c0 .414.336.75.75.75h9.75a.75.75 0 0 0 .75-.75v-21zm-1.5 0v21l.75-.75H13.5l.75.75v-12A2.25 2.25 0 0 0 12 9H4.5a.75.75 0 0 1-.75-.75v-6a.75.75 0 0 1 .75-.75h17.25a.75.75 0 0 1 .75.75zM18.75 24h4.5a.75.75 0 0 0 .75-.75v-10.5a.75.75 0 0 0-.75-.75h-3A2.25 2.25 0 0 0 18 14.25v9c0 .414.336.75.75.75zm0-1.5l.75.75v-9a.75.75 0 0 1 .75-.75h3l-.75-.75v10.5l.75-.75h-4.5zM6 9.75v3a.75.75 0 0 0 1.5 0v-3a.75.75 0 0 0-1.5 0zm2.25-4.5a.75.75 0 1 1-1.5 0 .75.75 0 0 1 1.5 0zm1.5 0a2.25 2.25 0 1 0-4.5 0 2.25 2.25 0 0 0 4.5 0zm13.5-.75h-4.5a.75.75 0 0 0 0 1.5h4.5a.75.75 0 0 0 0-1.5zm0 3h-4.5a.75.75 0 0 0 0 1.5h4.5a.75.75 0 0 0 0-1.5zM2.344 18c0 .866.012 1.295.069 1.833C2.69 22.437 4.003 24 6.844 24c2.234 0 3.38-1.189 3.977-3.297.057-.203.11-.411.168-.66l.136-.599c.029-.126.054-.228.077-.32a1.5 1.5 0 0 0-1.454-1.874H3.094a.75.75 0 0 0-.75.75zm1.5 0l-.75.75h6.655c-.027.107-.054.22-.086.357l-.135.595c-.053.229-.1.415-.15.592-.434 1.53-1.085 2.206-2.534 2.206-1.97 0-2.736-.912-2.94-2.825-.05-.47-.06-.861-.06-1.675zm-.75-.75a3 3 0 0 0-3 3 .75.75 0 0 0 1.5 0 1.5 1.5 0 0 1 1.5-1.5.75.75 0 0 0 0-1.5z"/></svg>