<svg xmlns="http://www.w3.org/2000/svg" class="bk-icon -streamline-pool" viewBox="0 0 24 24" role="presentation" aria-hidden="true" focusable="false"><path d="M23.097 21.71c-.896.187-1.71-.114-2.442-.76a4.629 4.629 0 0 1-.74-.837.75.75 0 0 0-1.272-.004 3.557 3.557 0 0 1-2.925 1.661 2.98 2.98 0 0 1-2.559-1.608.75.75 0 0 0-1.26-.11 4.418 4.418 0 0 1-3.286 1.719c-1.121-.058-2.216-.68-2.876-1.677a.75.75 0 0 0-1.214-.05 6.17 6.17 0 0 1-1.125 1.033c-.833.588-1.677.85-2.49.675a.75.75 0 1 0-.315 1.466c1.285.276 2.526-.107 3.67-.915a7.084 7.084 0 0 0 1.438-1.33l-1.214-.05a5.257 5.257 0 0 0 4.126 2.346c1.807-.084 3.417-.926 4.476-2.303l-1.26-.11a4.49 4.49 0 0 0 3.892 2.414 5.07 5.07 0 0 0 4.192-2.361l-1.272-.004c.192.308.533.739 1.022 1.17 1.057.931 2.32 1.4 3.74 1.104a.75.75 0 0 0-.306-1.468zm0-4.5c-.896.187-1.71-.114-2.442-.76a4.629 4.629 0 0 1-.74-.837.75.75 0 0 0-1.272-.004 3.557 3.557 0 0 1-2.925 1.661 2.98 2.98 0 0 1-2.559-1.608.75.75 0 0 0-1.26-.11 4.418 4.418 0 0 1-3.286 1.719c-1.121-.058-2.216-.68-2.876-1.677a.75.75 0 0 0-1.214-.05 6.17 6.17 0 0 1-1.125 1.033c-.833.588-1.677.85-2.49.675a.75.75 0 1 0-.315 1.466c1.285.276 2.526-.107 3.67-.915a7.084 7.084 0 0 0 1.438-1.33l-1.214-.05a5.257 5.257 0 0 0 4.126 2.346c1.807-.084 3.417-.926 4.476-2.303l-1.26-.11a4.49 4.49 0 0 0 3.892 2.414 5.07 5.07 0 0 0 4.192-2.361l-1.272-.004c.192.308.533.739 1.022 1.17 1.057.931 2.32 1.4 3.74 1.104a.75.75 0 0 0-.306-1.468zm-1.722-8.64a1.875 1.875 0 1 1-3.75 0 1.875 1.875 0 0 1 3.75 0zm1.5 0a3.375 3.375 0 1 0-6.75 0 3.375 3.375 0 0 0 6.75 0zM7.777 14.636l3.831-2.4a.75.75 0 0 0 .166-1.13L8.964 7.9a2.25 2.25 0 0 1 .687-3.494l4.264-2.135a.751.751 0 1 1 .686 1.333l-.01.006-3.405 1.702a1.502 1.502 0 0 0-.448 2.334l5.375 6.142a.75.75 0 1 0 1.128-.988l-5.377-6.145-.002-.003v-.001l3.394-1.697.027-.013A2.25 2.25 0 0 0 13.238.93L8.98 3.065a3.749 3.749 0 0 0-1.144 5.824l2.81 3.206.166-1.13-3.831 2.4a.75.75 0 0 0 .796 1.272z"/></svg>