<svg xmlns="http://www.w3.org/2000/svg" width="295.002" height="295.001" viewBox="0 0 295.002 295.001">
  <path id="Union_2" data-name="Union 2" d="M10191.1-6112.951a4.953,4.953,0,0,1,4.953-4.95,4.954,4.954,0,0,1,4.951,4.95,4.955,4.955,0,0,1-4.951,4.952A4.954,4.954,0,0,1,10191.1-6112.951Zm-35.637,0a4.953,4.953,0,0,1,4.951-4.95,4.953,4.953,0,0,1,4.951,4.95,4.954,4.954,0,0,1-4.951,4.952A4.954,4.954,0,0,1,10155.461-6112.951Zm-35.637,0a4.953,4.953,0,0,1,4.951-4.95,4.953,4.953,0,0,1,4.951,4.95,4.954,4.954,0,0,1-4.951,4.952A4.954,4.954,0,0,1,10119.824-6112.951Zm-35.639,0a4.954,4.954,0,0,1,4.951-4.95,4.953,4.953,0,0,1,4.953,4.95,4.954,4.954,0,0,1-4.953,4.952A4.955,4.955,0,0,1,10084.186-6112.951Zm-35.637,0a4.953,4.953,0,0,1,4.951-4.95,4.952,4.952,0,0,1,4.951,4.95,4.953,4.953,0,0,1-4.951,4.952A4.954,4.954,0,0,1,10048.549-6112.951Zm-35.637,0a4.953,4.953,0,0,1,4.951-4.95,4.953,4.953,0,0,1,4.951,4.95,4.954,4.954,0,0,1-4.951,4.952A4.954,4.954,0,0,1,10012.912-6112.951Zm-35.637,0a4.951,4.951,0,0,1,4.949-4.95,4.952,4.952,0,0,1,4.951,4.95,4.953,4.953,0,0,1-4.951,4.952A4.952,4.952,0,0,1,9977.275-6112.951Zm-35.637,0a4.951,4.951,0,0,1,4.949-4.95,4.952,4.952,0,0,1,4.951,4.95,4.953,4.953,0,0,1-4.951,4.952A4.952,4.952,0,0,1,9941.639-6112.951Zm-35.639,0a4.953,4.953,0,0,1,4.949-4.95,4.953,4.953,0,0,1,4.953,4.95,4.954,4.954,0,0,1-4.953,4.952A4.954,4.954,0,0,1,9906-6112.951Zm285.1-35.638a4.953,4.953,0,0,1,4.953-4.95,4.954,4.954,0,0,1,4.951,4.95,4.955,4.955,0,0,1-4.951,4.952A4.954,4.954,0,0,1,10191.1-6148.588Zm-35.637,0a4.953,4.953,0,0,1,4.951-4.95,4.953,4.953,0,0,1,4.951,4.95,4.954,4.954,0,0,1-4.951,4.952A4.954,4.954,0,0,1,10155.461-6148.588Zm-35.637,0a4.953,4.953,0,0,1,4.951-4.95,4.953,4.953,0,0,1,4.951,4.95,4.954,4.954,0,0,1-4.951,4.952A4.954,4.954,0,0,1,10119.824-6148.588Zm-35.639,0a4.954,4.954,0,0,1,4.951-4.95,4.953,4.953,0,0,1,4.953,4.95,4.954,4.954,0,0,1-4.953,4.952A4.955,4.955,0,0,1,10084.186-6148.588Zm-35.637,0a4.953,4.953,0,0,1,4.951-4.95,4.952,4.952,0,0,1,4.951,4.95,4.953,4.953,0,0,1-4.951,4.952A4.954,4.954,0,0,1,10048.549-6148.588Zm-35.637,0a4.953,4.953,0,0,1,4.951-4.95,4.953,4.953,0,0,1,4.951,4.95,4.954,4.954,0,0,1-4.951,4.952A4.954,4.954,0,0,1,10012.912-6148.588Zm-35.637,0a4.951,4.951,0,0,1,4.949-4.95,4.952,4.952,0,0,1,4.951,4.95,4.953,4.953,0,0,1-4.951,4.952A4.952,4.952,0,0,1,9977.275-6148.588Zm-35.637,0a4.951,4.951,0,0,1,4.949-4.95,4.952,4.952,0,0,1,4.951,4.95,4.953,4.953,0,0,1-4.951,4.952A4.952,4.952,0,0,1,9941.639-6148.588Zm-35.639,0a4.953,4.953,0,0,1,4.949-4.95,4.953,4.953,0,0,1,4.953,4.95,4.954,4.954,0,0,1-4.953,4.952A4.954,4.954,0,0,1,9906-6148.588Zm285.1-35.637a4.954,4.954,0,0,1,4.953-4.951,4.955,4.955,0,0,1,4.951,4.951,4.955,4.955,0,0,1-4.951,4.951A4.954,4.954,0,0,1,10191.1-6184.225Zm-35.637,0a4.954,4.954,0,0,1,4.951-4.951,4.954,4.954,0,0,1,4.951,4.951,4.954,4.954,0,0,1-4.951,4.951A4.954,4.954,0,0,1,10155.461-6184.225Zm-35.637,0a4.954,4.954,0,0,1,4.951-4.951,4.954,4.954,0,0,1,4.951,4.951,4.954,4.954,0,0,1-4.951,4.951A4.954,4.954,0,0,1,10119.824-6184.225Zm-35.639,0a4.955,4.955,0,0,1,4.951-4.951,4.954,4.954,0,0,1,4.953,4.951,4.954,4.954,0,0,1-4.953,4.951A4.955,4.955,0,0,1,10084.186-6184.225Zm-35.637,0a4.954,4.954,0,0,1,4.951-4.951,4.953,4.953,0,0,1,4.951,4.951,4.953,4.953,0,0,1-4.951,4.951A4.954,4.954,0,0,1,10048.549-6184.225Zm-35.637,0a4.954,4.954,0,0,1,4.951-4.951,4.954,4.954,0,0,1,4.951,4.951,4.954,4.954,0,0,1-4.951,4.951A4.954,4.954,0,0,1,10012.912-6184.225Zm-35.637,0a4.952,4.952,0,0,1,4.949-4.951,4.953,4.953,0,0,1,4.951,4.951,4.953,4.953,0,0,1-4.951,4.951A4.952,4.952,0,0,1,9977.275-6184.225Zm-35.637,0a4.952,4.952,0,0,1,4.949-4.951,4.953,4.953,0,0,1,4.951,4.951,4.953,4.953,0,0,1-4.951,4.951A4.952,4.952,0,0,1,9941.639-6184.225Zm-35.639,0a4.953,4.953,0,0,1,4.949-4.951,4.954,4.954,0,0,1,4.953,4.951,4.954,4.954,0,0,1-4.953,4.951A4.953,4.953,0,0,1,9906-6184.225Zm285.1-35.637a4.954,4.954,0,0,1,4.953-4.952,4.955,4.955,0,0,1,4.951,4.952,4.954,4.954,0,0,1-4.951,4.95A4.953,4.953,0,0,1,10191.1-6219.862Zm-35.637,0a4.954,4.954,0,0,1,4.951-4.952,4.954,4.954,0,0,1,4.951,4.952,4.953,4.953,0,0,1-4.951,4.95A4.953,4.953,0,0,1,10155.461-6219.862Zm-35.637,0a4.954,4.954,0,0,1,4.951-4.952,4.954,4.954,0,0,1,4.951,4.952,4.953,4.953,0,0,1-4.951,4.95A4.953,4.953,0,0,1,10119.824-6219.862Zm-35.639,0a4.955,4.955,0,0,1,4.951-4.952,4.954,4.954,0,0,1,4.953,4.952,4.953,4.953,0,0,1-4.953,4.95A4.954,4.954,0,0,1,10084.186-6219.862Zm-35.637,0a4.954,4.954,0,0,1,4.951-4.952,4.953,4.953,0,0,1,4.951,4.952,4.952,4.952,0,0,1-4.951,4.95A4.953,4.953,0,0,1,10048.549-6219.862Zm-35.637,0a4.954,4.954,0,0,1,4.951-4.952,4.954,4.954,0,0,1,4.951,4.952,4.953,4.953,0,0,1-4.951,4.95A4.953,4.953,0,0,1,10012.912-6219.862Zm-35.637,0a4.952,4.952,0,0,1,4.949-4.952,4.953,4.953,0,0,1,4.951,4.952,4.952,4.952,0,0,1-4.951,4.95A4.951,4.951,0,0,1,9977.275-6219.862Zm-35.637,0a4.952,4.952,0,0,1,4.949-4.952,4.953,4.953,0,0,1,4.951,4.952,4.952,4.952,0,0,1-4.951,4.95A4.951,4.951,0,0,1,9941.639-6219.862Zm-35.639,0a4.954,4.954,0,0,1,4.949-4.952,4.954,4.954,0,0,1,4.953,4.952,4.953,4.953,0,0,1-4.953,4.95A4.953,4.953,0,0,1,9906-6219.862Zm285.1-35.638a4.954,4.954,0,0,1,4.953-4.951,4.955,4.955,0,0,1,4.951,4.951,4.954,4.954,0,0,1-4.951,4.951A4.954,4.954,0,0,1,10191.1-6255.5Zm-35.637,0a4.954,4.954,0,0,1,4.951-4.951,4.954,4.954,0,0,1,4.951,4.951,4.953,4.953,0,0,1-4.951,4.951A4.953,4.953,0,0,1,10155.461-6255.5Zm-35.637,0a4.954,4.954,0,0,1,4.951-4.951,4.954,4.954,0,0,1,4.951,4.951,4.953,4.953,0,0,1-4.951,4.951A4.953,4.953,0,0,1,10119.824-6255.5Zm-35.639,0a4.955,4.955,0,0,1,4.951-4.951,4.954,4.954,0,0,1,4.953,4.951,4.954,4.954,0,0,1-4.953,4.951A4.954,4.954,0,0,1,10084.186-6255.5Zm-35.637,0a4.954,4.954,0,0,1,4.951-4.951,4.953,4.953,0,0,1,4.951,4.951,4.952,4.952,0,0,1-4.951,4.951A4.953,4.953,0,0,1,10048.549-6255.5Zm-35.637,0a4.954,4.954,0,0,1,4.951-4.951,4.954,4.954,0,0,1,4.951,4.951,4.953,4.953,0,0,1-4.951,4.951A4.953,4.953,0,0,1,10012.912-6255.5Zm-35.637,0a4.952,4.952,0,0,1,4.949-4.951,4.953,4.953,0,0,1,4.951,4.951,4.952,4.952,0,0,1-4.951,4.951A4.951,4.951,0,0,1,9977.275-6255.5Zm-35.637,0a4.952,4.952,0,0,1,4.949-4.951,4.953,4.953,0,0,1,4.951,4.951,4.952,4.952,0,0,1-4.951,4.951A4.951,4.951,0,0,1,9941.639-6255.5Zm-35.639,0a4.953,4.953,0,0,1,4.949-4.951,4.954,4.954,0,0,1,4.953,4.951,4.954,4.954,0,0,1-4.953,4.951A4.953,4.953,0,0,1,9906-6255.5Zm285.1-35.638a4.954,4.954,0,0,1,4.953-4.951,4.955,4.955,0,0,1,4.951,4.951,4.954,4.954,0,0,1-4.951,4.951A4.954,4.954,0,0,1,10191.1-6291.137Zm-35.637,0a4.954,4.954,0,0,1,4.951-4.951,4.954,4.954,0,0,1,4.951,4.951,4.953,4.953,0,0,1-4.951,4.951A4.953,4.953,0,0,1,10155.461-6291.137Zm-35.637,0a4.954,4.954,0,0,1,4.951-4.951,4.954,4.954,0,0,1,4.951,4.951,4.953,4.953,0,0,1-4.951,4.951A4.953,4.953,0,0,1,10119.824-6291.137Zm-35.639,0a4.955,4.955,0,0,1,4.951-4.951,4.954,4.954,0,0,1,4.953,4.951,4.954,4.954,0,0,1-4.953,4.951A4.954,4.954,0,0,1,10084.186-6291.137Zm-35.637,0a4.954,4.954,0,0,1,4.951-4.951,4.953,4.953,0,0,1,4.951,4.951,4.952,4.952,0,0,1-4.951,4.951A4.953,4.953,0,0,1,10048.549-6291.137Zm-35.637,0a4.954,4.954,0,0,1,4.951-4.951,4.954,4.954,0,0,1,4.951,4.951,4.953,4.953,0,0,1-4.951,4.951A4.953,4.953,0,0,1,10012.912-6291.137Zm-35.637,0a4.952,4.952,0,0,1,4.949-4.951,4.953,4.953,0,0,1,4.951,4.951,4.952,4.952,0,0,1-4.951,4.951A4.951,4.951,0,0,1,9977.275-6291.137Zm-35.637,0a4.952,4.952,0,0,1,4.949-4.951,4.953,4.953,0,0,1,4.951,4.951,4.952,4.952,0,0,1-4.951,4.951A4.951,4.951,0,0,1,9941.639-6291.137Zm-35.639,0a4.953,4.953,0,0,1,4.949-4.951,4.954,4.954,0,0,1,4.953,4.951,4.954,4.954,0,0,1-4.953,4.951A4.953,4.953,0,0,1,9906-6291.137Zm285.1-35.637a4.954,4.954,0,0,1,4.953-4.952,4.955,4.955,0,0,1,4.951,4.952,4.955,4.955,0,0,1-4.951,4.951A4.954,4.954,0,0,1,10191.1-6326.774Zm-35.637,0a4.954,4.954,0,0,1,4.951-4.952,4.954,4.954,0,0,1,4.951,4.952,4.954,4.954,0,0,1-4.951,4.951A4.954,4.954,0,0,1,10155.461-6326.774Zm-35.637,0a4.954,4.954,0,0,1,4.951-4.952,4.954,4.954,0,0,1,4.951,4.952,4.954,4.954,0,0,1-4.951,4.951A4.954,4.954,0,0,1,10119.824-6326.774Zm-35.639,0a4.955,4.955,0,0,1,4.951-4.952,4.954,4.954,0,0,1,4.953,4.952,4.954,4.954,0,0,1-4.953,4.951A4.955,4.955,0,0,1,10084.186-6326.774Zm-35.637,0a4.954,4.954,0,0,1,4.951-4.952,4.953,4.953,0,0,1,4.951,4.952,4.953,4.953,0,0,1-4.951,4.951A4.954,4.954,0,0,1,10048.549-6326.774Zm-35.637,0a4.954,4.954,0,0,1,4.951-4.952,4.954,4.954,0,0,1,4.951,4.952,4.954,4.954,0,0,1-4.951,4.951A4.954,4.954,0,0,1,10012.912-6326.774Zm-35.637,0a4.952,4.952,0,0,1,4.949-4.952,4.953,4.953,0,0,1,4.951,4.952,4.953,4.953,0,0,1-4.951,4.951A4.952,4.952,0,0,1,9977.275-6326.774Zm-35.637,0a4.952,4.952,0,0,1,4.949-4.952,4.953,4.953,0,0,1,4.951,4.952,4.953,4.953,0,0,1-4.951,4.951A4.952,4.952,0,0,1,9941.639-6326.774Zm-35.639,0a4.954,4.954,0,0,1,4.949-4.952,4.954,4.954,0,0,1,4.953,4.952,4.954,4.954,0,0,1-4.953,4.951A4.953,4.953,0,0,1,9906-6326.774Zm285.1-35.638a4.954,4.954,0,0,1,4.953-4.951,4.954,4.954,0,0,1,4.951,4.951,4.951,4.951,0,0,1-4.951,4.946A4.95,4.95,0,0,1,10191.1-6362.412Zm-35.637,0a4.953,4.953,0,0,1,4.951-4.951,4.953,4.953,0,0,1,4.951,4.951,4.95,4.95,0,0,1-4.951,4.946A4.95,4.95,0,0,1,10155.461-6362.412Zm-35.637,0a4.953,4.953,0,0,1,4.951-4.951,4.953,4.953,0,0,1,4.951,4.951,4.95,4.95,0,0,1-4.951,4.946A4.95,4.95,0,0,1,10119.824-6362.412Zm-35.639,0a4.954,4.954,0,0,1,4.951-4.951,4.954,4.954,0,0,1,4.953,4.951,4.95,4.95,0,0,1-4.953,4.946A4.951,4.951,0,0,1,10084.186-6362.412Zm-35.637,0a4.953,4.953,0,0,1,4.951-4.951,4.952,4.952,0,0,1,4.951,4.951,4.948,4.948,0,0,1-4.951,4.946A4.95,4.95,0,0,1,10048.549-6362.412Zm-35.637,0a4.953,4.953,0,0,1,4.951-4.951,4.953,4.953,0,0,1,4.951,4.951,4.95,4.95,0,0,1-4.951,4.946A4.95,4.95,0,0,1,10012.912-6362.412Zm-35.637,0a4.951,4.951,0,0,1,4.949-4.951,4.952,4.952,0,0,1,4.951,4.951,4.948,4.948,0,0,1-4.951,4.946A4.948,4.948,0,0,1,9977.275-6362.412Zm-35.637,0a4.951,4.951,0,0,1,4.949-4.951,4.952,4.952,0,0,1,4.951,4.951,4.948,4.948,0,0,1-4.951,4.946A4.948,4.948,0,0,1,9941.639-6362.412Zm-35.639,0a4.953,4.953,0,0,1,4.949-4.951,4.954,4.954,0,0,1,4.953,4.951,4.95,4.95,0,0,1-4.953,4.946A4.949,4.949,0,0,1,9906-6362.412Zm285.1-35.638a4.953,4.953,0,0,1,4.953-4.95,4.954,4.954,0,0,1,4.951,4.95,4.951,4.951,0,0,1-4.951,4.947A4.95,4.95,0,0,1,10191.1-6398.049Zm-35.637,0a4.953,4.953,0,0,1,4.951-4.95,4.953,4.953,0,0,1,4.951,4.95,4.95,4.95,0,0,1-4.951,4.947A4.95,4.95,0,0,1,10155.461-6398.049Zm-35.637,0a4.953,4.953,0,0,1,4.951-4.95,4.953,4.953,0,0,1,4.951,4.95,4.95,4.95,0,0,1-4.951,4.947A4.95,4.95,0,0,1,10119.824-6398.049Zm-35.639,0a4.954,4.954,0,0,1,4.951-4.95,4.953,4.953,0,0,1,4.953,4.95,4.95,4.95,0,0,1-4.953,4.947A4.951,4.951,0,0,1,10084.186-6398.049Zm-35.637,0a4.953,4.953,0,0,1,4.951-4.95,4.952,4.952,0,0,1,4.951,4.95,4.949,4.949,0,0,1-4.951,4.947A4.95,4.95,0,0,1,10048.549-6398.049Zm-35.637,0a4.953,4.953,0,0,1,4.951-4.95,4.953,4.953,0,0,1,4.951,4.95,4.95,4.95,0,0,1-4.951,4.947A4.95,4.95,0,0,1,10012.912-6398.049Zm-35.637,0a4.951,4.951,0,0,1,4.949-4.95,4.952,4.952,0,0,1,4.951,4.95,4.949,4.949,0,0,1-4.951,4.947A4.948,4.948,0,0,1,9977.275-6398.049Zm-35.637,0a4.951,4.951,0,0,1,4.949-4.95,4.952,4.952,0,0,1,4.951,4.95,4.949,4.949,0,0,1-4.951,4.947A4.948,4.948,0,0,1,9941.639-6398.049Zm-35.639,0a4.953,4.953,0,0,1,4.949-4.95,4.953,4.953,0,0,1,4.953,4.95,4.95,4.95,0,0,1-4.953,4.947A4.949,4.949,0,0,1,9906-6398.049Z" transform="translate(-9906 6403)" fill="#e76f51"/>
</svg>
