<svg xmlns="http://www.w3.org/2000/svg" class="bk-icon -streamline-washer" viewBox="0 0 24 24" role="presentation" aria-hidden="true" focusable="false"><path d="M21 12v9.75a.75.75 0 0 1-.75.75H3.75a.75.75 0 0 1-.75-.75V2.25a.75.75 0 0 1 .75-.75h16.5a.75.75 0 0 1 .75.75V12zm1.5 0V2.25A2.25 2.25 0 0 0 20.25 0H3.75A2.25 2.25 0 0 0 1.5 2.25v19.5A2.25 2.25 0 0 0 3.75 24h16.5a2.25 2.25 0 0 0 2.25-2.25V12zM5.25 4.5h3a.75.75 0 0 0 0-1.5h-3a.75.75 0 0 0 0 1.5zm-3 3h19.5a.75.75 0 0 0 0-1.5H2.25a.75.75 0 0 0 0 1.5zM16.5 15a4.5 4.5 0 1 1-9 0 4.5 4.5 0 0 1 9 0zm1.5 0a6 6 0 1 0-12 0 6 6 0 0 0 12 0zm0-10.875a.375.375 0 1 1 0-.75.375.375 0 0 1 0 .75.75.75 0 0 0 0-1.5 1.125 1.125 0 1 0 0 2.25 1.125 1.125 0 0 0 0-2.25.75.75 0 0 0 0 1.5zm-4.5 0a.375.375 0 1 1 0-.75.375.375 0 0 1 0 .75.75.75 0 0 0 0-1.5 1.125 1.125 0 1 0 0 2.25 1.125 1.125 0 0 0 0-2.25.75.75 0 0 0 0 1.5zM10.5 15a1.5 1.5 0 0 1 1.5-1.5.75.75 0 0 0 0-1.5 3 3 0 0 0-3 3 .75.75 0 0 0 1.5 0z"/></svg>