<svg xmlns="http://www.w3.org/2000/svg" class="bk-icon -streamline-lock_closed" viewBox="0 0 24 24" role="presentation" aria-hidden="true" focusable="false"><path d="M19.5 16.5v5.25a.75.75 0 0 1-.75.75H5.25a.75.75 0 0 1-.75-.75v-10.5a.75.75 0 0 1 .75-.75h13.5a.75.75 0 0 1 .75.75v5.25zm1.5 0v-5.25A2.25 2.25 0 0 0 18.75 9H5.25A2.25 2.25 0 0 0 3 11.25v10.5A2.25 2.25 0 0 0 5.25 24h13.5A2.25 2.25 0 0 0 21 21.75V16.5zM7.5 9.75V6a4.5 4.5 0 0 1 9 0v3.75a.75.75 0 0 0 1.5 0V6A6 6 0 0 0 6 6v3.75a.75.75 0 0 0 1.5 0zM12 15a1.125 1.125 0 1 0 .004 0h-.006a.75.75 0 0 0 .004 1.5H12a.375.375 0 1 1 0-.75.375.375 0 0 1 0 .75.75.75 0 0 0 0-1.5z"/></svg>