<svg xmlns="http://www.w3.org/2000/svg" class="bk-icon -streamline-front_desk" viewBox="0 0 24 24" role="presentation" aria-hidden="true" focusable="false"><path d="M14.244 14.156a6.75 6.75 0 0 0-6.75-5.906A6.747 6.747 0 0 0 .73 14.397a.75.75 0 0 0 1.494.134 5.25 5.25 0 0 1 5.27-4.781 5.253 5.253 0 0 1 5.262 4.594.75.75 0 1 0 1.488-.188zM10.125 4.125a2.625 2.625 0 1 1-5.25 0V1.5h5.25v2.625zm1.5 0V1.5a1.5 1.5 0 0 0-1.5-1.5h-5.25a1.5 1.5 0 0 0-1.5 1.5v2.625a4.125 4.125 0 0 0 8.25 0zM23.25 22.5H.75l.75.75v-7.5a.75.75 0 0 1 .75-.75h19.5a.75.75 0 0 1 .75.75v7.5l.75-.75zm0 1.5a.75.75 0 0 0 .75-.75v-7.5a2.25 2.25 0 0 0-2.25-2.25H2.25A2.25 2.25 0 0 0 0 15.75v7.5c0 .414.336.75.75.75h22.5zM4.376 5.017a9.42 9.42 0 0 1 3.12-.517 9.428 9.428 0 0 1 3.133.519.75.75 0 0 0 .49-1.418A10.917 10.917 0 0 0 7.498 3a10.91 10.91 0 0 0-3.611.6.75.75 0 0 0 .49 1.417zM15.75 14.27a3.001 3.001 0 0 1 6 .16.75.75 0 1 0 1.5.04 4.501 4.501 0 1 0-9-.24.75.75 0 1 0 1.5.04zm3.75-3.77V8.25a.75.75 0 0 0-1.5 0v2.25a.75.75 0 0 0 1.5 0zM17.25 9h3a.75.75 0 0 0 0-1.5h-3a.75.75 0 0 0 0 1.5z"/></svg>