<svg xmlns="http://www.w3.org/2000/svg" class="bk-icon -streamline-spa" viewBox="0 0 24 24" role="presentation" aria-hidden="true" focusable="false"><path d="M11.72 14.295A7.35 7.35 0 0 1 8.997 8.85a7.148 7.148 0 0 1 2.25-4.972c.005-.005-.004-.005-.01-.01a7.173 7.173 0 0 1 2.261 5.03 7.332 7.332 0 0 1-2.722 5.397h.944zm-.944 1.166a.75.75 0 0 0 .944 0 8.85 8.85 0 0 0 3.277-6.555 8.683 8.683 0 0 0-2.72-6.12 1.482 1.482 0 0 0-2.069.01 8.658 8.658 0 0 0-2.71 6.062 8.869 8.869 0 0 0 3.278 6.603zm3.813-7.013A7.807 7.807 0 0 1 19.023 7.1l.003-.001a7.17 7.17 0 0 1-1.959 5.142 7.332 7.332 0 0 1-5.74 1.891.75.75 0 0 0-.158 1.492 8.85 8.85 0 0 0 6.953-2.318 8.68 8.68 0 0 0 2.404-6.233A1.495 1.495 0 0 0 19.029 5.6a9.304 9.304 0 0 0-5.282 1.608.75.75 0 1 0 .842 1.24zM8.75 7.221A9.239 9.239 0 0 0 3.417 5.6c-.815-.001-1.484.664-1.49 1.488a8.652 8.652 0 0 0 2.37 6.184 8.95 8.95 0 0 0 7.031 2.35.75.75 0 1 0-.158-1.49 7.431 7.431 0 0 1-5.82-1.927 7.142 7.142 0 0 1-1.923-5.091L3.426 7.1a7.746 7.746 0 0 1 4.476 1.357.75.75 0 0 0 .848-1.236zm-4.944 3.966c-2.223.948-3.808 2.716-3.808 4.441 0 3.47 5.422 6 12 6a22.404 22.404 0 0 0 6.977-1.047.75.75 0 0 0 .523-.715v-3.488l-.75.75h4.383a.75.75 0 0 0 .715-.524c.1-.315.15-.643.152-.973 0-2.068-1.986-3.858-5.079-4.944a.75.75 0 1 0-.497 1.416c2.56.898 4.076 2.265 4.076 3.525 0 .176-.028.354-.082.524l.715.226v-.75h-4.383a.75.75 0 0 0-.75.75v3.488l.523-.715a20.922 20.922 0 0 1-6.516.977c-5.856 0-10.507-2.17-10.507-4.5 0-1.02 1.17-2.325 2.896-3.061a.75.75 0 0 0-.588-1.38z"/></svg>